<svg width="57" height="79" viewBox="0 0 57 79" version="1.1" xmlns="http://www.w3.org/2000/svg" xmlns:xlink="http://www.w3.org/1999/xlink">
<title>Man-Normal</title>
<desc>Created using Figma</desc>
<g id="Canvas" transform="translate(-42 -320)">
<g id="Man-Normal">
<g id="Fill 20">
<use xlink:href="#path0_fill" transform="translate(50.0596 373.642)" fill="#1AB744"/>
</g>
<g id="Fill 22">
<use xlink:href="#path1_fill" transform="translate(49.4635 373.048)" fill="#0D47A1"/>
</g>
<g id="Fill 119">
<use xlink:href="#path2_fill" transform="translate(51.0112 320.594)" fill="#455A64"/>
</g>
<g id="Fill 121">
<use xlink:href="#path3_fill" transform="translate(50.415 320)" fill="#0D47A1"/>
</g>
<g id="Fill 123">
<use xlink:href="#path4_fill" transform="translate(51.6235 321.188)" fill="#546E7A"/>
</g>
<g id="Fill 125">
<use xlink:href="#path5_fill" transform="translate(83.6672 344.596)" fill="#FCF5DF"/>
</g>
<g id="Stroke 127">
<use xlink:href="#path6_stroke" transform="translate(83.6672 344.596)" fill="#0D47A1"/>
</g>
<g id="Fill 129">
<use xlink:href="#path5_fill" transform="translate(49.3565 344.596)" fill="#FCF5DF"/>
</g>
<g id="Stroke 131">
<use xlink:href="#path6_stroke" transform="translate(49.3565 344.596)" fill="#0D47A1"/>
</g>
<g id="Stroke 133">
<use xlink:href="#path7_stroke" transform="translate(50.9806 346.178)" fill="#0D47A1"/>
</g>
<g id="Stroke 135">
<use xlink:href="#path8_stroke" transform="translate(86.7786 346.178)" fill="#0D47A1"/>
</g>
<g id="Fill 137">
<use xlink:href="#path9_fill" transform="translate(61.6877 365.649)" fill="#FFF8E1"/>
</g>
<g id="Fill 139">
<use xlink:href="#path10_fill" transform="translate(61.092 365.054)" fill="#0D47A1"/>
</g>
<g id="Fill 141">
<use xlink:href="#path11_fill" transform="translate(66.7091 368.876)" fill="#FFECB3"/>
</g>
<g id="Fill 143">
<use xlink:href="#path12_fill" transform="translate(53.3614 371.202)" fill="#76D48F"/>
</g>
<g id="Fill 145">
<use xlink:href="#path13_fill" transform="translate(52.7643 370.607)" fill="#0D47A1"/>
</g>
<g id="Fill 148">
<use xlink:href="#path14_fill" transform="translate(58.1899 383.522)" fill="#48C569"/>
</g>
<g id="Stroke 152">
<use xlink:href="#path15_stroke" transform="translate(69.9175 375.633)" fill="#0D47A1"/>
</g>
<g id="Stroke 156">
<use xlink:href="#path16_stroke" transform="translate(74.8802 379.582)" fill="#0D47A1"/>
</g>
<g id="Fill 158">
<use xlink:href="#path17_fill" transform="translate(53.1313 335.297)" fill="#FFF8E1"/>
</g>
<g id="Fill 160">
<use xlink:href="#path18_fill" transform="translate(52.5354 334.704)" fill="#0D47A1"/>
</g>
<g id="Fill 162">
<use xlink:href="#path19_fill" transform="translate(53.7274 335.892)" fill="#FFECB3"/>
</g>
<g id="Fill 164">
<use xlink:href="#path20_fill" transform="translate(53.7274 349.487)" fill="#FFECB3"/>
</g>
<g id="Fill 172.1">
<use xlink:href="#path21_fill" transform="translate(75.5961 343.594)" fill="#FFFFFF"/>
</g>
<g id="Fill 174.1">
<use xlink:href="#path22_fill" transform="translate(75 343)" fill="#0D47A1"/>
</g>
<g id="Fill 176.1">
<use xlink:href="#path23_fill" transform="translate(77.194 345.186)" fill="#0D47A1"/>
</g>
<g id="Fill 168">
<use xlink:href="#path24_fill" transform="translate(62.3041 359.537)" fill="#FFFFFF"/>
</g>
<g id="Stroke 170">
<use xlink:href="#path25_stroke" transform="translate(62.3041 359.537)" fill="#0D47A1"/>
</g>
<g id="Fill 172">
<use xlink:href="#path21_fill" transform="translate(59.5961 343.594)" fill="#FFFFFF"/>
</g>
<g id="Fill 174">
<use xlink:href="#path22_fill" transform="translate(59 343)" fill="#0D47A1"/>
</g>
<g id="Fill 176">
<use xlink:href="#path23_fill" transform="translate(61.194 345.186)" fill="#0D47A1"/>
</g>
<g id="Fill 178">
<use xlink:href="#path26_fill" transform="translate(53.7273 349.487)" fill="#FFCCBC"/>
</g>
<g id="Fill 180">
<use xlink:href="#path27_fill" transform="translate(80.8216 349.487)" fill="#FFCCBC"/>
</g>
<g id="Fill 198">
<use xlink:href="#path28_fill" transform="translate(52.4321 370.512)" fill="#A8E4BB"/>
</g>
<g id="Stroke 200">
<use xlink:href="#path29_stroke" transform="translate(52.4321 370.512)" fill="#0D47A1"/>
</g>
<g id="Fill 202">
<use xlink:href="#path30_fill" transform="translate(82.2788 370.512)" fill="#A8E4BB"/>
</g>
<g id="Stroke 204">
<use xlink:href="#path31_stroke" transform="translate(82.2788 370.512)" fill="#0D47A1"/>
</g>
<g id="Hands">
<g id="Fill 182">
<use xlink:href="#path32_fill" transform="translate(58.3421 371.028)" fill="#A8E4BB"/>
</g>
<g id="Fill 184">
<use xlink:href="#path33_fill" transform="translate(57.7453 370.434)" fill="#0D47A1"/>
</g>
<g id="Fill 186">
<use xlink:href="#path34_fill" transform="translate(58.3421 390.27)" fill="#FFF8E1"/>
</g>
<g id="Fill 188">
<use xlink:href="#path35_fill" transform="translate(57.7454 389.675)" fill="#0D47A1"/>
</g>
<g id="Fill 190">
<use xlink:href="#path36_fill" transform="translate(42.5953 371.028)" fill="#A8E4BB"/>
</g>
<g id="Fill 192">
<use xlink:href="#path37_fill" transform="translate(42 370.434)" fill="#0D47A1"/>
</g>
<g id="Fill 194">
<use xlink:href="#path38_fill" transform="translate(70.6863 390.269)" fill="#FFF8E1"/>
</g>
<g id="Fill 196">
<use xlink:href="#path39_fill" transform="translate(70.0904 389.674)" fill="#0D47A1"/>
</g>
</g>
</g>
</g>
<defs>
<path id="path0_fill" fill-rule="evenodd" d="M 0.130318 11.3581C 0.0117817 11.3581 0.0117754 11.3581 0.0117754 11.3581C 0.0117754 11.3581 0.130318 8.35806 0.0117754 8.1999C -0.251069 3.224 3.97173 0.231686 4.15172 0.106932C 4.25364 0.036238 4.37285 0 4.49265 0C 4.58682 0 4.68159 0.0219805 4.7686 0.0671295C 4.96529 0.169903 5.08867 0.373074 5.08867 0.594066L 5.08867 11.3581C 5.08867 11.3347 5.08867 11.3295 5.13031 11.3581L 0.130318 11.3581Z"/>
<path id="path1_fill" fill-rule="evenodd" d="M 5.08889 0C 4.84929 0 4.61088 0.071882 4.40704 0.21327C 4.21631 0.345747 -0.267535 3.52341 0.0125944 8.82485C 0.012592 11.9523 0.012592 11.9523 0.012592 11.9523L 6.22643 11.9523C 6.88444 11.9523 5.6402 11.9523 6.28092 11.9523L 6.28092 1.18813C 6.28092 0.745553 6.03417 0.339806 5.6402 0.134853C 5.46676 0.044555 5.27723 0 5.08889 0ZM 5.08889 1.18814L 5.08889 11.9523L 1.20284 11.9523C 1.20244 12.0511 1.20325 11.8535 1.20284 11.9523C 1.20284 10.4523 1.22643 9.95233 1.20284 8.76249C 0.954895 4.05926 5.08889 1.18814 5.08889 1.18814Z"/>
<path id="path2_fill" fill-rule="evenodd" d="M 4.3563 27.7999C 2.6356 27.7999 1.23078 26.4235 1.19263 24.7173L 0.0154965 19.6398C 0.00536417 19.5953 0 19.5507 0 19.5056C 0 8.87416 4.94398 3.95945 18.2424 1.37289C 24.0774 0.237627 28.3598 0 30.9245 0C 33.3228 0 34.5494 0.200794 34.6007 0.209705C 34.7604 0.236438 34.9023 0.326736 34.9935 0.460401C 36.9514 3.31251 37.9038 9.54249 37.9056 19.5056C 37.9056 19.5507 37.9003 19.5953 37.8901 19.6398L 36.713 24.7173C 36.6749 26.4235 35.27 27.7999 33.5493 27.7999L 4.3563 27.7999Z"/>
<path id="path3_fill" fill-rule="evenodd" d="M 31.5199 0C 28.9296 0 24.6067 0.240003 18.7245 1.38417C 5.0751 4.03846 0 9.11119 0 20.1002C 0 20.1899 0.0107283 20.2796 0.030397 20.3676L 1.19502 25.388C 1.2731 27.3865 2.92884 28.9881 4.95232 28.9881L 34.1459 28.9881C 36.1694 28.9881 37.8246 27.3865 37.9027 25.388L 39.0673 20.3676C 39.0875 20.2796 39.0977 20.1899 39.0977 20.0996C 39.0959 10.013 38.1095 3.67371 36.0818 0.71882C 35.8988 0.452679 35.6151 0.271488 35.2957 0.218022C 35.2426 0.209111 33.9677 0 31.5199 0L 31.5199 0ZM 31.5199 1.18814C 33.8962 1.18814 35.0978 1.38953 35.0978 1.38953C 37.0849 4.28501 37.9044 10.897 37.9056 20.1002L 36.7136 25.2401C 36.7136 26.654 35.5639 27.7999 34.1459 27.7999L 4.95232 27.7999C 3.5338 27.7999 2.38408 26.654 2.38408 25.2401L 1.19204 20.1002C 1.19204 9.99517 5.62702 5.14165 18.9528 2.55033C 24.6269 1.44656 28.8277 1.18814 31.5199 1.18814L 31.5199 1.18814Z"/>
<path id="path4_fill" fill-rule="evenodd" d="M 17.5307 3.61613C 28.212 1.53868 33.6757 2.45592 33.6757 2.45592C 35.5621 5.20467 36.3947 11.3093 36.4758 19.7967L 36.6808 18.9122C 36.679 9.70888 35.8595 3.09692 33.873 0.20144C 33.873 0.20144 28.4093 -0.715205 17.728 1.36225C 5.02683 3.83237 0.406485 8.36035 0 17.528C 1.05734 9.85323 5.91609 5.87477 17.5307 3.61613"/>
<path id="path5_fill" fill-rule="evenodd" d="M 6.81131 3.39449C 6.81131 5.26937 5.28669 6.78899 3.40565 6.78899C 1.52462 6.78899 0 5.26937 0 3.39449C 0 1.51962 1.52462 0 3.40565 0C 5.28669 0 6.81131 1.51962 6.81131 3.39449"/>
<path id="path6_stroke" d="M 6.09958 3.39449C 6.09958 4.87409 4.89582 6.07726 3.40565 6.07726L 3.40565 7.50072C 5.67757 7.50072 7.52304 5.66465 7.52304 3.39449L 6.09958 3.39449ZM 3.40565 6.07726C 1.91549 6.07726 0.711732 4.87409 0.711732 3.39449L -0.711732 3.39449C -0.711732 5.66465 1.13374 7.50072 3.40565 7.50072L 3.40565 6.07726ZM 0.711732 3.39449C 0.711732 1.9149 1.91549 0.711732 3.40565 0.711732L 3.40565 -0.711732C 1.13374 -0.711732 -0.711732 1.12434 -0.711732 3.39449L 0.711732 3.39449ZM 3.40565 0.711732C 4.89582 0.711732 6.09958 1.9149 6.09958 3.39449L 7.52304 3.39449C 7.52304 1.12434 5.67757 -0.711732 3.40565 -0.711732L 3.40565 0.711732Z"/>
<path id="path7_stroke" d="M -0.711732 2.05606C -0.711732 2.44914 -0.393079 2.7678 0 2.7678C 0.393079 2.7678 0.711732 2.44914 0.711732 2.05606L -0.711732 2.05606ZM 2.06282 0.711732C 2.4559 0.711732 2.77455 0.393079 2.77455 0C 2.77455 -0.393079 2.4559 -0.711732 2.06282 -0.711732L 2.06282 0.711732ZM 0.711732 2.05606C 0.711732 1.31562 1.31457 0.711732 2.06282 0.711732L 2.06282 -0.711732C 0.533089 -0.711732 -0.711732 0.524796 -0.711732 2.05606L 0.711732 2.05606Z"/>
<path id="path8_stroke" d="M 1.35109 2.05606C 1.35109 2.44914 1.66974 2.7678 2.06282 2.7678C 2.4559 2.7678 2.77455 2.44914 2.77455 2.05606L 1.35109 2.05606ZM 0 -0.711732C -0.393079 -0.711732 -0.711732 -0.393079 -0.711732 0C -0.711732 0.393079 -0.393079 0.711732 0 0.711732L 0 -0.711732ZM 2.77455 2.05606C 2.77455 0.524796 1.52973 -0.711732 0 -0.711732L 0 0.711732C 0.748252 0.711732 1.35109 1.31562 1.35109 2.05606L 2.77455 2.05606Z"/>
<path id="path9_fill" fill-rule="evenodd" d="M 5.21159 17.9557C 4.39207 17.9557 3.72452 17.2909 3.72452 16.4741L 3.72452 12.8378C 3.72452 12.3607 3.33592 11.9734 2.85791 11.9734L 1.48647 11.9734C 0.666946 11.9734 0 11.3086 0 10.4918L 0 7.03018C 0 6.21334 0.666946 5.54858 1.48647 5.54858L 3.37943 5.54858C 3.95578 5.54858 4.42425 5.08105 4.42425 4.50659L 4.42425 1.4822C 4.42425 0.665354 5.0912 0 5.91132 0L 10.3684 0C 11.1885 0 11.8554 0.665354 11.8554 1.4822L 11.8554 4.50659C 11.8554 5.08105 12.3245 5.54858 12.9002 5.54858L 16.0508 5.54858C 16.8709 5.54858 17.5373 6.21334 17.5373 7.03018L 17.5373 10.4918C 17.5373 11.3086 16.8709 11.9734 16.0508 11.9734L 15.3064 11.9734C 13.1321 11.9734 11.3631 13.736 11.3631 15.9037L 11.3631 16.4741C 11.3762 16.5067 11.4865 16.635 11.5389 16.6968C 11.682 16.8638 11.9478 17.1756 11.766 17.5671C 11.6987 17.7121 11.5187 17.9557 11.0681 17.9557L 5.21159 17.9557Z"/>
<path id="path10_fill" fill-rule="evenodd" d="M 10.9644 0L 6.50674 0C 5.35821 0 4.42425 0.931496 4.42425 2.07567L 4.42425 5.10125C 4.42425 5.34778 4.2222 5.54858 3.97485 5.54858L 2.08249 5.54858C 0.933962 5.54858 0 6.48008 0 7.62484L 0 11.0859C 0 12.2306 0.933962 13.1615 2.08249 13.1615L 3.45393 13.1615C 3.60055 13.1615 3.72452 13.2851 3.72452 13.4312L 3.72452 17.0681C 3.72452 18.2129 4.65908 19.1438 5.80702 19.1438L 11.6641 19.1438C 12.4753 19.1438 12.8007 18.6311 12.9026 18.4101C 13.2441 17.6741 12.7506 17.096 12.5885 16.9059C 12.5784 16.8941 12.5665 16.8804 12.5545 16.8661L 12.5545 16.4978C 12.5545 14.658 14.0559 13.1615 15.9018 13.1615L 16.6462 13.1615C 17.7948 13.1615 18.7293 12.2306 18.7293 11.0859L 18.7293 7.62484C 18.7293 6.48008 17.7948 5.54858 16.6462 5.54858L 13.4963 5.54858C 13.2489 5.54858 13.0469 5.34778 13.0469 5.10125L 13.0469 2.07567C 13.0469 0.931496 12.1129 0 10.9644 0L 10.9644 0ZM 10.9644 1.18814C 11.4561 1.18814 11.8548 1.58557 11.8548 2.07568L 11.8548 5.10126C 11.8548 6.00483 12.5897 6.73672 13.4963 6.73672L 16.6462 6.73672C 17.1385 6.73672 17.5373 7.13415 17.5373 7.62485L 17.5373 11.0859C 17.5373 11.576 17.1385 11.9734 16.6462 11.9734L 15.9018 11.9734C 13.4051 11.9734 11.3625 14.0093 11.3625 16.4978L 11.3625 17.0681C 11.3625 17.5582 12.1558 17.9557 11.6641 17.9557L 5.80702 17.9557C 5.3153 17.9557 4.91656 17.5582 4.91656 17.0681L 4.91656 13.4313C 4.91656 12.6299 4.25856 11.9734 3.45393 11.9734L 2.08249 11.9734C 1.59078 11.9734 1.19204 11.576 1.19204 11.0859L 1.19204 7.62485C 1.19204 7.13415 1.59078 6.73672 2.08249 6.73672L 3.97485 6.73672C 4.8814 6.73672 5.61629 6.00483 5.61629 5.10126L 5.61629 2.07568C 5.61629 1.58557 6.01503 1.18814 6.50674 1.18814L 10.9644 1.18814L 10.9644 1.18814Z"/>
<path id="path11_fill" fill-rule="evenodd" d="M 0 1.29982C 0 1.29982 2.72381 2.05725 6.23853 1.29982L 6.23853 0L 0 0L 0 1.29982Z"/>
<path id="path12_fill" fill-rule="evenodd" d="M 0.594828 13.7985L 0.594828 12.3209L 1.0058e-06 2.38755C -0.00119103 1.05506 1.05734 0 2.35845 0L 11.5085 0L 11.5085 0.594066C 11.5085 2.73627 14.4713 5.03055 16.5562 5.03055C 18.6411 5.03055 21.6033 2.73627 21.6033 0.594066L 21.6033 0L 30.7534 0C 32.0545 0 33.1136 1.05506 33.1136 2.3525L 32.5164 12.3566L 32.5176 13.7985L 0.594828 13.7985Z"/>
<path id="path13_fill" fill-rule="evenodd" d="M 31.3506 0L 22.7965 0L 21.6045 0L 21.6045 1.18813C 21.6045 2.84023 19.0667 5.03115 17.1534 5.03115C 15.2396 5.03115 12.7018 2.84023 12.7018 1.18813L 12.7018 0L 11.5097 0L 2.95566 0C 1.32614 0 0 1.3218 0 2.94597L 0 2.98162L 0.00178806 3.01667L 0.596019 12.9501L 0.596019 13.2044L 0.596019 14.3926L 1.78806 14.3926L 33.7103 14.3926L 33.7103 12.9501L 34.3045 3.01667L 34.3063 2.98162L 34.3063 2.94597C 34.3063 1.3218 32.9807 0 31.3506 0ZM 31.3506 1.18814C 32.3251 1.18814 33.1142 1.97528 33.1142 2.94598L 32.5182 12.915L 32.5182 14.3926L 1.78806 14.3926L 1.78806 12.915L 1.19204 2.94598C 1.19204 1.97528 1.98177 1.18814 2.95566 1.18814L 11.5097 1.18814C 11.5097 3.63866 14.6949 6.21929 17.1534 6.21929C 19.6114 6.21929 22.7965 3.63866 22.7965 1.18814L 31.3506 1.18814Z"/>
<path id="path14_fill" fill-rule="evenodd" d="M 1.32211 0L 22.2257 0C 22.9969 0 24 0.708955 24 1.47768C 23.5 1.47768 0.665425 1.47768 3.44382e-07 1.47768C 3.44382e-07 0.477269 0 0.977676 3.44382e-07 1.47768C 3.44382e-07 0.708955 0.55086 0 1.32211 0Z"/>
<path id="path15_stroke" d="M -0.711732 0L -0.711732 9.36717L 0.711732 9.36717L 0.711732 0L -0.711732 0Z"/>
<path id="path16_stroke" d="M 0 -0.711732C -0.393079 -0.711732 -0.711732 -0.393079 -0.711732 0C -0.711732 0.393079 -0.393079 0.711732 0 0.711732L 0 -0.711732ZM 6.3035 0.711732C 6.69658 0.711732 7.01523 0.393079 7.01523 0C 7.01523 -0.393079 6.69658 -0.711732 6.3035 -0.711732L 6.3035 0.711732ZM 0 0.711732L 6.3035 0.711732L 6.3035 -0.711732L 0 -0.711732L 0 0.711732Z"/>
<path id="path17_fill" fill-rule="evenodd" d="M 16.7863 33.4525C 7.68746 33.4525 0 25.4266 0 15.9275L 0 2.49805C 0 1.12041 1.12409 0 2.50566 0C 2.54858 0 2.59209 0.00475253 2.63381 0.0142576C 2.69699 0.0279211 9.02194 1.39843 17.315 1.39843C 22.1856 1.39843 26.7696 0.932684 30.9388 0.0142576C 30.9805 0.00475253 31.024 0 31.0669 0C 32.4717 0 33.5726 1.09724 33.5726 2.49805L 33.5726 15.9275C 33.5726 25.4266 25.8851 33.4525 16.7863 33.4525"/>
<path id="path18_fill" fill-rule="evenodd" d="M 31.6629 0C 31.5765 0 31.4901 0.00950506 31.4054 0.0279211C 27.2786 0.937437 22.7381 1.39784 17.911 1.39784C 9.67339 1.39784 3.42055 0.0415846 3.35857 0.0279211C 3.27393 0.00950506 3.18811 0 3.10168 0C 1.39111 0 0 1.38655 0 3.09093L 0 16.521C 0 26.3427 7.95984 34.64 17.3823 34.64C 26.8042 34.64 34.7646 26.3427 34.7646 16.521L 34.7646 3.09093C 34.7646 1.35804 33.4021 0 31.6629 0L 31.6629 0ZM 31.6629 1.18814C 32.7572 1.18814 33.5726 2.04003 33.5726 3.09094L 33.5726 16.521C 33.5726 25.833 25.959 33.4519 17.3823 33.4519L 17.3823 33.4519C 8.80559 33.4519 1.19204 25.833 1.19204 16.521L 1.19204 3.09094C 1.19204 2.04003 2.04673 1.18814 3.10169 1.18814C 3.10169 1.18814 9.4481 2.58598 17.911 2.58598C 22.1421 2.58598 26.9031 2.23667 31.6629 1.18814L 31.6629 1.18814Z"/>
<path id="path19_fill" fill-rule="evenodd" d="M 30.4709 0C 16.1903 3.14558 1.90965 0 1.90965 0C 0.854692 0 0 0.851891 0 1.90279L 0 3.64044C 0 2.58953 0.506616 0.917832 1.90965 1.14358C 1.90965 1.14358 16.1903 4.28916 30.4709 1.14358C 31.6486 0.843574 32.3799 2.58953 32.3799 3.64044L 32.3799 1.90279C 32.3799 0.851891 31.5652 0 30.4709 0"/>
<path id="path20_fill" fill-rule="evenodd" d="M 16.1903 16.9309L 16.1903 16.9309C 7.61355 16.9309 0 9.31199 0 0L 0 1.73764C 0 11.0496 7.61355 18.6685 16.1903 18.6685L 16.1903 18.6685C 24.767 18.6685 32.3799 11.0496 32.3799 1.73764L 32.3799 0C 32.3799 9.31199 24.767 16.9309 16.1903 16.9309"/>
<path id="path21_fill" fill-rule="evenodd" d="M 2.76017 5.50224C 1.23853 5.50224 0 4.26837 0 2.75112C 0 1.23388 1.23853 0 2.76017 0C 4.2818 0 5.52033 1.23388 5.52033 2.75112C 5.52033 4.26837 4.2818 5.50224 2.76017 5.50224"/>
<path id="path22_fill" fill-rule="evenodd" d="M 3.35618 0C 1.50554 0 0 1.50061 0 3.34519C 0 5.18976 1.50554 6.68978 3.35618 6.68978C 5.20682 6.68978 6.71237 5.18976 6.71237 3.34519C 6.71237 1.50061 5.20682 0 3.35618 0L 3.35618 0ZM 3.35619 1.18814C 4.5512 1.18814 5.52033 2.1535 5.52033 3.3452C 5.52033 4.5363 4.5512 5.50166 3.35619 5.50166C 2.16117 5.50166 1.19204 4.5363 1.19204 3.3452C 1.19204 2.1535 2.16117 1.18814 3.35619 1.18814L 3.35619 1.18814Z"/>
<path id="path23_fill" fill-rule="evenodd" d="M 1.16224 0.28931C 1.16224 0.188913 1.1831 0.0938625 1.21767 0.00594066C 1.19859 0.00475253 1.18131 0 1.16224 0C 0.520325 0 0 0.51862 0 1.15843C 0 1.79824 0.520325 2.31686 1.16224 2.31686C 1.80415 2.31686 2.32448 1.79824 2.32448 1.15843C 2.32448 1.09665 2.31553 1.03665 2.306 0.977239C 2.19752 1.03427 2.07593 1.06932 1.94481 1.06932C 1.5127 1.06932 1.16224 0.720008 1.16224 0.28931"/>
<path id="path24_fill" fill-rule="evenodd" d="M 15.2271 0C 15.2271 0 12.6982 3.1432 7.61355 3.1432C 2.34236 3.1432 0 0 0 0L 15.2271 0Z"/>
<path id="path25_stroke" d="M 15.2271 0L 15.7816 0.446157C 15.9534 0.232714 15.9873 -0.0603466 15.869 -0.307423C 15.7507 -0.5545 15.501 -0.711732 15.2271 -0.711732L 15.2271 0ZM 0 0L 0 -0.711732C -0.269191 -0.711732 -0.515348 -0.55986 -0.636103 -0.319273C -0.756858 -0.0786871 -0.731547 0.209441 -0.570694 0.425289L 0 0ZM 15.2271 0C 14.6726 -0.446157 14.6728 -0.446411 14.673 -0.446653C 14.673 -0.446718 14.6732 -0.446949 14.6733 -0.447079C 14.6732 -0.446996 14.674 -0.447884 14.6738 -0.447718C 14.6738 -0.447742 14.6742 -0.448199 14.6742 -0.44816C 14.6735 -0.447369 14.6735 -0.447284 14.6722 -0.445757C 14.6685 -0.441272 14.6648 -0.436869 14.6574 -0.428307C 14.6403 -0.408297 14.6187 -0.383711 14.5847 -0.346855C 14.5116 -0.267277 14.4122 -0.164147 14.2675 -0.0298092C 13.9665 0.250888 13.5457 0.600668 12.9521 0.966648C 11.7349 1.72388 10.0174 2.44507 7.61355 2.43147L 7.61355 3.85494C 10.2943 3.84134 12.3836 2.99093 13.702 2.17656C 14.3762 1.75674 14.9055 1.32071 15.2375 1.01206C 15.4093 0.851723 15.5472 0.709291 15.6323 0.616974C 15.6774 0.567883 15.7151 0.52494 15.7375 0.498907C 15.7499 0.484446 15.761 0.4712 15.7672 0.463791C 15.7708 0.45937 15.7745 0.454947 15.7763 0.452717C 15.7775 0.451245 15.7788 0.449601 15.7794 0.448863C 15.7799 0.448317 15.7804 0.447639 15.7807 0.447366C 15.7808 0.44714 15.7811 0.446838 15.7812 0.446725C 15.7814 0.446435 15.7816 0.446157 15.2271 0ZM 7.61355 2.43147C 5.1278 2.43147 3.35453 1.69244 2.21007 0.969799C 1.63081 0.606291 1.23095 0.26087 0.945446 -0.01825C 0.808953 -0.151037 0.7173 -0.251778 0.649236 -0.330563C 0.617947 -0.366646 0.598765 -0.390068 0.58306 -0.409693C 0.576489 -0.417875 0.573505 -0.421709 0.57019 -0.426006C 0.569152 -0.427346 0.568247 -0.428545 0.568775 -0.427848C 0.568736 -0.427901 0.569336 -0.427104 0.569319 -0.427127C 0.56916 -0.427339 0.569982 -0.426243 0.569903 -0.426349C 0.570017 -0.426196 0.570216 -0.425931 0.570273 -0.425854C 0.570479 -0.425577 0.570694 -0.425289 0 0C -0.570694 0.425289 -0.570461 0.425601 -0.570219 0.425926C -0.570126 0.42605 -0.569874 0.426387 -0.569688 0.426636C -0.569466 0.426932 -0.568906 0.427679 -0.568461 0.428272C -0.567871 0.429057 -0.566526 0.43084 -0.56534 0.432404C -0.563576 0.434728 -0.559984 0.439432 -0.55643 0.444039C -0.550558 0.451637 -0.539747 0.465453 -0.527875 0.480292C -0.506694 0.50671 -0.470404 0.550819 -0.427349 0.600682C -0.346725 0.693791 -0.214201 0.838613 -0.0487349 1.0005C 0.269679 1.31073 0.784858 1.75111 1.45008 2.17341C 2.7946 3.02237 4.8281 3.85494 7.61355 3.85494L 7.61355 2.43147ZM 0 0.711732L 15.2271 0.711732L 15.2271 -0.711732L 0 -0.711732L 0 0.711732Z"/>
<path id="path26_fill" fill-rule="evenodd" d="M 5.28609 4.00579C 5.28609 1.79349 3.48671 0 1.26714 0C 0.823699 0 0.398737 0.0736642 0 0.206141L 0 1.73705C 0 3.95054 0.434498 6.06601 1.20575 8.00861C 1.22601 8.0092 1.24628 8.01158 1.26714 8.01158C 3.48671 8.01158 5.28609 6.21809 5.28609 4.00579"/>
<path id="path27_fill" fill-rule="evenodd" d="M 5.28609 0.206141C 4.88736 0.0742583 4.4624 0 4.01896 0C 1.79938 0 0 1.79349 0 4.00579C 0 6.21809 1.79938 8.01217 4.01896 8.01217C 4.03982 8.01217 4.06008 8.0092 4.08094 8.00861C 4.8516 6.06661 5.28609 3.95054 5.28609 1.73705L 5.28609 0.206141Z"/>
<path id="path28_fill" fill-rule="evenodd" d="M 1.67534 4.88585C -0.0167577 4.68565 -0.286754 1.76284 0.246087 1.06779C 1.0382 0.034705 4.54219 -0.541539 5.21272 0.720852C 5.81112 1.8472 3.65234 5.11991 1.67534 4.88585"/>
<path id="path29_stroke" d="M 0.246087 1.06779L -0.318727 0.634718L -0.318763 0.634765L 0.246087 1.06779ZM 5.21272 0.720852L 4.58415 1.05472L 4.58418 1.05478L 5.21272 0.720852ZM 1.75897 4.17905C 1.37267 4.13334 1.0091 3.75245 0.816504 2.98842C 0.722182 2.62393 0.695173 2.29648 0.717039 1.97336C 0.725879 1.81834 0.74082 1.71877 0.771455 1.6116C 0.795698 1.51572 0.830493 1.48343 0.810936 1.50081L -0.318763 0.634765C -0.584338 0.981191 -0.678111 1.47147 -0.703712 1.88551C -0.728205 2.31215 -0.681866 2.85824 -0.563781 3.33636C -0.331567 4.25754 0.285912 5.43816 1.59172 5.59265L 1.75897 4.17905ZM 0.810901 1.50085C 0.893167 1.39356 1.11922 1.22338 1.52561 1.06134C 1.92866 0.89872 2.36834 0.792281 2.85211 0.741059C 3.33353 0.686954 3.73474 0.695178 4.09472 0.788226C 4.43851 0.873041 4.55257 0.995272 4.58415 1.05472L 5.84128 0.386987C 5.5376 -0.184764 4.96222 -0.4639 4.43567 -0.593802C 3.92531 -0.715471 3.27529 -0.735318 2.69788 -0.674026C 2.12282 -0.60985 1.49608 -0.457425 0.998395 -0.260893C 0.504046 -0.0637807 -0.00493897 0.225471 -0.318727 0.634718L 0.810901 1.50085ZM 4.58418 1.05478C 4.55321 1.01447 4.60954 1.08981 4.60217 1.21248C 4.60064 1.35079 4.57595 1.47082 4.51321 1.66091C 4.38719 2.06084 4.16874 2.46127 3.84474 2.88076C 3.16943 3.76254 2.35391 4.24949 1.75902 4.17905L 1.59166 5.59265C 2.97377 5.75628 4.22614 4.72389 4.97486 3.74625C 5.36289 3.23603 5.6955 2.62172 5.86773 2.09855C 6.03417 1.58339 6.12965 0.929773 5.84125 0.386926L 4.58418 1.05478Z"/>
<path id="path30_fill" fill-rule="evenodd" d="M 3.6389 4.88585C 5.331 4.68565 5.6016 1.76284 5.06816 1.06779C 4.27605 0.034705 0.772052 -0.541539 0.101531 0.720852C -0.496873 1.8472 1.66191 5.11991 3.6389 4.88585"/>
<path id="path31_stroke" d="M 5.06816 1.06779L 4.50335 1.50085L 4.50354 1.50111L 5.06816 1.06779ZM 0.101531 0.720852L 0.730066 1.05478L 0.730098 1.05472L 0.101531 0.720852ZM 3.72253 5.59265C 5.02826 5.43816 5.64593 4.25765 5.87824 3.33642C 5.99637 2.85828 6.04273 2.31214 6.01821 1.88546C 5.99257 1.47136 5.89869 0.980944 5.63277 0.63446L 4.50354 1.50111C 4.48398 1.48376 4.51876 1.51593 4.54301 1.61178C 4.57367 1.71891 4.58861 1.81841 4.59746 1.97341C 4.61935 2.29649 4.59233 2.62389 4.49798 2.98836C 4.30533 3.75235 3.94164 4.13334 3.55528 4.17905L 3.72253 5.59265ZM 5.63297 0.634718C 5.31918 0.225471 4.8102 -0.0637807 4.31585 -0.260893C 3.81817 -0.457425 3.19142 -0.60985 2.61636 -0.674026C 2.03896 -0.735318 1.38893 -0.715471 0.878575 -0.593802C 0.35203 -0.4639 -0.22335 -0.184764 -0.527037 0.386987L 0.730098 1.05472C 0.761672 0.995272 0.875738 0.873041 1.21953 0.788226C 1.57951 0.695178 1.98071 0.686954 2.46214 0.741059C 2.9459 0.792281 3.38559 0.89872 3.78864 1.06134C 4.19502 1.22338 4.42108 1.39356 4.50335 1.50085L 5.63297 0.634718ZM -0.527004 0.386926C -0.815406 0.929773 -0.719925 1.58339 -0.553481 2.09855C -0.381249 2.62172 -0.0486414 3.23603 0.339385 3.74625C 1.08811 4.72389 2.34048 5.75628 3.72258 5.59265L 3.55523 4.17905C 2.96034 4.24949 2.14482 3.76254 1.4695 2.88076C 1.14551 2.46127 0.927059 2.06084 0.801038 1.66091C 0.738295 1.47082 0.713606 1.35079 0.712074 1.21248C 0.704704 1.08981 0.761039 1.01447 0.730066 1.05478L -0.527004 0.386926Z"/>
<path id="path32_fill" fill-rule="evenodd" d="M 2.93168 26.9308C 1.72296 26.9308 0.63701 26.25 0.230525 25.2365C -0.169404 24.2409 -0.044836 23.1222 0.572044 22.1688C 1.3576 20.9539 3.26545 19.4628 7.89235 19.2561C 8.11348 19.246 8.33519 19.2418 8.55751 19.2418C 11.0054 19.2418 13.5647 19.8347 17.1062 20.6557L 18.6296 21.0068C 22.4734 21.8878 23.7155 22.1111 26.1645 22.1111C 26.4965 22.1111 26.8499 22.107 27.2338 22.0993C 30.5101 22.0381 32.9275 21.0294 34.4194 19.1016C 36.2712 16.7093 36.3445 13.6606 35.7956 11.6045C 34.8569 8.08999 31.0346 4.43768 27.2743 3.46281C 26.2992 3.20915 25.8099 1.19704 25.8814 0.638621C 25.938 0.197824 26.2587 0 26.5507 0L 26.6234 0.00415846C 31.9143 0.585749 37.5676 5.51294 38.9682 10.7633C 39.926 14.3497 39.1786 18.3109 37.0186 21.1012C 35.4886 23.0783 32.5664 25.4349 27.3369 25.4349L 26.8893 25.4367C 25.7783 25.4367 22.3959 25.4367 17.8638 24.2777C 14.0665 23.3064 11.236 22.7052 8.86267 22.7052C 8.6034 22.7052 8.34831 22.7117 8.09738 22.726C 6.45535 22.8199 5.90105 24.0413 5.41232 25.1189C 5.31159 25.3405 5.21801 25.5454 5.12444 25.7201C 4.71795 26.4781 3.89783 26.9308 2.93168 26.9308"/>
<path id="path33_fill" fill-rule="evenodd" d="M 27.1473 0L 27.1473 0L 27.1467 0C 26.4923 0.000594066 25.9744 0.476441 25.8868 1.15784C 25.7973 1.85705 26.3218 4.26837 27.7213 4.63134C 31.2962 5.55868 34.9272 9.02149 35.8158 12.3512C 36.3284 14.2701 36.2634 17.1115 34.5439 19.3321C 33.1677 21.1101 30.9058 22.041 27.8196 22.0993C 27.4388 22.1064 27.0889 22.1106 26.7599 22.1106C 24.3729 22.1106 23.151 21.8902 19.3597 21.0216C 18.8281 20.8998 18.3197 20.7822 17.831 20.6688C 14.2536 19.84 11.6687 19.2406 9.15411 19.2406C 8.92285 19.2406 8.69219 19.246 8.46213 19.2561C 3.58133 19.4741 1.52983 21.1084 0.667389 22.4409C -0.0549861 23.5577 -0.198627 24.8736 0.274017 26.051C 0.770501 27.2878 2.07817 28.1183 3.52828 28.1183C 4.71794 28.1183 5.73415 27.5486 6.24673 26.594C 6.35341 26.395 6.44997 26.1823 6.55248 25.9565C 7.09248 24.7666 7.53591 23.9813 8.72795 23.913C 8.96576 23.8993 9.21252 23.8928 9.46106 23.8928C 11.7712 23.8928 14.5606 24.4874 18.3125 25.4468C 21.4118 26.2393 24.4116 26.6249 27.4829 26.6249C 27.6498 26.6249 27.8035 26.6237 27.9436 26.6225C 33.4055 26.6231 36.4756 24.1399 38.0879 22.0571C 40.3587 19.1242 41.1454 14.9651 40.1411 11.2041C 38.6833 5.74046 32.7958 0.613076 27.2856 0.00772286L 27.22 0.000594066L 27.1473 0ZM 27.1473 1.18814C 27.1497 1.18814 27.1521 1.18814 27.1545 1.18873C 32.1491 1.73765 37.651 6.49494 38.989 11.5094C 39.8998 14.9206 39.1929 18.6846 37.1438 21.3317C 35.7151 23.1769 32.9895 25.435 27.9341 25.435C 27.797 25.4356 27.6462 25.4367 27.4829 25.4367C 25.7896 25.4367 22.6808 25.3375 18.6088 24.2961C 14.6876 23.2933 11.8851 22.7046 9.46106 22.7046C 9.18927 22.7046 8.92345 22.7118 8.66001 22.7266C 6.27533 22.8626 5.74488 25.0102 5.19594 26.0332C 4.86694 26.6457 4.21192 26.9302 3.52828 26.9302C 2.64856 26.9302 1.72175 26.4597 1.38082 25.6096C 0.631032 23.7419 1.95777 20.7365 8.51577 20.443C 8.72795 20.4335 8.94073 20.4288 9.15411 20.4288C 11.8594 20.4288 14.6983 21.1731 19.0927 22.1795C 22.9555 23.0646 24.237 23.2987 26.7599 23.2987C 27.0961 23.2987 27.4531 23.2945 27.8423 23.2868C 31.1788 23.2244 33.8436 22.1824 35.488 20.0581C 37.4722 17.4947 37.5532 14.2386 36.9679 12.0453C 35.9422 8.20169 31.8809 4.48224 28.0217 3.48124C 27.4143 3.32381 26.8475 1.18814 27.1473 1.18814L 27.1473 1.18814Z"/>
<path id="path34_fill" fill-rule="evenodd" d="M 2.93139 7.689C 1.72266 7.689 0.636716 7.0082 0.23023 5.99472C -0.169102 4.99847 -0.0451304 3.87985 0.572345 2.92637C 1.3579 1.7121 3.26576 0.220993 7.89206 0.0142576C 8.11318 0.00415846 8.3343 0 8.55662 0C 9.24979 0 9.97157 0.0469312 10.7631 0.143764C 10.9306 0.163962 11.082 0.25426 11.1785 0.392678C 11.2757 0.530501 11.309 0.70278 11.2709 0.867337C 11.1189 1.52259 10.9961 2.22359 10.8948 3.00895C 10.8561 3.30776 10.601 3.52757 10.3041 3.52757C 10.2875 3.52757 10.2702 3.52697 10.2535 3.52519C 9.76296 3.4842 9.29151 3.46341 8.85105 3.46341C 8.59536 3.46341 8.34444 3.46994 8.09709 3.4842C 6.45565 3.57806 5.90135 4.79946 5.41262 5.8765C 5.31189 6.09868 5.21772 6.30364 5.12474 6.47829C 4.71766 7.23632 3.89754 7.689 2.93139 7.689"/>
<path id="path35_fill" fill-rule="evenodd" d="M 9.14948 0C 8.92001 0 8.69114 0.00475253 8.46227 0.0154457C 3.58146 0.233468 1.52937 1.86715 0.667526 3.19964C -0.0548495 4.31649 -0.19849 5.63294 0.273557 6.81038C 0.770041 8.04663 2.07771 8.87773 3.52842 8.87773C 4.71807 8.87773 5.73429 8.30742 6.24686 7.35276C 6.35355 7.15375 6.4501 6.94107 6.55202 6.71592C 7.09261 5.52541 7.53546 4.74005 8.72809 4.67233C 8.96173 4.65867 9.20491 4.65213 9.45047 4.65213C 9.87483 4.65213 10.329 4.67233 10.8004 4.71213C 10.8344 4.7151 10.8684 4.71629 10.9018 4.71629C 11.4954 4.71629 12.0062 4.27609 12.0831 3.67905C 12.1814 2.9133 12.3006 2.23191 12.4484 1.59566C 12.5247 1.26774 12.4574 0.922585 12.2637 0.646344C 12.07 0.370697 11.7678 0.189507 11.4322 0.148517C 10.6145 0.0487134 9.86768 0 9.14948 0L 9.14948 0ZM 9.14947 1.18814C 9.84503 1.18814 10.5489 1.23745 11.2874 1.32775C 11.1175 2.05845 10.9953 2.79034 10.9006 3.52817C 10.4005 3.48599 9.91834 3.46401 9.45046 3.46401C 9.18285 3.46401 8.91941 3.47114 8.66014 3.48599C 6.27547 3.62203 5.74442 5.76958 5.19548 6.79256C 4.86708 7.40504 4.21205 7.6896 3.52842 7.6896C 2.64869 7.6896 1.72188 7.21851 1.38036 6.36899C 0.631167 4.50125 1.95791 1.49527 8.51591 1.2024C 8.7269 1.19289 8.93789 1.18814 9.14947 1.18814L 9.14947 1.18814Z"/>
<path id="path36_fill" fill-rule="evenodd" d="M 36.4467 26.9308C 35.4806 26.9308 34.6605 26.4781 34.254 25.7201C 34.1604 25.5454 34.0668 25.3405 33.9661 25.1189C 33.4774 24.0413 32.9231 22.8199 31.281 22.726C 31.0301 22.7117 30.775 22.7052 30.5157 22.7052C 28.1424 22.7052 25.3119 23.3064 21.5147 24.2777C 16.9933 25.4344 13.6168 25.4367 12.4969 25.4367C 12.4939 25.4367 12.0368 25.4349 12.0368 25.4349C 6.81266 25.4349 3.89038 23.0783 2.3598 21.1012C 0.199827 18.3109 -0.547582 14.3497 0.410221 10.7633C 1.81146 5.51294 7.4647 0.585749 12.755 0.00415846L 12.8277 0C 13.1203 0 13.4404 0.197824 13.497 0.638621C 13.5685 1.19704 13.0792 3.20974 12.1041 3.46281C 8.34383 4.43827 4.52156 8.08999 3.58343 11.6045C 3.03449 13.6606 3.10721 16.7093 4.95904 19.101C 6.45147 21.0294 8.86893 22.0381 12.1446 22.0993C 12.5285 22.107 12.8819 22.1111 13.2139 22.1111C 15.6629 22.1111 16.9051 21.8878 20.7488 21.0068L 22.271 20.6557C 25.8138 19.8347 28.3731 19.2418 30.8209 19.2418C 31.0432 19.2418 31.2649 19.246 31.4867 19.2561C 36.113 19.4628 38.0208 20.9539 38.8064 22.1682C 39.4233 23.1222 39.5478 24.2403 39.1479 25.2365C 38.7414 26.25 37.6555 26.9308 36.4467 26.9308"/>
<path id="path37_fill" fill-rule="evenodd" d="M 13.4232 0L 13.3576 0L 13.2855 0.00772286C 7.77472 0.613076 1.88724 5.74046 0.429375 11.2041C -0.574917 14.9651 0.211828 19.1242 2.48266 22.0577C 4.09489 24.1399 7.16558 26.6231 12.637 26.6231C 12.767 26.6237 12.9207 26.6249 13.0876 26.6249C 16.1595 26.6249 19.1593 26.2393 22.258 25.4468C 26.0105 24.4874 28.7999 23.8928 31.1095 23.8928C 31.358 23.8928 31.6048 23.8993 31.8426 23.913C 33.0346 23.9813 33.478 24.7666 34.018 25.9565C 34.1206 26.1823 34.2171 26.395 34.3238 26.5934C 34.8364 27.5486 35.8526 28.1183 37.0422 28.1183C 38.4924 28.1183 39.8006 27.2878 40.2965 26.051C 40.7691 24.8736 40.6255 23.5577 39.9031 22.4409C 39.0413 21.1084 36.9892 19.4741 32.1084 19.2561C 31.8783 19.246 31.6477 19.2406 31.4164 19.2406C 28.9024 19.2406 26.3181 19.8394 22.7408 20.6688C 22.252 20.7822 21.7424 20.8998 21.2108 21.0216C 17.4195 21.8902 16.1977 22.1106 13.8106 22.1106C 13.4816 22.1106 13.1317 22.1064 12.7509 22.0993C 9.66469 22.041 7.4028 21.1101 6.02659 19.3321C 4.30767 17.1115 4.24211 14.2701 4.75469 12.3512C 5.64335 9.02149 9.2749 5.55868 12.8492 4.63134C 14.2493 4.26837 14.7732 1.85705 14.6838 1.15724C 14.5962 0.475847 14.0776 0 13.4232 0L 13.4232 0ZM 13.4232 1.18814C 13.723 1.18814 13.1562 3.32381 12.5488 3.48124C 8.68961 4.48224 4.62893 8.20169 3.60258 12.0453C 3.01729 14.2386 3.09835 17.4947 5.0825 20.0581C 6.72692 22.1824 9.39172 23.2244 12.7282 23.2868C 13.1174 23.2945 13.475 23.2987 13.8106 23.2987C 16.3341 23.2987 17.615 23.0646 21.4778 22.1795C 25.8722 21.1731 28.7111 20.4288 31.4164 20.4288C 31.6298 20.4288 31.8426 20.4335 32.0548 20.443C 38.6128 20.7365 39.9395 23.7419 39.1897 25.6096C 38.8488 26.4597 37.922 26.9302 37.0422 26.9302C 36.3586 26.9302 35.7036 26.6457 35.3746 26.0332C 34.8256 25.0102 34.2952 22.8626 31.9105 22.7266C 31.6477 22.7118 31.3813 22.7046 31.1095 22.7046C 28.6855 22.7046 25.8836 23.2933 21.9618 24.2961C 17.8898 25.3375 14.7809 25.4367 13.0876 25.4367C 12.9243 25.4367 12.7735 25.4356 12.637 25.435C 7.58101 25.435 4.85541 23.1769 3.42676 21.3317C 1.37764 18.6846 0.670764 14.9206 1.58148 11.5094C 2.91954 6.49494 8.4214 1.73765 13.416 1.18873C 13.4184 1.18814 13.4208 1.18814 13.4232 1.18814L 13.4232 1.18814Z"/>
<path id="path38_fill" fill-rule="evenodd" d="M 8.35491 7.68959C 7.38876 7.68959 6.56864 7.23632 6.16215 6.47829C 6.06858 6.30364 5.975 6.09868 5.87428 5.8765C 5.38554 4.79946 4.83124 3.57806 3.18921 3.48479C 2.94067 3.47054 2.68796 3.464 2.43048 3.464C 1.99002 3.464 1.51976 3.48479 1.03281 3.52519C 1.01612 3.52697 0.99884 3.52757 0.982152 3.52757C 0.685334 3.52757 0.429642 3.30776 0.391496 3.00895C 0.290769 2.22418 0.167989 1.52378 0.0154083 0.867931C -0.0227369 0.703375 0.0106401 0.531095 0.107791 0.393272C 0.204942 0.254854 0.355735 0.164556 0.523813 0.144358C 1.31652 0.0469312 2.04009 0 2.73564 0C 2.95557 0 3.17491 0.00415846 3.39424 0.0142576C 8.02114 0.221587 9.929 1.71269 10.7146 2.92756C 11.3314 3.88104 11.456 4.99907 11.0561 5.99472C 10.6496 7.00879 9.56364 7.68959 8.35491 7.68959L 8.35491 7.68959Z"/>
<path id="path39_fill" fill-rule="evenodd" d="M 3.32978 0C 2.61158 0 1.86477 0.0487134 1.04703 0.148517C 0.711471 0.189507 0.409289 0.370697 0.215583 0.646344C 0.0212803 0.922585 -0.0454739 1.26774 0.0308166 1.59566C 0.178629 2.2331 0.298429 2.91449 0.396176 3.67905C 0.473063 4.27609 0.983851 4.71629 1.57749 4.71629C 1.61086 4.71629 1.64484 4.71451 1.67881 4.71213C 2.15026 4.67233 2.60383 4.65213 3.0276 4.65213C 3.27376 4.65213 3.51693 4.65867 3.75117 4.67233C 4.94321 4.74005 5.38665 5.52541 5.92664 6.71592C 6.02915 6.94107 6.12571 7.15375 6.2324 7.35276C 6.74438 8.30742 7.76119 8.87773 8.95084 8.87773C 10.401 8.87773 11.7092 8.04663 12.2051 6.81038C 12.6777 5.63294 12.5341 4.31649 11.8111 3.19964C 10.9493 1.86715 8.89779 0.233468 4.01699 0.0154457C 3.78812 0.00475253 3.55925 0 3.32978 0L 3.32978 0ZM 3.32979 1.18814C 3.54137 1.18814 3.75236 1.19289 3.96335 1.2024C 10.5214 1.49527 11.8481 4.50125 11.0983 6.36899C 10.7574 7.21851 9.83057 7.6896 8.95084 7.6896C 8.26721 7.6896 7.61218 7.40504 7.28318 6.79256C 6.73425 5.76958 6.20379 3.62203 3.81912 3.48599C 3.55925 3.47114 3.29581 3.46401 3.0276 3.46401C 2.56032 3.46401 2.07814 3.48599 1.57868 3.52817C 1.48391 2.79034 1.36173 2.05845 1.19186 1.32775C 1.92974 1.23745 2.63423 1.18814 3.32979 1.18814L 3.32979 1.18814Z"/>
</defs>
</svg>
