<svg width="80" height="79" viewBox="0 0 80 79" version="1.1" xmlns="http://www.w3.org/2000/svg" xmlns:xlink="http://www.w3.org/1999/xlink">
<title>Group 1057</title>
<desc>Created using Figma</desc>
<g id="Canvas" transform="translate(-3670 -745)">
<g id="Group 1057">
<g id="Stroke 1380 (Stroke)">
<use xlink:href="#path0_fill" transform="translate(3670 767.043)" fill="#1AB744"/>
</g>
<g id="Stroke 1381 (Stroke)">
<use xlink:href="#path1_fill" transform="translate(3673.39 780.608)" fill="#1AB744"/>
</g>
<g id="Stroke 1382 (Stroke)">
<use xlink:href="#path2_fill" transform="translate(3697.13 768.043)" fill="#1AB744"/>
</g>
<g id="Stroke 1383 (Stroke)">
<use xlink:href="#path3_fill" transform="translate(3720.87 768.043)" fill="#1AB744"/>
</g>
<g id="Stroke 1385 (Stroke)">
<use xlink:href="#path4_fill" transform="translate(3687.33 745)" fill="#1AB744"/>
</g>
<g id="Stroke 1385 (Stroke)">
<use xlink:href="#path4_fill" transform="matrix(-1 0 0 1 3733 745)" fill="#1AB744"/>
</g>
</g>
</g>
<defs>
<path id="path0_fill" fill-rule="evenodd" d="M 0 1C 0 0.447715 0.447715 0 1 0L 79 0C 79.5523 0 80 0.447715 80 1L 80 14.5652C 80 15.1175 79.5523 15.5652 79 15.5652L 1 15.5652C 0.447715 15.5652 0 15.1175 0 14.5652L 0 1ZM 2 2L 2 13.5652L 78 13.5652L 78 2L 2 2Z"/>
<path id="path1_fill" fill-rule="evenodd" d="M 0 1C 0 0.447715 0.447715 0 1 0L 72.2174 0C 72.7697 0 73.2174 0.447715 73.2174 1L 73.2174 41.6957C 73.2174 42.2479 72.7697 42.6957 72.2174 42.6957L 1 42.6957C 0.447715 42.6957 0 42.2479 0 41.6957L 0 1ZM 2 2L 2 40.6957L 71.2174 40.6957L 71.2174 2L 2 2Z"/>
<path id="path2_fill" fill-rule="evenodd" d="M 0 54.2609L 0 0L 2 0L 2 54.2609L 0 54.2609Z"/>
<path id="path3_fill" fill-rule="evenodd" d="M 2 0L 2 54.2609L 0 54.2609L 0 0L 2 0Z"/>
<path id="path4_fill" fill-rule="evenodd" d="M 2.77696 2.77497C 6.48051 -0.924789 12.4818 -0.925309 16.1825 2.77533C 17.1619 3.75477 18.0879 5.53503 18.9161 7.48559C 19.7583 9.47069 20.5701 11.8103 21.2666 14.0147C 21.9634 16.2208 22.5581 18.3289 22.9753 19.8743C 23.1844 20.6487 23.3507 21.2882 23.4638 21.7307C 23.5206 21.9528 23.5646 22.1276 23.5941 22.2456L 23.6279 22.3815L 23.6366 22.4168L 23.6388 22.426L 23.6394 22.4284L 23.6396 22.4291C 23.6396 22.4293 23.6397 22.4294 22.6683 22.667C 22.4309 23.6384 22.4307 23.6384 22.4305 23.6384L 22.4299 23.6382L 22.4274 23.6376L 22.4182 23.6353L 22.3829 23.6266L 22.247 23.5929C 22.1291 23.5634 21.9543 23.5195 21.7323 23.4627C 21.2899 23.3497 20.6505 23.1835 19.8761 22.9745C 18.331 22.5576 16.2232 21.9632 14.0173 21.2666C 11.8131 20.5703 9.47354 19.7586 7.48826 18.9162C 5.53741 18.0879 3.75684 17.1614 2.7766 16.1812C -0.927489 12.4771 -0.923577 6.4755 2.7766 2.77533L 2.77696 2.77497ZM 22.6683 22.667L 22.4309 23.6384C 22.7703 23.7214 23.1284 23.6212 23.3755 23.3741C 23.6225 23.127 23.7227 22.7689 23.6397 22.4294L 22.6683 22.667ZM 21.2802 21.2791C 21.2096 21.0112 21.1308 20.7155 21.0444 20.3955C 20.6302 18.861 20.0472 16.7935 19.3595 14.6172C 18.6715 12.4392 17.8919 10.1895 17.0752 8.26721C 16.2443 6.31035 15.4438 4.86505 14.7683 4.18954C 11.8492 1.27047 7.11391 1.26983 4.19081 4.18954C 4.19077 4.18959 4.19072 4.18963 4.19068 4.18968C 4.1906 4.18975 4.19053 4.18983 4.19045 4.1899C 1.27116 7.10958 1.26841 11.8446 4.19081 14.767C 4.86723 15.4434 6.31306 16.2444 8.26995 17.0753C 10.1924 17.8923 12.4419 18.6717 14.6197 19.3595C 16.7958 20.047 18.8629 20.6296 20.3972 21.0436C 20.717 21.1299 21.0125 21.2086 21.2802 21.2791Z"/>
</defs>
</svg>
