<svg width="22" height="22" viewBox="0 0 22 22" version="1.1" xmlns="http://www.w3.org/2000/svg" xmlns:xlink="http://www.w3.org/1999/xlink">
<title>icn-Info</title>
<desc>Created using Figma</desc>
<g id="Canvas" transform="translate(-2248 148)">
<g id="icn-Info">
<g id="icn-help, support">
<use xlink:href="#path0_stroke" transform="translate(2249 -147)" fill="#DDE3E6"/>
</g>
<g id="?">
<use xlink:href="#path1_fill" transform="translate(2255.75 -141.92)" fill="#90A4AE"/>
</g>
</g>
</g>
<defs>
<path id="path0_stroke" d="M -0.5 10C -0.5 15.7961 4.20386 20.5 10 20.5L 10 19.5C 4.75614 19.5 0.5 15.2439 0.5 10L -0.5 10ZM 10 20.5C 15.7961 20.5 20.5 15.7961 20.5 10L 19.5 10C 19.5 15.2439 15.2439 19.5 10 19.5L 10 20.5ZM 20.5 10C 20.5 4.20386 15.7961 -0.5 10 -0.5L 10 0.5C 15.2439 0.5 19.5 4.75614 19.5 10L 20.5 10ZM 10 -0.5C 4.20386 -0.5 -0.5 4.20386 -0.5 10L 0.5 10C 0.5 4.75614 4.75614 0.5 10 0.5L 10 -0.5Z"/>
<path id="path1_fill" fill-rule="evenodd" d="M 3.405 0C 2.34 0 1.5 0.33 0.885 0.99C 0.3 1.62 0 2.46 0 3.51L 1.2 3.51C 1.2 2.775 1.365 2.205 1.68 1.785C 2.055 1.29 2.61 1.05 3.345 1.05C 3.975 1.05 4.47 1.215 4.83 1.575C 5.16 1.905 5.325 2.37 5.325 2.97C 5.325 3.39 5.175 3.78 4.89 4.155C 4.785 4.275 4.62 4.455 4.38 4.695C 3.57 5.415 3.06 5.985 2.865 6.435C 2.67 6.81 2.58 7.245 2.58 7.74L 2.58 8.085L 3.795 8.085L 3.795 7.74C 3.795 7.335 3.885 6.96 4.08 6.63C 4.23 6.36 4.455 6.09 4.77 5.82C 5.43 5.235 5.85 4.845 6 4.665C 6.36 4.17 6.555 3.585 6.555 2.91C 6.555 2.01 6.27 1.305 5.715 0.795C 5.145 0.255 4.365 0 3.405 0ZM 3.19503 9.13499C 2.92503 9.13499 2.71503 9.20999 2.55003 9.38999C 2.37003 9.55499 2.28003 9.76499 2.28003 10.02C 2.28003 10.275 2.37003 10.485 2.55003 10.665C 2.71503 10.83 2.92503 10.92 3.19503 10.92C 3.43503 10.92 3.66003 10.83 3.84003 10.665C 4.00503 10.5 4.09503 10.29 4.09503 10.02C 4.09503 9.76499 4.00503 9.55499 3.84003 9.38999C 3.66003 9.20999 3.45003 9.13499 3.19503 9.13499Z"/>
</defs>
</svg>
