<svg width="30" height="30" viewBox="0 0 30 30" version="1.1" xmlns="http://www.w3.org/2000/svg" xmlns:xlink="http://www.w3.org/1999/xlink">
<title>icn-resume</title>
<desc>Created using Figma</desc>
<g id="Canvas" transform="translate(-3652 -1832)">
<g id="icn-resume">
<g id="bg">
<use xlink:href="#path0_fill" transform="translate(3652 1832)" fill="#243238"/>
</g>
<g id="Vector">
<use xlink:href="#path1_fill" transform="translate(3659 1837)" fill="#FFFFFF"/>
</g>
</g>
</g>
<defs>
<path id="path0_fill" fill-rule="evenodd" d="M 0 3.75C 0 1.67893 1.67893 0 3.75 0L 26.25 0C 28.3211 0 30 1.67893 30 3.75L 30 26.25C 30 28.3211 28.3211 30 26.25 30L 3.75 30C 1.67893 30 0 28.3211 0 26.25L 0 3.75Z"/>
<path id="path1_fill" d="M 4 13.3333L 12 13.3333L 12 14.1667L 4 14.1667L 4 13.3333ZM 4 12.5L 12 12.5L 12 11.6667L 4 11.6667L 4 12.5ZM 16 1.66667L 16 20L 0 20L 0 1.66667L 2.4 1.66667C 3.3832 1.66667 4.144 0.763333 4.8 0L 11.2 0C 11.856 0.763333 12.6168 1.66667 13.6 1.66667L 16 1.66667ZM 7.2 2.5C 7.2 2.96 7.5584 3.33333 8 3.33333C 8.4416 3.33333 8.8 2.96 8.8 2.5C 8.8 2.04 8.4416 1.66667 8 1.66667C 7.5584 1.66667 7.2 2.04 7.2 2.5ZM 14.4 3.33333L 11.2 3.33333L 9.6 5L 6.4816 5L 4.8 3.33333L 1.6 3.33333L 1.6 18.3333L 14.4 18.3333L 14.4 3.33333ZM 4 10.8333L 12 10.8333L 12 10L 4 10L 4 10.8333ZM 4 9.16667L 12 9.16667L 12 8.33333L 4 8.33333L 4 9.16667Z"/>
</defs>
</svg>
