<?xml version="1.0" encoding="UTF-8"?>
<svg width="80px" height="60px" viewBox="0 0 80 60" version="1.1" xmlns="http://www.w3.org/2000/svg" xmlns:xlink="http://www.w3.org/1999/xlink">
    <!-- Generator: Sketch 46 (44423) - http://www.bohemiancoding.com/sketch -->
    <title>icn-Cover, picture, background, photo Copy</title>
    <desc>Created with Sketch.</desc>
    <defs></defs>
    <g id="Page-1" stroke="none" stroke-width="1" fill="none" fill-rule="evenodd">
        <g id="Styles" transform="translate(-322.000000, -8068.000000)" fill="#B0BEC5">
            <g id="Products-Loading-1" transform="translate(40.000000, 7648.000000)">
                <g id="Product-4">
                    <g id="icn-Picture" transform="translate(282.000000, 410.000000)">
                        <path d="M16.6666667,28.3333333 C16.6666667,25.5733333 18.9066667,23.3333333 21.6666667,23.3333333 C24.4266667,23.3333333 26.6666667,25.5733333 26.6666667,28.3333333 C26.6666667,31.0966667 24.4266667,33.3333333 21.6666667,33.3333333 C18.9066667,33.3333333 16.6666667,31.0966667 16.6666667,28.3333333 L16.6666667,28.3333333 Z M46.6666667,30 L38.27,43.3333333 L30,36.8 L16.6666667,56.6666667 L63.3333333,56.6666667 L46.6666667,30 L46.6666667,30 Z M73.3333333,16.6666667 L73.3333333,63.3333333 L6.66666667,63.3333333 L6.66666667,16.6666667 L73.3333333,16.6666667 L73.3333333,16.6666667 Z M80,10 L0,10 L0,70 L80,70 L80,10 L80,10 Z" id="icn-Cover,-picture,-background,-photo-Copy"></path>
                    </g>
                </g>
            </g>
        </g>
    </g>
</svg>