<svg width="20" height="20" viewBox="0 0 20 20" version="1.1" xmlns="http://www.w3.org/2000/svg" xmlns:xlink="http://www.w3.org/1999/xlink">
<title>Group 1100</title>
<desc>Created using Figma</desc>
<g id="Canvas" transform="translate(-4388 522)">
<g id="Group 1100">
<g id="Stroke 1392 (Stroke)">
<use xlink:href="#path0_fill" transform="translate(4395 -519.522)" fill="#1AB744"/>
</g>
<g id="Stroke 1393 (Stroke)">
<use xlink:href="#path1_fill" transform="translate(4388 -520.348)" fill="#1AB744"/>
</g>
<g id="Stroke 1394 (Stroke)">
<use xlink:href="#path2_fill" transform="translate(4403.15 -520.348)" fill="#1AB744"/>
</g>
<g id="Stroke 1395 (Stroke)">
<use xlink:href="#path3_fill" transform="translate(4390.07 -522)" fill="#1AB744"/>
</g>
</g>
</g>
<defs>
<path id="path0_fill" fill-rule="evenodd" d="M 2.9776 0C 3.16699 0 3.34012 0.107001 3.42482 0.276393L 4.11247 1.65171L 5.45517 1.65171C 5.66958 1.65171 5.86012 1.78841 5.92881 1.99152C 5.9975 2.19463 5.92905 2.41893 5.75866 2.54907L 4.6906 3.36481L 5.11173 4.91079C 5.16787 5.11685 5.08692 5.33582 4.91024 5.45582C 4.73356 5.57582 4.50017 5.57035 4.32931 5.4422L 2.9776 4.42842L 1.62589 5.4422C 1.44975 5.57431 1.20793 5.57565 1.03034 5.4455C 0.852749 5.31536 0.781191 5.08436 0.854109 4.87661L 1.38403 3.36683L 0.216627 2.56363C 0.036221 2.43951 -0.0424251 2.21243 0.0225646 2.00332C 0.0875542 1.7942 0.281056 1.65171 0.500037 1.65171L 1.84273 1.65171L 2.53039 0.276393C 2.61508 0.107001 2.78822 0 2.9776 0ZM 2.9776 1.61803L 2.59896 2.37532C 2.51427 2.54471 2.34113 2.65171 2.15175 2.65171L 2.10887 2.65171L 2.26586 2.75972C 2.45179 2.88765 2.52898 3.12428 2.45423 3.33723L 2.34289 3.65446L 2.6776 3.40342C 2.85538 3.27009 3.09982 3.27009 3.2776 3.40342L 3.76407 3.76827L 3.63734 3.30306C 3.58388 3.10681 3.65463 2.89774 3.81627 2.77428L 3.97676 2.65171L 3.80346 2.65171C 3.61407 2.65171 3.44094 2.54471 3.35624 2.37532L 2.9776 1.61803Z"/>
<path id="path1_fill" fill-rule="evenodd" d="M 0.00449614 0.5C 0.00449614 0.223858 0.228354 0 0.504496 0L 2.59804 0C 2.87418 0 3.09804 0.223858 3.09804 0.5C 3.09804 0.776142 2.87418 1 2.59804 1L 0.998972 1C 0.992581 1.75218 1.0133 2.96912 1.34474 4.09171C 1.55038 4.8064 1.83635 5.41088 2.32972 5.87452C 2.78335 6.31077 3.41193 6.60684 4.3216 6.60684C 4.59774 6.60684 4.8216 6.8307 4.8216 7.10684C 4.8216 7.38298 4.59774 7.60684 4.3216 7.60684C 3.16663 7.60684 2.28575 7.21962 1.63655 6.59529C 1.0271 5.99835 0.616874 5.16497 0.384394 4.37051C -0.0225165 2.94708 -0.00520994 1.41755 0.00277184 0.712136C 0.00370501 0.629664 0.00451071 0.558456 0.00449614 0.5Z"/>
<path id="path2_fill" fill-rule="evenodd" d="M 1.72439 0.5C 1.72439 0.223858 1.94824 0 2.22439 0L 4.34105 0C 4.61719 0 4.84105 0.223858 4.84105 0.5C 4.84104 0.554698 4.84168 0.620525 4.84243 0.696267C 4.84927 1.39508 4.86438 2.93793 4.44867 4.37226C 4.21307 5.1666 3.79969 5.99944 3.18805 6.596C 2.5369 7.21966 1.65494 7.60684 0.5 7.60684C 0.223858 7.60684 0 7.38298 0 7.10684C 0 6.8307 0.223858 6.60684 0.5 6.60684C 1.40969 6.60684 2.04019 6.31073 2.49635 5.87381C 2.99203 5.40979 3.28083 4.80476 3.48934 4.08996C 3.82517 2.96761 3.85047 1.75155 3.84584 1L 2.22439 1C 1.94824 1 1.72439 0.776142 1.72439 0.5Z"/>
<path id="path3_fill" fill-rule="evenodd" d="M 0 0.5C 0 0.223858 0.223858 0 0.5 0L 15.3654 0C 15.6415 0 15.8654 0.223858 15.8654 0.5C 15.8654 3.71287 15.4461 5.93972 14.7913 7.54021C 14.1272 9.14173 13.2115 10.1276 12.3495 10.7831C 11.8978 11.1233 11.4599 11.3863 11.0636 11.6244C 10.691 11.8482 10.355 12.05 10.0785 12.2733C 9.5631 12.685 9.22965 13.1676 9.22965 14.1266C 9.22965 15.4942 9.57509 16.2556 10.0755 16.6919C 10.5904 17.1408 11.3773 17.343 12.4749 17.343C 12.751 17.343 12.9749 17.5668 12.9749 17.843L 12.9749 19.4947C 12.9749 19.7708 12.751 19.9947 12.4749 19.9947L 3.39049 19.9947C 3.11435 19.9947 2.89049 19.7708 2.89049 19.4947L 2.89049 17.843C 2.89049 17.5668 3.11435 17.343 3.39049 17.343C 4.48787 17.343 5.24304 17.1408 5.73542 16.6972C 6.21868 16.2619 6.55246 15.4982 6.57793 14.1222C 6.57692 13.1665 6.24636 12.6891 5.73811 12.2832C 5.46593 12.0633 5.13515 11.8647 4.76813 11.6443C 4.37348 11.4074 3.93691 11.1452 3.48622 10.8045C 2.63113 10.1516 1.72275 9.16619 1.06433 7.5616C 0.41553 5.95865 0 3.72543 0 0.5ZM 1.00351 1C 1.04437 3.87165 1.43823 5.82003 1.99128 7.18641C 2.56622 8.62901 3.30232 9.41031 4.09172 10.0086C 4.47969 10.3059 4.88086 10.5473 5.26869 10.7806C 5.65521 11.0132 6.02846 11.2378 6.36216 11.5018C 7.08649 12.0803 7.57794 12.8365 7.57794 14.1266L 7.57794 14.1356L 7.57786 14.1356C 7.55065 15.6472 7.18141 16.7405 6.40475 17.4402C 5.74654 18.0332 4.87209 18.2728 3.89049 18.3292L 3.89049 18.9947L 11.9749 18.9947L 11.9749 18.3293C 10.9877 18.2731 10.0934 18.0342 9.4183 17.4456C 8.61632 16.7463 8.22965 15.6495 8.22965 14.1266C 8.22965 12.8339 8.72566 12.074 9.45443 11.4919C 9.7923 11.2246 10.1708 10.9968 10.5628 10.7608C 10.9524 10.5262 11.3555 10.2836 11.7455 9.98604C 12.5425 9.38443 13.2857 8.6014 13.8658 7.16157C 14.4233 5.79876 14.8204 3.85797 14.8618 1L 1.00351 1Z"/>
</defs>
</svg>
