<svg width="20" height="19" viewBox="0 0 20 19" version="1.1" xmlns="http://www.w3.org/2000/svg" xmlns:xlink="http://www.w3.org/1999/xlink">
<title>Group 505</title>
<desc>Created using Figma</desc>
<g id="Canvas" transform="translate(-4479 521)">
<g id="Group 505">
<g id="Stroke 742 (Stroke)">
<use xlink:href="#path0_fill" transform="translate(4479 -521)" fill="#90A4AE"/>
</g>
<g id="Stroke 743 (Stroke)">
<use xlink:href="#path1_fill" transform="translate(4488.5 -509.848)" fill="#90A4AE"/>
</g>
<g id="Stroke 744 (Stroke)">
<use xlink:href="#path2_fill" transform="translate(4486.43 -517.695)" fill="#90A4AE"/>
</g>
</g>
</g>
<defs>
<path id="path0_fill" fill-rule="evenodd" d="M 10 1C 4.92893 1 1 4.336 1 8.25117C 1 10.2414 1.99986 12.0663 3.66224 13.3954C 3.84654 13.5428 3.90273 13.7989 3.79704 14.0099L 2.30165 16.9949L 6.46071 15.0592C 6.57258 15.0071 6.69974 14.9982 6.81775 15.0343C 7.81898 15.3414 8.86678 15.503 10 15.5015C 15.0711 15.5015 19 12.1647 19 8.25117C 19 4.336 15.0711 1 10 1ZM 0 8.25117C 0 3.60313 4.57646 0 10 0C 15.4235 0 20 3.60313 20 8.25117C 20 12.8976 15.4235 16.5015 10 16.5015C 8.86 16.5001 7.73364 16.3368 6.71154 16.0454L 1.42307 18.5068C 1.23022 18.5966 1.0017 18.5545 0.853477 18.4019C 0.705251 18.2494 0.669773 18.0197 0.765047 17.8296L 2.72576 13.9157C 1.04972 12.4513 0 10.4621 0 8.25117Z"/>
<path id="path1_fill" fill-rule="evenodd" d="M 0.913043 1C 0.961186 1 1 0.961186 1 0.913043C 1 0.864901 0.961186 0.826087 0.913043 0.826087C 0.864901 0.826087 0.826087 0.864901 0.826087 0.913043C 0.826087 0.961186 0.864901 1 0.913043 1ZM 0 0.913043C 0 0.408901 0.408901 0 0.913043 0C 1.41719 0 1.82609 0.408901 1.82609 0.913043C 1.82609 1.41719 1.41719 1.82609 0.913043 1.82609C 0.408901 1.82609 0 1.41719 0 0.913043Z"/>
<path id="path2_fill" fill-rule="evenodd" d="M 2.97826 1C 1.88558 1 1 1.88558 1 2.97826C 1 3.2544 0.776142 3.47826 0.5 3.47826C 0.223858 3.47826 0 3.2544 0 2.97826C 0 1.33329 1.33329 0 2.97826 0C 4.62323 0 5.95652 1.33329 5.95652 2.97826C 5.95652 4.45284 4.88513 5.67697 3.47826 5.91474L 3.47826 6.69565C 3.47826 6.97179 3.2544 7.19565 2.97826 7.19565C 2.70212 7.19565 2.47826 6.97179 2.47826 6.69565L 2.47826 5.45652C 2.47826 5.18038 2.70212 4.95652 2.97826 4.95652C 4.07094 4.95652 4.95652 4.07094 4.95652 2.97826C 4.95652 1.88558 4.07094 1 2.97826 1Z"/>
</defs>
</svg>
