<svg width="20" height="20" viewBox="0 0 20 20" version="1.1" xmlns="http://www.w3.org/2000/svg" xmlns:xlink="http://www.w3.org/1999/xlink">
<title>Stroke 6137 (Stroke)</title>
<desc>Created using Figma</desc>
<g id="Canvas" transform="translate(-4570 522)">
<g id="Stroke 6137 (Stroke)">
<use xlink:href="#path0_fill" transform="translate(4570 -522)" fill="#90A4AE"/>
</g>
</g>
<defs>
<path id="path0_fill" fill-rule="evenodd" d="M 10 0C 10.2084 0 10.395 0.129286 10.4682 0.324438L 12.8248 6.6087L 19.5 6.6087C 19.7093 6.6087 19.8964 6.73898 19.969 6.93522C 20.0416 7.13146 19.9843 7.35215 19.8254 7.48832L 14.2981 12.2261L 16.67 19.3419C 16.7389 19.5484 16.6661 19.7758 16.4902 19.904C 16.3143 20.0323 16.0756 20.032 15.9 19.9032L 10 15.5766L 4.10005 19.9032C 3.92448 20.032 3.68578 20.0323 3.50984 19.904C 3.3339 19.7758 3.26118 19.5484 3.33003 19.3419L 5.70198 12.2261L 0.174628 7.48832C 0.0157628 7.35215 -0.041513 7.13146 0.0310814 6.93522C 0.103676 6.73898 0.290786 6.6087 0.500024 6.6087L 7.17526 6.6087L 9.53186 0.324438C 9.60504 0.129286 9.7916 0 10 0ZM 10 1.924L 7.98993 7.28426C 7.91675 7.47941 7.73019 7.6087 7.52176 7.6087L 1.85165 7.6087L 6.60803 11.6856C 6.76238 11.8179 6.82126 12.0305 6.75697 12.2233L 4.77548 18.1678L 9.70434 14.5533C 9.88034 14.4243 10.1197 14.4243 10.2957 14.5533L 15.2246 18.1678L 13.2431 12.2233C 13.1788 12.0305 13.2377 11.8179 13.392 11.6856L 18.1484 7.6087L 12.4783 7.6087C 12.2699 7.6087 12.0833 7.47941 12.0101 7.28426L 10 1.924Z"/>
</defs>
</svg>
