<svg width="150" height="150" viewBox="0 0 150 150" version="1.1" xmlns="http://www.w3.org/2000/svg" xmlns:xlink="http://www.w3.org/1999/xlink">
<title>Illustration</title>
<desc>Created using Figma</desc>
<g id="Canvas" transform="translate(-2778 -2855)">
<g id="Illustration">
<g id="Group 3">
<mask id="mask0_outline" mask-type="alpha">
<g id="Clip 2">
<use xlink:href="#path0_fill" transform="matrix(-1 0 0 1 2928 2855)" fill="#FFFFFF"/>
</g>
</mask>
<g id="Fill 1" mask="url(#mask0_outline)">
<use xlink:href="#path1_fill" transform="matrix(-1 0 0 1 2928 2855)" fill="#BBDAF3"/>
</g>
</g>
<g id="Group 6">
<mask id="mask1_outline" mask-type="alpha">
<g id="Clip 5">
<use xlink:href="#path0_fill" transform="matrix(-1 0 0 1 2928 2855)" fill="#FFFFFF"/>
</g>
</mask>
<g id="Fill 4" mask="url(#mask1_outline)">
<use xlink:href="#path2_fill" transform="matrix(-1 0 0 1 2920.8 2988.8)" fill="#E0EFF9"/>
</g>
</g>
<g id="Fill 7">
<use xlink:href="#path3_fill" transform="matrix(-1 0 0 1 2898.91 2948.41)" fill="#3875BA"/>
</g>
<g id="Fill 9">
<use xlink:href="#path4_fill" transform="matrix(-1 0 0 1 2904.84 2990.39)" fill="#3875BA"/>
</g>
<g id="Fill 11">
<use xlink:href="#path5_fill" transform="matrix(-1 0 0 1 2906.86 2988.36)" fill="#3875BA"/>
</g>
<g id="Fill 13">
<use xlink:href="#path6_fill" transform="matrix(-1 0 0 1 2898.73 2989.46)" fill="#3875BA"/>
</g>
<g id="Fill 15">
<use xlink:href="#path7_fill" transform="matrix(-1 0 0 1 2914.34 2992.74)" fill="#3875BA"/>
</g>
<g id="Fill 17">
<use xlink:href="#path8_fill" transform="matrix(-1 0 0 1 2914.62 2988.47)" fill="#3875BA"/>
</g>
<g id="Fill 19">
<use xlink:href="#path9_fill" transform="matrix(-1 0 0 1 2831.26 2910.24)" fill="#3875BA"/>
</g>
<g id="Fill 21">
<use xlink:href="#path10_fill" transform="matrix(-1 0 0 1 2795.07 2909.04)" fill="#3875BA"/>
</g>
<g id="Fill 23">
<use xlink:href="#path11_fill" transform="matrix(-1 0 0 1 2797.09 2907)" fill="#3875BA"/>
</g>
<g id="Fill 25">
<use xlink:href="#path12_fill" transform="matrix(-1 0 0 1 2797.4 2899.98)" fill="#3875BA"/>
</g>
<g id="Fill 27">
<use xlink:href="#path13_fill" transform="matrix(-1 0 0 1 2794.09 2904.59)" fill="#3875BA"/>
</g>
<g id="Fill 29">
<use xlink:href="#path14_fill" transform="matrix(-1 0 0 1 2793.1 2908.84)" fill="#3875BA"/>
</g>
<g id="Group 33">
<mask id="mask2_outline" mask-type="alpha">
<g id="Clip 32">
<use xlink:href="#path0_fill" transform="matrix(-1 0 0 1 2928 2855)" fill="#FFFFFF"/>
</g>
</mask>
<g id="Fill 31" mask="url(#mask2_outline)">
<use xlink:href="#path15_fill" transform="matrix(-1 0 0 1 2794.55 2913.18)" fill="#3875BA"/>
</g>
</g>
<g id="Fill 34">
<use xlink:href="#path16_fill" transform="matrix(-1 0 0 1 2905.98 2873.66)" fill="#CCD6D9"/>
</g>
<g id="Fill 36">
<use xlink:href="#path17_fill" transform="matrix(-1 0 0 1 2906.82 2872.82)" fill="#3875BA"/>
</g>
<g id="Fill 38">
<use xlink:href="#path18_fill" transform="matrix(-1 0 0 1 2844.97 2886.46)" fill="#E0EFF9"/>
</g>
<g id="Fill 40">
<use xlink:href="#path19_fill" transform="matrix(-1 0 0 1 2840.99 2891.52)" fill="#E0EFF9"/>
</g>
<g id="Fill 42">
<use xlink:href="#path20_fill" transform="matrix(-1 0 0 1 2855.58 2948.06)" fill="#FFFFFF"/>
</g>
<g id="Fill 44">
<use xlink:href="#path21_fill" transform="matrix(-1 0 0 1 2856.42 2947.21)" fill="#3875BA"/>
</g>
<g id="Fill 46">
<use xlink:href="#path22_fill" transform="matrix(-1 0 0 1 2854.74 2954.18)" fill="#E0EFF9"/>
</g>
<g id="Fill 48">
<use xlink:href="#path23_fill" transform="matrix(-1 0 0 1 2855.84 2947.23)" fill="#CCD6D9"/>
</g>
<g id="Fill 50">
<use xlink:href="#path24_fill" transform="matrix(-1 0 0 1 2856.69 2946.38)" fill="#3875BA"/>
</g>
<g id="Fill 52">
<use xlink:href="#path25_fill" transform="matrix(-1 0 0 1 2853.13 2944.08)" fill="#FFFFFF"/>
</g>
<g id="Fill 54">
<use xlink:href="#path26_fill" transform="matrix(-1 0 0 1 2855.49 2941.7)" fill="#3875BA"/>
</g>
<g id="Fill 56">
<use xlink:href="#path27_fill" transform="matrix(-1 0 0 1 2909.52 2877)" fill="#FFFFFF"/>
</g>
<g id="Fill 58">
<use xlink:href="#path28_fill" transform="matrix(-1 0 0 1 2910.39 2876.16)" fill="#3875BA"/>
</g>
<g id="Fill 60">
<use xlink:href="#path29_fill" transform="matrix(-1 0 0 1 2905.73 2880.82)" fill="#FFFFFF"/>
</g>
<g id="Fill 62">
<use xlink:href="#path30_fill" transform="matrix(-1 0 0 1 2906.57 2879.98)" fill="#3875BA"/>
</g>
<g id="Fill 64">
<use xlink:href="#path31_fill" transform="matrix(-1 0 0 1 2901.31 2897.66)" fill="#E0EFF9"/>
</g>
<g id="Fill 66">
<use xlink:href="#path32_fill" transform="matrix(-1 0 0 1 2904.9 2881.67)" fill="#E0EFF9"/>
</g>
<g id="Fill 68">
<use xlink:href="#path33_fill" transform="matrix(-1 0 0 1 2851.15 2857.64)" fill="#3875BA"/>
</g>
<g id="Fill 70">
<use xlink:href="#path34_fill" transform="matrix(-1 0 0 1 2847.09 2856.5)" fill="#3875BA"/>
</g>
<g id="Fill 72">
<use xlink:href="#path35_fill" transform="matrix(-1 0 0 1 2843.51 2863.56)" fill="#3875BA"/>
</g>
<g id="Fill 74">
<use xlink:href="#path36_fill" transform="matrix(-1 0 0 1 2900.19 2918.4)" fill="#F8CABB"/>
</g>
<g id="Fill 76">
<use xlink:href="#path36_fill" transform="matrix(-1 0 0 1 2854.43 2918.4)" fill="#F8CABB"/>
</g>
<g id="Fill 78">
<use xlink:href="#path37_fill" transform="matrix(-1 0 0 1 2893.09 2911.52)" fill="#3875BA"/>
</g>
<g id="Fill 80">
<use xlink:href="#path38_fill" transform="matrix(-1 0 0 1 2890.58 2914.29)" fill="#3875BA"/>
</g>
<g id="Fill 82">
<use xlink:href="#path39_fill" transform="matrix(-1 0 0 1 2894.28 2914.77)" fill="#3875BA"/>
</g>
<g id="Fill 84">
<use xlink:href="#path40_fill" transform="matrix(-1 0 0 1 2896.21 2912.69)" fill="#3875BA"/>
</g>
<g id="Fill 86">
<use xlink:href="#path41_fill" transform="matrix(-1 0 0 1 2851.77 2911.52)" fill="#3875BA"/>
</g>
<g id="Fill 88">
<use xlink:href="#path42_fill" transform="matrix(-1 0 0 1 2854.97 2914.29)" fill="#3875BA"/>
</g>
<g id="Fill 90">
<use xlink:href="#path43_fill" transform="matrix(-1 0 0 1 2850.33 2914.77)" fill="#3875BA"/>
</g>
<g id="Fill 92">
<use xlink:href="#path44_fill" transform="matrix(-1 0 0 1 2847.93 2912.69)" fill="#3875BA"/>
</g>
<g id="Fill 94">
<use xlink:href="#path45_fill" transform="matrix(-1 0 0 1 2889.43 2927.17)" fill="#3875BA"/>
</g>
<g id="Fill 96">
<use xlink:href="#path46_fill" transform="matrix(-1 0 0 1 2889.88 2930.2)" fill="#3875BA"/>
</g>
<g id="Fill 98">
<use xlink:href="#path47_fill" transform="matrix(-1 0 0 1 2856.99 2926.25)" fill="#3875BA"/>
</g>
<g id="Fill 100">
<use xlink:href="#path48_fill" transform="matrix(-1 0 0 1 2886.12 2932.34)" fill="#EBEDEF"/>
</g>
<g id="Fill 102">
<use xlink:href="#path49_fill" transform="matrix(-1 0 0 1 2881.83 2901.63)" fill="#E0EFF9"/>
</g>
<g id="Fill 104">
<use xlink:href="#path50_fill" transform="matrix(-1 0 0 1 2882.51 2900.15)" fill="#FFFFFF"/>
</g>
<g id="Fill 106">
<use xlink:href="#path51_fill" transform="matrix(-1 0 0 1 2883.35 2899.3)" fill="#3875BA"/>
</g>
<g id="Fill 108">
<use xlink:href="#path52_fill" transform="matrix(-1 0 0 1 2875.52 2907.19)" fill="#3875BA"/>
</g>
<g id="Fill 110">
<use xlink:href="#path53_fill" transform="matrix(-1 0 0 1 2881 2904.12)" fill="#EBEDEF"/>
</g>
</g>
</g>
<defs>
<path id="path0_fill" fill-rule="evenodd" d="M 0 0L 150 0L 150 150L 0 150"/>
<path id="path1_fill" fill-rule="evenodd" d="M 118.668 57.0421C 118.668 49.0174 116.368 41.5345 112.398 35.2221C 113.407 33.3342 113.981 31.1753 113.981 28.8809C 113.981 21.481 108.024 15.4819 100.676 15.4819C 97.3861 15.4819 94.377 16.6874 92.0547 18.6801C 87.7085 17.078 83.014 16.2037 78.1171 16.2037C 77.1487 16.2037 76.1889 16.2403 75.2373 16.3074C 72.7891 6.92292 64.3099 0 54.2229 0C 44.6588 0 36.5438 6.22625 33.6408 14.8713C 27.5698 15.9155 22.8241 20.8613 22.0357 27.0571C 21.0272 26.6509 19.9274 26.4251 18.7748 26.4251C 13.9221 26.4251 9.98829 30.3868 9.98829 35.274C 9.98829 37.126 10.5541 38.8444 11.5199 40.2652C 4.5158 45.6856 0 54.2056 0 63.7891C 0 71.7297 3.09963 78.9408 8.14628 84.2633C 7.88439 85.5003 7.74402 86.7825 7.74402 88.0978C 7.74402 98.2101 15.8836 106.407 25.9247 106.407C 29.2553 106.407 32.3747 105.503 35.0583 103.928C 37.2753 107.141 40.9644 109.246 45.1435 109.246C 46.6254 109.246 48.0459 108.981 49.3611 108.497C 51.9275 115.829 58.864 121.086 67.0224 121.086C 77.3644 121.086 85.7484 112.642 85.7484 102.227C 85.7484 101.579 85.7154 100.938 85.6521 100.306C 88.8497 103.982 93.5422 106.305 98.776 106.305C 108.414 106.305 116.228 98.4359 116.228 88.7294C 116.228 84.7992 114.946 81.1708 112.782 78.2435C 116.516 72.0633 118.668 64.8058 118.668 57.0421Z"/>
<path id="path2_fill" fill-rule="evenodd" d="M 111.926 8.09962C 111.926 3.62639 86.8707 0 55.9633 0C 25.0555 0 0 3.62639 0 8.09962C 0 12.5729 25.0555 16.1992 55.9633 16.1992C 86.8707 16.1992 111.926 12.5729 111.926 8.09962Z"/>
<path id="path3_fill" fill-rule="evenodd" d="M 2.01793 46.2356C 1.6527 46.2356 1.28275 46.1359 0.950165 45.9264C 0.00391696 45.3315 -0.283896 44.0768 0.306878 43.1238C 5.22225 35.1961 10.5251 25.9509 10.8913 24.2037C 11.4831 21.3784 12.0941 7.19048 12.2796 1.96193C 12.3196 0.839129 13.2608 -0.0450089 14.3703 0.00177446C 15.4849 0.0417776 16.3564 0.984564 16.3167 2.10703C 16.247 4.06718 15.6148 21.3621 14.8436 25.0431C 14.1465 28.3718 5.4663 42.4834 3.73303 45.2786C 3.35029 45.8963 2.69152 46.2356 2.01793 46.2356Z"/>
<path id="path4_fill" fill-rule="evenodd" d="M 0 2.1917C 0 0.981095 1.94871 0 4.35254 0C 6.75637 0 8.70508 0.981095 8.70508 2.1917C 8.70508 3.4023 6.75637 4.3834 4.35254 4.3834C 1.94871 4.3834 0 3.4023 0 2.1917Z"/>
<path id="path5_fill" fill-rule="evenodd" d="M 4.96826 4.22575C 5.34494 4.31729 5.81554 4.38373 6.37232 4.38373C 6.92909 4.38373 7.39969 4.31729 7.77637 4.22575C 7.39969 4.13456 6.92909 4.06812 6.37232 4.06812C 5.81554 4.06812 5.34494 4.13456 4.96826 4.22575ZM 6.37228 8.45185C 2.67986 8.45185 0 6.67477 0 4.22576C 0 1.77709 2.67986 0 6.37228 0C 10.0647 0 12.7446 1.77709 12.7446 4.22576C 12.7446 6.67477 10.0647 8.45185 6.37228 8.45185Z"/>
<path id="path6_fill" fill-rule="evenodd" d="M 8.3445 8.74431C 8.27515 8.74431 8.20547 8.74092 8.13545 8.7338C 2.51351 8.15138 0.913539 5.32336 0.0901586 2.63399C -0.238386 1.56069 0.35912 0.421953 1.42521 0.0910793C 2.49129 -0.240472 3.62201 0.361609 3.95022 1.43525C 4.4804 3.16658 5.08699 4.32836 8.54849 4.6867C 9.65834 4.80162 10.4652 5.80068 10.3511 6.9184C 10.2444 7.96492 9.36716 8.74431 8.3445 8.74431Z"/>
<path id="path7_fill" fill-rule="evenodd" d="M 2.02126 6.19913C 1.23491 6.19913 0.487606 5.73401 0.161081 4.95904C -0.274846 3.92506 0.204505 2.73106 1.23121 2.29205C 6.53269 0.0261036 13.5533 0 13.8495 0C 14.9648 0 15.8693 0.910581 15.8693 2.03406C 15.8693 3.15686 14.9654 4.06744 13.8505 4.06812C 13.7862 4.06812 7.34496 4.09829 2.8093 6.03675C 2.55178 6.14693 2.28416 6.19913 2.02126 6.19913Z"/>
<path id="path8_fill" fill-rule="evenodd" d="M 2.02114 6.69358C 1.22772 6.69358 0.475032 6.21964 0.153221 5.43483C -0.272271 4.39645 0.218862 3.2072 1.2496 2.77869C 5.87077 0.857861 12.2037 0.0493227 12.4706 0.0160998C 13.5771 -0.12425 14.5859 0.668694 14.724 1.78302C 14.862 2.89768 14.0763 3.9137 12.9695 4.05303C 12.9096 4.06049 6.90319 4.8297 2.791 6.53899C 2.53887 6.64408 2.27799 6.69358 2.02114 6.69358Z"/>
<path id="path9_fill" fill-rule="evenodd" d="M 22.1886 22.1398C 12.7567 22.1398 1.33441 13.3486 0.785045 12.9215C -0.0975808 12.2346 -0.260507 10.9572 0.421492 10.0684C 1.10282 9.17947 2.37121 9.01539 3.25384 9.70155C 7.06812 12.6638 18.3824 19.8712 24.8418 17.6761C 25.947 17.3005 26.9067 14.8637 27.8344 12.5072C 29.7222 7.71326 32.3078 1.14765 40.067 0.0214612C 41.1697 -0.140586 42.1954 0.632696 42.3543 1.74431C 42.5135 2.85626 41.7477 3.88753 40.6436 4.04788C 35.2001 4.83811 33.3645 9.49916 31.5894 14.007C 30.2638 17.3727 29.0123 20.5519 26.1338 21.5303C 24.8873 21.954 23.5583 22.1398 22.1886 22.1398Z"/>
<path id="path10_fill" fill-rule="evenodd" d="M 4.50662 6.78417C 2.69222 7.371 0.74923 6.36583 0.166198 4.53857C -0.416496 2.71131 0.581928 0.754542 2.39599 0.167377C 4.21039 -0.419449 6.15372 0.586054 6.73641 2.41298C 7.31911 4.24024 6.32102 6.19735 4.50662 6.78417Z"/>
<path id="path11_fill" fill-rule="evenodd" d="M 5.4698 4.0708C 5.32472 4.0708 5.17795 4.09284 5.03286 4.13996C 4.28219 4.38269 3.86714 5.19597 4.1085 5.95264C 4.2253 6.31878 4.47676 6.61744 4.81709 6.79305C 5.15674 6.96934 5.54419 7.00086 5.90842 6.88323C 6.65909 6.6405 7.07415 5.82721 6.83279 5.07054C 6.63822 4.46032 6.07471 4.0708 5.4698 4.0708ZM 5.47463 11.0212C 3.16136 11.0212 1.00697 9.53057 0.262357 7.19649C -0.659654 4.30406 0.926515 1.19568 3.79757 0.266449C 5.1885 -0.183078 6.67065 -0.0610343 7.97036 0.611561C 9.27006 1.28382 10.2318 2.4256 10.6792 3.82673C 11.6012 6.71916 10.015 9.82755 7.14395 10.7568C 6.58986 10.9358 6.02737 11.0212 5.47463 11.0212Z"/>
<path id="path12_fill" fill-rule="evenodd" d="M 2.0093 13.6046C 1.20949 13.6046 0.468916 13.1245 0.148787 12.3607C 0.0336623 12.0861 -0.00504935 11.72 0.00639584 11.3122C 0.00370286 11.3379 0.00168312 11.364 0 11.3901C 0.00134649 11.3491 0.00403948 11.3081 0.00807896 11.2674C 0.0663148 9.6795 0.860072 7.48305 0.870171 7.45559C 1.93558 4.57367 3.79677 2.12534 6.2521 0.374694C 7.16267 -0.275188 8.42299 -0.0582219 9.06762 0.859139C 9.71225 1.77582 9.49681 3.04575 8.58625 3.69462C 4.73057 6.44399 4.12262 10.6097 4.03948 11.4301C 4.03948 11.4535 4.03914 11.4776 4.03813 11.5013C 3.98023 13.2225 2.54083 13.5401 2.37723 13.5703C 2.25403 13.5934 2.13083 13.6046 2.0093 13.6046Z"/>
<path id="path13_fill" fill-rule="evenodd" d="M 2.0178 7.54598C 1.07289 7.54598 0.229317 6.87508 0.0387881 5.90619C -0.177661 4.80441 0.533624 3.73483 1.62731 3.51617C 1.68387 3.50499 7.30379 2.36456 10.8282 0.280324C 11.7896 -0.288534 13.0277 0.0358984 13.5926 1.00445C 14.1574 1.97334 13.8353 3.21954 12.8736 3.7884C 8.75329 6.2252 2.66916 7.45581 2.41198 7.507C 2.27969 7.53344 2.14773 7.54598 2.0178 7.54598Z"/>
<path id="path14_fill" fill-rule="evenodd" d="M 2.01737 6.4026C 0.979564 6.4026 0.0976112 5.60219 0.00739613 4.54177C -0.087195 3.42236 0.736522 2.43788 1.84772 2.3416C 1.90898 2.33651 7.98402 1.79715 11.5721 0.178714C 12.5907 -0.281661 13.785 0.178375 14.2412 1.2032C 14.697 2.22837 14.2412 3.43185 13.2236 3.89121C 9.00534 5.79373 2.4671 6.37141 2.19107 6.39548C 2.13284 6.40022 2.07494 6.4026 2.01737 6.4026Z"/>
<path id="path15_fill" fill-rule="evenodd" d="M 7.73735 5.43497C 4.32298 5.43497 1.6576 4.69695 1.47245 4.6444C 0.398625 4.33963 -0.226148 3.21582 0.0761397 2.13471C 0.378764 1.05497 1.49063 0.425425 2.5648 0.727483C 2.62741 0.745111 8.90913 2.46152 13.6629 0.195576C 14.6711 -0.284123 15.8752 0.148793 16.3525 1.16413C 16.8295 2.17946 16.3987 3.39244 15.3905 3.87316C 12.8671 5.07528 10.12 5.43497 7.73735 5.43497Z"/>
<path id="path16_fill" fill-rule="evenodd" d="M 37.235 78.3282C 25.9912 78.3282 16.7572 71.1344 8.17604 55.6898C 2.55006 45.5643 -2.20407 34.7766 1.07497 24.4955C 3.62018 16.5159 10.6792 9.88349 22.6556 4.21932C 28.4916 1.45876 34.8757 0 41.1173 0C 54.9771 0 67.1514 7.01852 73.6833 18.7754C 78.4849 27.4174 79.5597 37.4311 76.7102 46.9718C 73.9606 56.1763 67.7836 64.4193 59.3172 70.1815C 51.3746 75.5873 43.945 78.3282 37.235 78.3282Z"/>
<path id="path17_fill" fill-rule="evenodd" d="M 41.9559 0L 41.9559 1.69505L 41.9549 0C 35.588 0.00033901 29.0804 1.48724 23.1339 4.29966C 10.9343 10.0693 3.73027 16.8678 1.10966 25.084C -0.429044 29.9085 -0.368115 35.1509 1.29615 41.11C 2.56859 45.666 4.72163 50.5515 8.27738 56.9513C 12.2021 64.0149 16.1968 69.2699 20.4891 73.0159C 25.8171 77.6658 31.7326 80.0233 38.0709 80.0233C 44.9518 80.0233 52.54 77.2336 60.6243 71.7311C 69.251 65.8598 75.5465 57.4544 78.3519 48.0635C 79.7755 43.2977 80.2599 38.4434 79.792 33.6355C 79.3019 28.6006 77.7749 23.7466 75.254 19.209C 71.8736 13.1251 66.9427 8.15556 60.9946 4.83767C 55.3212 1.67267 48.7378 0 41.9559 0ZM 41.9534 1.69507C 54.8464 1.69439 67.0494 7.91387 73.7849 20.0369C 83.6799 37.8461 76.4715 58.8996 59.682 70.3266C 51.39 75.9701 44.258 78.3282 38.0708 78.3282C 25.2111 78.3282 16.427 68.1478 9.74634 56.1234C -0.148704 38.3142 -6.12713 20.0114 23.8492 5.8337C 29.7054 3.06399 35.9063 1.69541 41.9534 1.69507Z"/>
<path id="path18_fill" fill-rule="evenodd" d="M 7.43567 0L 0 4.32746L 1.45724 8.8885L 10.0209 3.30162C 10.0209 3.30162 8.85353 1.57572 7.43567 0Z"/>
<path id="path19_fill" fill-rule="evenodd" d="M 7.18152 0L 0 4.52476L 0.665504 6.60798L 8.13046 1.64623C 8.13046 1.64623 7.62115 0.708531 7.18152 0Z"/>
<path id="path20_fill" fill-rule="evenodd" d="M 28.6379 51.1674C 25.7315 51.1674 23.0503 49.5907 21.6402 47.0525L 0.107092 8.29693C -0.00197395 8.10098 -0.0289038 7.8691 0.0316884 7.65281C 0.0922806 7.43652 0.235682 7.25312 0.430587 7.14362L 12.9156 0.108144C 13.0455 0.034918 13.1869 0 13.326 0C 13.6208 0 13.9066 0.156284 14.0608 0.433933L 35.5939 39.1895C 37.7466 43.0641 36.3681 47.9797 32.5209 50.1474C 31.337 50.8145 29.9939 51.1674 28.6379 51.1674Z"/>
<path id="path21_fill" fill-rule="evenodd" d="M 14.1665 0C 13.8881 0 13.6063 0.069497 13.3461 0.215949L 0.861093 7.25142C 0.47162 7.4711 0.184817 7.83757 0.0632964 8.27015C -0.057888 8.70272 -0.00369162 9.16615 0.214104 9.55838L 21.7472 48.3143C 23.3061 51.1196 26.2687 52.8625 29.4795 52.8625C 30.9791 52.8625 32.464 52.4726 33.7734 51.7346C 35.8261 50.5779 37.311 48.6781 37.9539 46.385C 38.5969 44.0923 38.3185 41.6908 37.1696 39.6235L 15.6368 0.867526C 15.3285 0.312567 14.7562 0 14.1665 0ZM 14.1681 1.69556L 35.7009 40.4512C 37.622 43.9091 36.3849 48.3209 32.9514 50.2557C 31.854 50.874 30.659 51.1676 29.4794 51.1676C 26.9682 51.1676 24.523 49.839 23.2159 47.4866L 1.68311 8.73103L 14.1681 1.69556Z"/>
<path id="path22_fill" fill-rule="evenodd" d="M 24.6664 38.7556L 3.13329 0L 0 1.76556L 21.5328 40.5215C 23.4539 43.9791 27.835 45.2253 31.2683 43.2902C 31.8099 42.9851 32.2899 42.6125 32.7184 42.1976C 29.6464 43.0024 26.2846 41.6677 24.6664 38.7556Z"/>
<path id="path23_fill" fill-rule="evenodd" d="M 2.34403 9.82315C 1.03052 9.82315 0.458263 9.28989 0.210172 8.84239C -0.139917 8.21319 -0.225082 7.10192 1.35671 5.38415C 2.38038 4.27254 3.90394 3.11991 5.6463 2.1378C 8.02151 0.799385 10.4082 0 12.0297 0C 13.3435 0 13.9155 0.532924 14.1639 0.980078C 15.2222 2.88531 12.0879 5.79131 8.72809 7.68501C 6.3522 9.0241 3.96554 9.82315 2.34403 9.82315Z"/>
<path id="path24_fill" fill-rule="evenodd" d="M 12.8775 0C 11.118 0 8.57783 0.839727 6.0821 2.24594C 2.525 4.25051 -1.11793 7.51144 0.322813 10.1045C 0.681317 10.7493 1.46969 11.5182 3.19118 11.5182C 4.95037 11.5182 7.49053 10.6788 9.98626 9.27226C 11.803 8.24845 13.3993 7.03751 14.4815 5.8625C 16.4073 3.77148 16.2316 2.28899 15.7455 1.41367C 15.387 0.768874 14.5987 0 12.8775 0ZM 12.8774 1.69507C 13.5745 1.69507 14.071 1.87101 14.2767 2.24155C 14.9008 3.36469 12.6121 5.85031 9.1644 7.79318C 6.85348 9.09531 4.6082 9.82317 3.19135 9.82317C 2.49421 9.82317 1.99769 9.64722 1.79201 9.27702C 1.16791 8.15355 3.45661 5.66792 6.90431 3.72506C 9.21523 2.42292 11.4602 1.69507 12.8774 1.69507Z"/>
<path id="path25_fill" fill-rule="evenodd" d="M 3.82236 6.87987L 0 0L 3.82236 6.87987Z"/>
<path id="path26_fill" fill-rule="evenodd" d="M 6.18146 11.6264C 5.35606 11.6264 4.55456 11.1887 4.12301 10.4117L 0.300317 3.53187C -0.334891 2.38805 0.0704037 0.942169 1.20617 0.302458C 2.34194 -0.337254 3.77764 0.070914 4.41318 1.21439L 8.23587 8.09426C 8.87108 9.23808 8.46579 10.684 7.33002 11.3237C 6.96579 11.5291 6.57094 11.6264 6.18146 11.6264Z"/>
<path id="path27_fill" fill-rule="evenodd" d="M 37.5591 75.6104C 23.9663 75.6104 11.4032 68.1969 4.77237 56.2624C -5.3334 38.0735 1.13852 14.9964 19.1987 4.81936C 24.7937 1.66657 31.1195 0 37.4928 0C 51.0857 0 63.6488 7.41347 70.2796 19.348C 75.1751 28.1588 76.3708 38.3624 73.6458 48.0787C 70.9209 57.7947 64.6021 65.8608 55.8533 70.791C 50.2582 73.9438 43.9324 75.6104 37.5591 75.6104Z"/>
<path id="path28_fill" fill-rule="evenodd" d="M 38.3588 0L 38.3581 0C 31.8414 0 25.3736 1.70386 19.6533 4.92717C 10.7086 9.96791 4.24775 18.215 1.46185 28.149C -1.32404 38.0834 -0.101763 48.5157 4.90349 57.5239C 11.6827 69.7259 24.5276 77.3058 38.4251 77.3058C 44.9415 77.3058 51.4097 75.6019 57.1299 72.3786C 66.075 67.3379 72.5355 59.0908 75.3214 49.1568C 78.1073 39.2224 76.885 28.7904 71.8797 19.7819C 65.1005 7.57992 52.2559 0 38.3588 0ZM 38.3581 1.69507C 51.2127 1.69473 63.688 8.50917 70.411 20.6094C 80.3061 38.4187 73.9917 60.9343 56.3079 70.8995C 50.6395 74.0937 44.4897 75.6107 38.4251 75.6107C 25.5708 75.6107 13.0952 68.7966 6.37216 56.6964C -3.52288 38.8872 2.7915 16.3715 20.4753 6.40663C 26.1441 3.21214 32.2935 1.69507 38.3581 1.69507Z"/>
<path id="path29_fill" fill-rule="evenodd" d="M 4.29023 50.5799C -4.79456 34.2285 1.0233 13.4821 17.26 4.33255C 22.2898 1.49842 27.9767 0 33.7061 0C 45.9262 0 57.2209 6.66493 63.1818 17.3943C 67.5828 25.3152 68.6573 34.4882 66.2077 43.2231C 63.7581 51.958 58.0776 59.2094 50.212 63.6416C 45.1822 66.4758 39.4956 67.9742 33.766 67.9742C 21.5459 67.9742 10.2515 61.3093 4.29023 50.5799Z"/>
<path id="path30_fill" fill-rule="evenodd" d="M 34.548 0L 34.5474 0C 28.6743 0 22.8453 1.53571 17.6903 4.44035C 1.04898 13.818 -4.9143 35.0821 4.39737 51.8414C 10.5071 62.8378 22.0829 69.6692 34.6076 69.6692C 40.4804 69.6692 46.3093 68.1335 51.4647 65.2285C 59.5262 60.6858 65.3484 53.2537 67.8589 44.3008C 70.3698 35.3479 69.2684 25.9461 64.7576 17.8279C 58.6479 6.83105 47.0721 0 34.548 0ZM 34.5475 1.69482C 46.0738 1.69449 57.2605 7.8048 63.2887 18.6551C 72.1614 34.6245 66.4998 54.8136 50.6428 63.7492C 45.5598 66.6135 40.0456 67.974 34.6078 67.974C 23.0811 67.974 11.8948 61.8636 5.8662 51.0136C -3.00618 35.0442 2.65548 14.8548 18.5125 5.91956C 23.5955 3.05527 29.1094 1.69482 34.5475 1.69482Z"/>
<path id="path31_fill" fill-rule="evenodd" d="M 57.4646 0C 61.0931 7.17141 62.1541 15.684 59.8105 24.0402C 54.8719 41.6508 36.6929 51.8946 19.2067 46.921C 10.8494 44.5442 4.1647 39.12 0 32.1832C 4.01827 40.1249 11.1853 46.4213 20.3741 49.0347C 37.8604 54.0083 56.0394 43.7645 60.978 26.1539C 63.5562 16.9603 62.0141 7.57755 57.4646 0Z"/>
<path id="path32_fill" fill-rule="evenodd" d="M 5.93953 29.4383C 10.8781 11.8281 29.0571 1.58393 46.5434 6.55755C 51.5853 7.99156 56.017 10.5358 59.6558 13.8503C 55.4629 7.94647 49.3262 3.38204 41.8505 1.25577C 24.3643 -3.71784 6.18527 6.52636 1.24667 24.1366C -2.26802 36.6694 1.87245 49.5538 10.8539 57.7355C 5.23935 49.8294 3.11223 39.5202 5.93953 29.4383Z"/>
<path id="path33_fill" fill-rule="evenodd" d="M 0.842641 5.73475C 0.79484 5.73475 0.746366 5.73069 0.697892 5.72221C 0.239748 5.64254 -0.0669155 5.20386 0.0125276 4.74247L 0.707991 0.70283C 0.787434 0.241777 1.22504 -0.0674002 1.68083 0.0126061C 2.13898 0.0922734 2.44564 0.530952 2.3662 0.992345L 1.67073 5.03199C 1.60004 5.44422 1.24423 5.73475 0.842641 5.73475Z"/>
<path id="path34_fill" fill-rule="evenodd" d="M 0.841075 8.19905C 0.706425 8.19905 0.56942 8.16651 0.442513 8.09769C 0.0335156 7.87564 -0.119648 7.3617 0.10084 6.94946L 3.57984 0.445896C 3.80033 0.0333215 4.31099 -0.12025 4.71965 0.101462C 5.12898 0.323853 5.28215 0.837453 5.06166 1.24969L 1.58266 7.75359C 1.4305 8.03768 1.14067 8.19905 0.841075 8.19905Z"/>
<path id="path35_fill" fill-rule="evenodd" d="M 0.84174 4.13356C 0.620242 4.13356 0.399753 4.0461 0.234135 3.87252C -0.0873404 3.53487 -0.0765685 2.99822 0.259045 2.67446L 2.78338 0.235964C 3.119 -0.0881292 3.65187 -0.0769418 3.97301 0.260712C 4.29482 0.598366 4.28371 1.13502 3.94844 1.45877L 1.4241 3.89761C 1.26117 4.05525 1.05112 4.13356 0.84174 4.13356Z"/>
<path id="path36_fill" fill-rule="evenodd" d="M 10.2108 5.14142C 10.2108 7.98097 7.92512 10.2828 5.10556 10.2828C 2.28567 10.2828 0 7.98097 0 5.14142C 0 2.30188 2.28567 0 5.10556 0C 7.92512 0 10.2108 2.30188 10.2108 5.14142Z"/>
<path id="path37_fill" fill-rule="evenodd" d="M 0.795441 0C 1.23473 0 1.59088 0.358672 1.59088 0.80108C 1.59088 1.24349 1.23473 1.60216 0.795441 1.60216C 0.356147 1.60216 0 1.24349 0 0.80108C 0 0.358672 0.356147 0 0.795441 0Z"/>
<path id="path38_fill" fill-rule="evenodd" d="M 1.14418 0C 1.77602 0 2.28836 0.515973 2.28836 1.15229C 2.28836 1.78895 1.77602 2.30493 1.14418 2.30493C 0.512341 2.30493 0 1.78895 0 1.15229C 0 0.515973 0.512341 0 1.14418 0Z"/>
<path id="path39_fill" fill-rule="evenodd" d="M 0.108965 0.306364C 0.311276 -0.00586455 0.726669 -0.0940071 1.0367 0.109738C 1.34673 0.313483 1.43391 0.731821 1.2316 1.04405C 1.02929 1.35628 0.614237 1.44442 0.304207 1.24067C -0.00582324 1.03693 -0.0933453 0.618592 0.108965 0.306364Z"/>
<path id="path40_fill" fill-rule="evenodd" d="M 0.627627 0.0468946C 0.840856 0.155378 0.926282 0.417771 0.818659 0.632704C 0.711036 0.847636 0.450722 0.933744 0.237493 0.825261C 0.0246006 0.716778 -0.0611617 0.454384 0.0464616 0.239452C 0.154421 0.0245199 0.414399 -0.0615886 0.627627 0.0468946Z"/>
<path id="path41_fill" fill-rule="evenodd" d="M 0.795441 0C 0.356147 0 0 0.358672 0 0.80108C 0 1.24349 0.356147 1.60216 0.795441 1.60216C 1.23473 1.60216 1.59088 1.24349 1.59088 0.80108C 1.59088 0.358672 1.23473 0 0.795441 0Z"/>
<path id="path42_fill" fill-rule="evenodd" d="M 1.14418 0C 0.512341 0 0 0.515973 0 1.15229C 0 1.78895 0.512341 2.30493 1.14418 2.30493C 1.77602 2.30493 2.28836 1.78895 2.28836 1.15229C 2.28836 0.515973 1.77602 0 1.14418 0Z"/>
<path id="path43_fill" fill-rule="evenodd" d="M 1.23171 0.306364C 1.02939 -0.00586455 0.614002 -0.0940071 0.303972 0.109738C -0.00605826 0.313483 -0.0932437 0.731821 0.109067 1.04405C 0.311377 1.35628 0.726434 1.44442 1.03646 1.24067C 1.34649 1.03693 1.43402 0.618592 1.23171 0.306364Z"/>
<path id="path44_fill" fill-rule="evenodd" d="M 0.237554 0.0468946C 0.0243255 0.155378 -0.0611005 0.417771 0.0465229 0.632704C 0.154146 0.847636 0.41446 0.933744 0.627689 0.825261C 0.840581 0.716778 0.926344 0.454384 0.81872 0.239452C 0.710761 0.0245199 0.450783 -0.0615886 0.237554 0.0468946Z"/>
<path id="path45_fill" fill-rule="evenodd" d="M 13.527 5.85902C 13.2813 5.85902 13.0362 5.85834 12.7905 5.85732C 10.484 5.84715 9.25596 5.81427 7.22141 5.76003C 5.7406 5.72036 3.8508 5.66985 0.824891 5.61018C 0.360351 5.60069 -0.00892459 5.21388 0.000164238 4.74605C 0.00925307 4.27787 0.387618 3.91785 0.858217 3.91513C 3.88951 3.97514 5.78234 4.02599 7.26584 4.06532C 9.28895 4.11956 10.5102 4.1521 12.7979 4.16227C 25.9158 4.20668 30.3023 2.1811 32.8586 0.178568C 33.2256 -0.108912 33.7541 -0.0421273 34.0395 0.327393C 34.325 0.696575 34.2586 1.2295 33.8921 1.51664C 29.0965 5.27287 21.3195 5.85902 13.527 5.85902Z"/>
<path id="path46_fill" fill-rule="evenodd" d="M 0.843997 3.0618C 0.397635 3.0618 0.0256663 2.70855 0.00412238 2.25495C -0.0194412 1.76169 0.061685 1.08096 0.15392 0.663978C 0.255243 0.206654 0.704299 -0.0815043 1.1584 0.0205377C 1.61217 0.12258 1.89796 0.575158 1.79698 1.03214C 1.731 1.33081 1.67041 1.86034 1.68522 2.17359C 1.70744 2.64142 1.34927 3.0384 0.885065 3.06078C 0.871264 3.06146 0.857799 3.0618 0.843997 3.0618Z"/>
<path id="path47_fill" fill-rule="evenodd" d="M 1.24933 3.51748L 1.23452 3.51748C 0.769977 3.50935 0.399692 3.12355 0.407771 2.65538C 0.418879 1.99634 0.155976 1.38545 0.0698008 1.18476C -0.115342 0.755569 0.0805728 0.256546 0.506738 0.0700908C 0.934249 -0.116026 1.42909 0.0812781 1.61389 0.510804C 1.94648 1.28307 2.10233 1.99397 2.09055 2.68453C 2.08247 3.14762 1.70714 3.51748 1.24933 3.51748Z"/>
<path id="path48_fill" fill-rule="evenodd" d="M 0 2.90057L 14.5381 2.90057C 21.5658 2.90057 28.2764 0 28.2764 0C 28.2764 0 23.4273 3.80606 15.4214 3.99049C 9.55875 4.12541 0 2.90057 0 2.90057Z"/>
<path id="path49_fill" fill-rule="evenodd" d="M 22.3733 11.266C 22.3733 17.4882 17.365 22.532 11.1867 22.532C 5.00828 22.532 0 17.4882 0 11.266C 0 5.04379 5.00828 0 11.1867 0C 17.365 0 22.3733 5.04379 22.3733 11.266Z"/>
<path id="path50_fill" fill-rule="evenodd" d="M 10.5195 21.1881C 4.71912 21.1881 0 16.4355 0 10.5941C 0 4.75258 4.71912 0 10.5195 0C 16.3198 0 21.039 4.75258 21.039 10.5941C 21.039 16.4355 16.3198 21.1881 10.5195 21.1881Z"/>
<path id="path51_fill" fill-rule="evenodd" d="M 11.361 0C 5.09648 0 0 5.13261 0 11.4416C 0 17.7506 5.09648 22.8832 11.361 22.8832C 17.6256 22.8832 22.7221 17.7506 22.7221 11.4416C 22.7221 5.13261 17.6256 0 11.361 0ZM 11.361 1.69507C 16.7059 1.69507 21.0389 6.0588 21.0389 11.4416C 21.0389 16.8244 16.7059 21.1881 11.361 21.1881C 6.01612 21.1881 1.68311 16.8244 1.68311 11.4416C 1.68311 6.0588 6.01612 1.69507 11.361 1.69507Z"/>
<path id="path52_fill" fill-rule="evenodd" d="M 3.72002 0.967873C 3.72002 0.630219 3.79644 0.311211 3.92907 0.0240697C 3.79778 0.00949228 3.66515 0 3.53017 0C 1.58045 0 0 1.59165 0 3.5552C 0 5.5184 1.58045 7.11039 3.53017 7.11039C 5.47955 7.11039 7.06 5.5184 7.06 3.5552C 7.06 3.34501 7.03846 3.14059 7.00378 2.94057C 6.68904 3.11211 6.32885 3.20975 5.94611 3.20975C 4.71643 3.20975 3.72002 2.20594 3.72002 0.967873Z"/>
<path id="path53_fill" fill-rule="evenodd" d="M 16.0993 0C 16.5329 1.10687 16.7739 2.31171 16.7739 3.57384C 16.7739 8.95698 12.4409 13.3204 7.09602 13.3204C 4.29195 13.3204 1.76761 12.1182 0 10.1991C 1.41584 13.813 4.91167 16.3715 9.00333 16.3715C 14.3486 16.3715 18.6812 12.0081 18.6812 6.62493C 18.6812 4.06608 17.701 1.73912 16.0993 0Z"/>
</defs>
</svg>
