<?xml version="1.0" encoding="UTF-8"?>
<svg width="30px" height="30px" viewBox="0 0 30 30" version="1.1" xmlns="http://www.w3.org/2000/svg" xmlns:xlink="http://www.w3.org/1999/xlink">
    <!-- Generator: Sketch 45.1 (43504) - http://www.bohemiancoding.com/sketch -->
    <title>icn-admin, web</title>
    <desc>Created with Sketch.</desc>
    <defs></defs>
    <g id="Page-1" stroke="none" stroke-width="1" fill="none" fill-rule="evenodd">
        <g id="Types-Icons" transform="translate(-278.000000, -780.000000)">
            <g id="icn-admin,-web" transform="translate(278.000000, 780.000000)">
                <g id="admin_panels">
                    <g id="Page-1">
                        <g id="admin_panels">
                            <g id="Group">
                                <rect id="Shape" fill="#1D88E5" x="0" y="0" width="30" height="30" rx="3"></rect>
                                <path d="M24.3387533,12.6431571 L22.7904468,13.5440971 C22.877112,14.0177322 22.9337777,14.5010333 22.9337777,15.0003333 C22.9337777,15.4986334 22.877112,15.9822678 22.7904468,16.4555696 L24.3387533,17.3568429 C24.9710756,17.7248183 25.1877385,18.5407639 24.8224115,19.1780548 L23.5001012,21.4879008 C23.1347742,22.1251917 22.3264549,22.3435104 21.6937992,21.9762016 L20.1298263,21.0652623 C19.3995057,21.6925538 18.5678534,22.2051863 17.6448695,22.534831 L17.6448695,23.6664222 C17.6448695,24.4027065 17.0532131,25 16.3225591,25 L13.677605,25 C12.9476176,25 12.3549613,24.4027065 12.3549613,23.6664222 L12.3549613,22.5344977 C11.4313106,22.204853 10.6009917,21.6922205 9.87033772,21.064929 L8.30636486,21.9758683 C7.67370917,22.3438437 6.86505654,22.1248583 6.49972955,21.4875675 L5.17741916,19.1777215 C4.81209217,18.5400973 5.02908841,17.7248183 5.66174409,17.3565096 L7.21005055,16.4552363 C7.12305206,15.9819345 7.06605305,15.4983001 7.06605305,15 C7.06605305,14.5007 7.12305206,14.0173988 7.21005055,13.5437637 L5.66174409,12.6428238 C5.02908841,12.274515 4.81209217,11.4589027 5.17741916,10.8212786 L6.49972955,8.51176588 C6.86505654,7.87380841 7.67337585,7.65615626 8.30636486,8.0234651 L9.87067104,8.93407106 C10.6009917,8.30644624 11.4319773,7.79414706 12.3549613,7.46450237 L12.3549613,6.33324445 C12.3549613,5.5969602 12.9466177,5 13.677605,5 L16.3225591,5 C17.0525464,5 17.6448695,5.59662689 17.6448695,6.33324445 L17.6448695,7.46516899 C18.5685201,7.79481368 19.3995057,8.30711286 20.1298263,8.93473768 L21.6937992,8.02413172 C22.3261215,7.65615626 23.1347742,7.87447503 23.5001012,8.5124325 L24.8224115,10.8219452 C25.1877385,11.4595694 24.971409,12.274515 24.3387533,12.6431571 L24.3387533,12.6431571 L24.3387533,12.6431571 Z M23.3474371,10.910606 L22.6864486,9.75601627 C22.5034518,9.43737084 22.0991255,9.3280448 21.7834643,9.51236584 L19.9454962,10.5812946 C19.013179,9.52069862 17.7535342,8.76041597 16.3232257,8.4674355 L16.3232257,7.0005333 C16.3232257,6.63255783 16.0268975,6.33391107 15.6622372,6.33391107 L14.3395935,6.33391107 C13.9742665,6.33391107 13.678605,6.63255783 13.678605,7.0005333 L13.678605,8.4674355 C12.2476298,8.76041597 10.987985,9.52069862 10.0556678,10.5812946 L8.21836639,9.51236584 C7.90237187,9.3280448 7.49837888,9.43737084 7.31538206,9.75601627 L6.65439353,10.910606 C6.47173003,11.2295847 6.58006149,11.6375575 6.89672266,11.8212119 L8.74102398,12.8951403 C8.5210278,13.5580961 8.38936342,14.2623825 8.38936342,14.9996667 C8.38936342,15.7369509 8.5210278,16.4409039 8.74102398,17.1038597 L6.89672266,18.1777881 C6.58072814,18.3621092 6.47239669,18.7694154 6.65439353,19.0880608 L7.31538206,20.2429838 C7.49837888,20.5619625 7.90237187,20.6709553 8.21836639,20.4869675 L10.0556678,19.4173722 C10.987985,20.4779681 12.2476298,21.2382508 13.678605,21.5318979 L13.678605,22.9988001 C13.678605,23.3667755 13.9752665,23.6647557 14.3395935,23.6647557 L15.6622372,23.6647557 C16.0275642,23.6647557 16.3232257,23.3661089 16.3232257,22.9988001 L16.3232257,21.5322312 C17.7535342,21.2385841 19.013179,20.4783014 19.9454962,19.4177055 L21.7834643,20.4873008 C22.0987922,20.6712886 22.5034518,20.5622958 22.6864486,20.2433171 L23.3474371,19.0883941 C23.529434,18.7697487 23.4221025,18.3617759 23.105108,18.1781215 L21.2604734,17.1041931 C21.4804696,16.4412373 21.6118006,15.7369509 21.6118006,15 C21.6118006,14.2617159 21.4804696,13.5584294 21.2604734,12.8951403 L23.105108,11.8212119 C23.4221025,11.6375575 23.529434,11.229918 23.3474371,10.910606 L23.3474371,10.910606 L23.3474371,10.910606 Z M15.0002487,18.3331111 C13.173947,18.3331111 11.6943061,16.840544 11.6943061,15.0006666 C11.6943061,13.159456 13.173947,11.6668889 15.0002487,11.6668889 C16.8265503,11.6668889 18.3061913,13.159456 18.3061913,15.0006666 C18.3061913,16.840544 16.8258837,18.3331111 15.0002487,18.3331111 L15.0002487,18.3331111 L15.0002487,18.3331111 Z M15.0002487,13.0001333 C13.9052677,13.0001333 13.0172831,13.8957403 13.0172831,15.0006666 C13.0172831,16.1049263 13.9052677,16.9998667 15.0002487,16.9998667 C16.0958963,16.9998667 16.9838809,16.1042597 16.9838809,15.0006666 C16.9838809,13.895407 16.0958963,13.0001333 15.0002487,13.0001333 L15.0002487,13.0001333 L15.0002487,13.0001333 Z" id="Shape" fill="#FFFFFF"></path>
                            </g>
                        </g>
                    </g>
                </g>
            </g>
        </g>
    </g>
</svg>