<?xml version="1.0" encoding="UTF-8"?>
<svg width="30px" height="30px" viewBox="0 0 30 30" version="1.1" xmlns="http://www.w3.org/2000/svg" xmlns:xlink="http://www.w3.org/1999/xlink">
    <!-- Generator: Sketch 45.1 (43504) - http://www.bohemiancoding.com/sketch -->
    <title>icn-after effects, adobe, media</title>
    <desc>Created with Sketch.</desc>
    <defs></defs>
    <g id="Page-1" stroke="none" stroke-width="1" fill="none" fill-rule="evenodd">
        <g id="Types-Icons" transform="translate(-516.000000, -1307.000000)">
            <g id="icn-after-effects,-adobe,-media" transform="translate(516.000000, 1307.000000)">
                <rect id="bg" fill="#18063E" x="0" y="0" width="30" height="30" rx="3"></rect>
                <g id="after-effects-cc" transform="translate(5.000000, 8.000000)" fill="#D8A1FF">
                    <g id="Layer_1">
                        <path d="M16.2148177,7.52782774 C16.8650591,7.52782774 17.0945893,7.52782774 17.1583334,7.50244206 C17.1583334,7.41359216 17.183831,7.35007677 17.183831,7.28661256 C17.183831,6.60109673 16.8523102,5.33165899 15.5262785,5.33165899 C14.302186,5.33165899 13.7794843,6.39796008 13.6519447,7.52782774 L16.2148177,7.52782774 L16.2148177,7.52782774 Z M13.6264984,9.26695182 C13.6519961,10.9807414 14.4680235,12.1359436 16.4061015,12.1359436 C17.1583848,12.1359436 17.8086261,12.034452 18.4844679,11.7424655 C18.5737096,11.7043869 18.6375051,11.7170798 18.6375051,11.8313153 L18.6375051,13.4181253 C18.6375051,13.5450537 18.5992587,13.6085691 18.5100169,13.6720333 C17.8342266,14.0020472 16.9926501,14.1544125 15.9471439,14.1544125 C12.5810436,14.1544125 11.3187046,11.6790012 11.3187046,8.92429626 C11.3187046,5.92837611 12.8743179,3.47835052 15.6156745,3.47835052 C18.3952775,3.47835052 19.3643422,5.80144769 19.3643422,7.69293705 C19.3643422,8.30229583 19.3260958,8.79736784 19.2623516,9.03858302 C19.236854,9.14012576 19.1986075,9.17825547 19.0965656,9.20364115 C18.8415377,9.24171968 18.0892544,9.29243986 16.9672039,9.29243986 L13.6264984,9.29243986 L13.6264984,9.26695182 L13.6264984,9.26695182 L13.6264984,9.26695182 Z M6.79225597,7.97212839 C6.43523755,6.56301821 5.56816344,3.490941 5.24939148,2.00567376 L5.22389384,2.00567376 C4.95616858,3.490941 4.25482915,6.0044308 3.73207605,7.97212839 L6.79225597,7.97212839 L6.79225597,7.97212839 L6.79225597,7.97212839 Z M3.20927154,10.0286759 L2.20201179,13.8243474 C2.17651415,13.925839 2.13826768,13.9639687 2.01072805,13.9639687 L0.136394197,13.9639687 C0.00890597772,13.9639687 -0.0166430727,13.9258902 0.00890597772,13.7735761 L3.63003407,1.16784383 C3.69377818,0.939372669 3.73202464,0.761621701 3.75752229,0.12692842 C3.75752229,0.038078526 3.79576875,-1.77635684e-15 3.85951286,-1.77635684e-15 L6.53712531,-1.77635684e-15 C6.62636707,-1.77635684e-15 6.66461353,0.025385684 6.69016258,0.12692842 L10.744802,13.7989618 C10.7702997,13.9004533 10.744802,13.9639687 10.6428114,13.9639687 L8.5389988,13.9639687 C8.43700822,13.9639687 8.3732127,13.9258902 8.34771506,13.8370915 L7.30215744,10.0287271 L3.20927154,10.0287271 L3.20927154,10.0286759 Z" id="Shape"></path>
                    </g>
                </g>
            </g>
        </g>
    </g>
</svg>