<?xml version="1.0" encoding="UTF-8"?>
<svg width="30px" height="30px" viewBox="0 0 30 30" version="1.1" xmlns="http://www.w3.org/2000/svg" xmlns:xlink="http://www.w3.org/1999/xlink">
    <!-- Generator: Sketch 46 (44423) - http://www.bohemiancoding.com/sketch -->
    <title>presta-icon</title>
    <desc>Created with Sketch.</desc>
    <defs></defs>
    <g id="Page-1" stroke="none" stroke-width="1" fill="none" fill-rule="evenodd">
        <g id="Patterns" transform="translate(-401.000000, -1868.000000)">
            <g id="DD3-Opened" transform="translate(381.000000, 1776.000000)">
                <g id="DD3-opened" transform="translate(0.000000, 0.904053)">
                    <g id="1" transform="translate(0.000000, 66.095947)">
                        <g id="presta-icon" transform="translate(20.000000, 25.000000)">
                            <rect id="bg" fill="#243238" x="0" y="0" width="30" height="30" rx="3"></rect>
                            <path d="M24,5 L9.55,5 C8.14155,5 7,6.11916667 7,7.5 L7,22.5 C7,23.8808333 8.14155,25 9.55,25 L24,25 L24,8.33333333 L20.6,8.33333333 L20.6,15 L18.9,13.3333333 L17.2,15 L17.2,8.33333333 L9.97075,8.33333333 C8.802,8.33333333 8.802,6.66666667 9.97075,6.66666667 L24,6.66666667 L24,5 L24,5 Z" id="Shape" fill="#FFFFFF"></path>
                        </g>
                    </g>
                </g>
            </g>
        </g>
    </g>
</svg>