<?xml version="1.0" encoding="UTF-8"?>
<svg width="30px" height="30px" viewBox="0 0 30 30" version="1.1" xmlns="http://www.w3.org/2000/svg" xmlns:xlink="http://www.w3.org/1999/xlink">
    <!-- Generator: Sketch 46 (44423) - http://www.bohemiancoding.com/sketch -->
    <title>presta-icon</title>
    <desc>Created with Sketch.</desc>
    <defs></defs>
    <g id="Page-1" stroke="none" stroke-width="1" fill="none" fill-rule="evenodd">
        <g id="Patterns" transform="translate(-60.000000, -1868.000000)">
            <g id="DD3-Opened" transform="translate(40.000000, 1776.000000)">
                <g id="DD3-opened" transform="translate(0.000000, 0.904053)">
                    <g id="1" transform="translate(0.000000, 66.095947)">
                        <g id="presta-icon" transform="translate(20.000000, 25.000000)">
                            <rect id="bg" fill="#243238" x="0" y="0" width="30" height="30" rx="3"></rect>
                            <path d="M19.1666667,15.1221053 L19.1666667,13.1945263 C18.1916667,12.8433684 17.5775,12.7456842 17.2666667,11.9894737 C16.9558333,11.2315789 17.325,10.7162105 17.7666667,9.77894737 L16.4183333,8.41557895 C15.4975,8.85768421 14.9825,9.23578947 14.23,8.92084211 C13.48,8.60589474 13.3825,7.98021053 13.0375,7 L11.1291667,7 C10.7858333,7.97515789 10.6875,8.60589474 9.93666667,8.92 L9.93583333,8.92 C9.18583333,9.23494737 8.6775,8.86105263 7.74833333,8.41473684 L6.40083333,9.77810526 C6.84,10.7128421 7.21166667,11.2298947 6.90083333,11.9886316 C6.58833333,12.7473684 5.965,12.8467368 5,13.1936842 L5,15.1212632 C5.9625,15.4682105 6.58916667,15.5684211 6.9,16.3263158 C7.21333333,17.0909474 6.8325,17.6181053 6.4,18.5368421 L7.74833333,19.9002105 C8.67083333,19.4581053 9.185,19.08 9.93583333,19.3949474 L9.93666667,19.3949474 C10.6866667,19.7090526 10.785,20.3364211 11.1291667,21.3149474 L13.0366667,21.3149474 C13.38,20.3397895 13.4783333,19.7107368 14.2341667,19.3932632 L14.235,19.3932632 C14.98,19.08 15.4858333,19.4530526 16.4175,19.9002105 L17.7658333,18.5368421 C17.3283333,17.6046316 16.9541667,17.0858947 17.265,16.3263158 C17.5766667,15.5692632 18.2033333,15.4682105 19.1666667,15.1221053 L19.1666667,15.1221053 Z M12.0833333,16.5444211 C10.78,16.5444211 9.7225,15.4757895 9.7225,14.1578947 C9.7225,12.84 10.78,11.7713684 12.0833333,11.7713684 C13.3866667,11.7713684 14.4441667,12.84 14.4441667,14.1578947 C14.4441667,15.4757895 13.3866667,16.5444211 12.0833333,16.5444211 L12.0833333,16.5444211 Z M25,20.0854737 L25,19.1785263 C24.5416667,19.0134737 24.2525,18.9671579 24.1058333,18.6117895 C23.9591667,18.2547368 24.1333333,18.0130526 24.3408333,17.5709474 L23.7058333,16.9292632 C23.2725,17.1381053 23.03,17.3149474 22.6766667,17.1675789 C22.3233333,17.0202105 22.2775,16.7254737 22.115,16.264 L21.2183333,16.264 C21.0566667,16.7229474 21.01,17.0193684 20.6566667,17.1675789 C20.3033333,17.3157895 20.0641667,17.1397895 19.6275,16.9292632 L18.9925,17.5709474 C19.1991667,18.0113684 19.3741667,18.2547368 19.2275,18.6117895 C19.0808333,18.9688421 18.7875,19.0151579 18.3333333,19.1785263 L18.3333333,20.0854737 C18.7866667,20.248 19.0808333,20.296 19.2275,20.6522105 C19.375,21.0117895 19.1958333,21.2602105 18.9925,21.6930526 L19.6275,22.3347368 C20.0616667,22.1258947 20.3041667,21.9490526 20.6566667,22.0964211 C21.01,22.2437895 21.0558333,22.5393684 21.2183333,23 L22.115,23 C22.2766667,22.5410526 22.3233333,22.2446316 22.6783333,22.0955789 L22.6791667,22.0955789 C23.03,21.9482105 23.2675,22.1242105 23.7058333,22.3347368 L24.3408333,21.6930526 C24.135,21.2543158 23.9591667,21.0092632 24.1058333,20.6530526 C24.2525,20.2968421 24.5466667,20.248 25,20.0854737 L25,20.0854737 Z M21.6666667,20.7541053 C21.0533333,20.7541053 20.5558333,20.2513684 20.5558333,19.6315789 C20.5558333,19.0117895 21.0533333,18.5090526 21.6666667,18.5090526 C22.28,18.5090526 22.7775,19.0117895 22.7775,19.6315789 C22.7775,20.2513684 22.28,20.7541053 21.6666667,20.7541053 L21.6666667,20.7541053 Z" id="Shape" fill="#FFFFFF"></path>
                        </g>
                    </g>
                </g>
            </g>
        </g>
    </g>
</svg>