<?xml version="1.0" encoding="UTF-8"?>
<svg width="30px" height="30px" viewBox="0 0 30 30" version="1.1" xmlns="http://www.w3.org/2000/svg" xmlns:xlink="http://www.w3.org/1999/xlink">
    <!-- Generator: Sketch 45.1 (43504) - http://www.bohemiancoding.com/sketch -->
    <title>icn-bootstrap, web</title>
    <desc>Created with Sketch.</desc>
    <defs></defs>
    <g id="Page-1" stroke="none" stroke-width="1" fill="none" fill-rule="evenodd">
        <g id="Types-Icons" transform="translate(-993.000000, -428.000000)">
            <g id="icn-bootstrap,-web" transform="translate(993.000000, 428.000000)">
                <rect id="bg" fill="#5B4282" x="0" y="0" width="30" height="30" rx="3"></rect>
                <path d="M7.675125,6.021375 L15.553125,6.021375 C17.67225,6.021375 19.386,6.50925 20.34225,7.34175 C21.282375,8.1585 21.762375,9.2415 21.762375,10.514625 C21.762375,11.5815 21.6555,12.234 21.064125,12.9975 C20.669625,13.50525 20.1345,13.9845 19.37625,14.28 C20.52975,14.591625 21.213,15.257625 21.7575,16.017375 C22.3005,16.77525 22.50975,17.572125 22.50975,18.72075 C22.50975,19.65675 22.29375,20.452125 21.90825,21.197625 C21.520875,21.945375 20.33775,23.81475 16.24425,23.81475 L7.674,23.831625 C7.67475,23.832 7.67475,6.021375 7.675125,6.021375 L7.675125,6.021375 L7.675125,6.021375 L7.675125,6.021375 L7.675125,6.021375 Z M12.348,12.9015 L14.464125,12.9015 C15.616125,12.9015 16.190625,12.771375 16.493625,12.47175 C16.7985,12.1725 17.095125,11.7915 17.095125,10.922625 C17.095125,10.0995 16.728,9.775875 16.3785,9.517125 C16.03875,9.26475 15.3495,9.13275 14.49825,9.13275 L12.3495,9.13275 L12.348,12.9015 L12.348,12.9015 L12.348,12.9015 L12.348,12.9015 L12.348,12.9015 L12.348,12.9015 Z M12.348,20.68125 L14.859,20.68125 C16.009125,20.68125 16.69425,20.451375 17.074875,20.142 C17.487,19.811625 17.845125,19.4085 17.845125,18.2625 C17.845125,17.250375 17.424375,16.848375 17.03025,16.536 C16.659,16.240125 15.982875,16.052625 14.84775,16.052625 L12.348,16.052625 L12.348,20.68125 L12.348,20.68125 L12.348,20.68125 L12.348,20.68125 L12.348,20.68125 L12.348,20.68125 Z" id="Shape" fill="#FFFFFF"></path>
            </g>
        </g>
    </g>
</svg>