<?xml version="1.0" encoding="UTF-8"?>
<svg width="30px" height="30px" viewBox="0 0 30 30" version="1.1" xmlns="http://www.w3.org/2000/svg" xmlns:xlink="http://www.w3.org/1999/xlink">
    <!-- Generator: Sketch 45.1 (43504) - http://www.bohemiancoding.com/sketch -->
    <title>icn-drupal, cms</title>
    <desc>Created with Sketch.</desc>
    <defs></defs>
    <g id="Page-1" stroke="none" stroke-width="1" fill="none" fill-rule="evenodd">
        <g id="Types-Icons" transform="translate(-516.000000, -780.000000)">
            <g id="icn-drupal,-cms" transform="translate(516.000000, 780.000000)">
                <rect id="bg" fill="#0079C4" x="0" y="0" width="30" height="30" rx="3"></rect>
                <path d="M22.1521875,7.8478125 C20.2396875,5.9353125 17.7,4.875 15,4.875 C9.4228125,4.875 4.875,9.4228125 4.875,15 C4.875,20.5771875 9.4228125,25.125 15,25.125 C20.5771875,25.125 25.125,20.5771875 25.125,15 C25.125,12.3 24.0646875,9.7603125 22.1521875,7.8478125 L22.1521875,7.8478125 L22.1521875,7.8478125 L22.1521875,7.8478125 L22.1521875,7.8478125 Z M15,21.5728125 C11.9465625,21.5728125 9.455625,19.081875 9.455625,16.0284375 C9.455625,13.4409375 11.1909375,11.705625 12.718125,10.1784375 C13.730625,9.1659375 14.71125,8.1853125 15,7.093125 C15.2896875,8.18625 16.2534375,9.1659375 17.281875,10.1784375 C18.8090625,11.705625 20.544375,13.4409375 20.544375,16.0284375 C20.544375,19.081875 18.0534375,21.5728125 15,21.5728125 L15,21.5728125 L15,21.5728125 L15,21.5728125 L15,21.5728125 Z" id="Shape" fill="#FFFFFF"></path>
            </g>
        </g>
    </g>
</svg>