<?xml version="1.0" encoding="UTF-8"?>
<svg width="30px" height="30px" viewBox="0 0 30 30" version="1.1" xmlns="http://www.w3.org/2000/svg" xmlns:xlink="http://www.w3.org/1999/xlink">
    <!-- Generator: Sketch 45.1 (43504) - http://www.bohemiancoding.com/sketch -->
    <title>icn-facebook, web</title>
    <desc>Created with Sketch.</desc>
    <defs></defs>
    <g id="Page-1" stroke="none" stroke-width="1" fill="none" fill-rule="evenodd">
        <g id="Types-Icons" transform="translate(-516.000000, -604.000000)">
            <g id="icn-facebook,-web" transform="translate(516.000000, 604.000000)">
                <rect id="bg" fill="#4D62A1" x="0" y="0" width="30" height="30" rx="3"></rect>
                <path d="M23.8480309,24.9464865 L6.14378378,24.9464865 C5.53698842,24.9464865 5.04540541,24.4545946 5.04540541,23.8480309 L5.04540541,6.14378378 C5.04540541,5.53706564 5.53706564,5.04540541 6.14378378,5.04540541 L23.8480309,5.04540541 C24.4545946,5.04540541 24.946332,5.53706564 24.946332,6.14378378 L24.946332,23.8480309 C24.946332,24.4546718 24.4545174,24.9464865 23.8480309,24.9464865 Z M18.7767568,24.9464865 L18.7767568,17.2396911 L21.3635521,17.2396911 L21.750888,14.2362162 L18.7767568,14.2362162 L18.7767568,12.3186873 C18.7767568,11.449112 19.0182239,10.8565251 20.2651737,10.8565251 L21.8555985,10.8558301 L21.8555985,8.16949807 C21.5805405,8.13289575 20.6364479,8.05111969 19.5380695,8.05111969 C17.2450193,8.05111969 15.6751351,9.45081081 15.6751351,12.0212355 L15.6751351,14.2362162 L13.0816988,14.2362162 L13.0816988,17.2396911 L15.6751351,17.2396911 L15.6751351,24.9464865 L18.7767568,24.9464865 Z" id="Facebook-icon" fill="#FFFFFF"></path>
            </g>
        </g>
    </g>
</svg>