<?xml version="1.0" encoding="UTF-8"?>
<svg width="30px" height="30px" viewBox="0 0 30 30" version="1.1" xmlns="http://www.w3.org/2000/svg" xmlns:xlink="http://www.w3.org/1999/xlink">
    <!-- Generator: Sketch 45.1 (43504) - http://www.bohemiancoding.com/sketch -->
    <title>icn-flash, flash site</title>
    <desc>Created with Sketch.</desc>
    <defs></defs>
    <g id="Page-1" stroke="none" stroke-width="1" fill="none" fill-rule="evenodd">
        <g id="Types-Icons" transform="translate(-992.000000, -1131.000000)">
            <g id="icn-flash,-flash-site" transform="translate(992.000000, 1131.000000)">
                <rect id="bg" fill="#D12727" x="0" y="0" width="30" height="30" rx="3"></rect>
                <path d="M7,23.1156226 L7,21.2312443 L7.32296654,21.198869 C8.87512401,21.0432765 9.61738282,20.7079766 10.6124404,19.7129194 C11.7730175,18.5523423 12.5501957,17.0976778 13.8370826,13.6772724 C14.6886173,11.4139868 15.3944966,10.0399153 16.5004064,8.49282305 C17.4656483,7.14251513 18.9952929,6.04830456 20.7081348,5.48288199 C21.5520778,5.20428954 22.7000574,5 23.4216271,5 L23.6985655,5 L23.6985655,6.88614399 L23.6985655,8.77228766 L23.3755989,8.80048478 C22.5196782,8.87521246 21.8259419,9.08753277 21.1561385,9.4797587 C20.2651675,10.0014964 19.170858,11.3408396 18.5554735,12.6627535 C18.341928,13.121473 18.2241164,13.0861247 19.966508,13.0861247 L21.4976085,13.0861247 L21.4976085,14.9995497 L21.4976085,16.912974 L19.1489261,16.9253869 L16.8002442,16.9377995 L16.5419335,17.5087573 C15.8797349,18.9724511 15.1072657,20.3508355 14.3504569,21.4191981 C12.8961386,23.4722145 10.95462,24.5884346 8.24401926,24.9299169 C7.9413878,24.9680424 7.53767963,24.9994084 7.34689014,24.9996186 L7,25 L7,23.115622 L7,23.1156226 Z" id="flash-logo" fill="#FFFFFF"></path>
            </g>
        </g>
    </g>
</svg>