<?xml version="1.0" encoding="UTF-8"?>
<svg width="30px" height="30px" viewBox="0 0 30 30" version="1.1" xmlns="http://www.w3.org/2000/svg" xmlns:xlink="http://www.w3.org/1999/xlink">
    <!-- Generator: Sketch 45.1 (43504) - http://www.bohemiancoding.com/sketch -->
    <title>icn-joomla, cms</title>
    <desc>Created with Sketch.</desc>
    <defs></defs>
    <g id="Page-1" stroke="none" stroke-width="1" fill="none" fill-rule="evenodd">
        <g id="Types-Icons" transform="translate(-754.000000, -252.000000)">
            <g id="icn-joomla,-cms" transform="translate(754.000000, 252.000000)">
                <rect id="bg" fill="#F89409" x="0" y="0" width="30" height="30" rx="3"></rect>
                <path d="M8.60351978,15.0910389 L8.21880529,14.7064978 C7.02591522,13.5117559 6.65659137,11.8053288 7.10845317,10.2923807 C5.91590706,10.0225433 5.02527196,8.95494565 5.02527196,7.67901182 C5.02560084,6.19957845 6.22322185,5 7.70055347,5 C9.03071011,5.00069181 10.1335404,5.97224033 10.3409232,7.24506254 C11.7843327,6.90612624 13.3640432,7.30034353 14.4896472,8.42736701 L14.6432035,8.58111395 L12.6687373,10.557034 L12.515528,10.4029396 C11.8750864,9.76203481 10.8364376,9.76203481 10.1953081,10.4036314 C9.55210584,11.0476448 9.55348469,12.0907122 10.1918564,12.7298859 L10.577986,13.1158106 L12.5527962,15.0910389 L14.6411307,17.1809739 L12.6687373,19.1575827 L10.577986,17.0669589 L8.60351978,15.0910389 Z M10.8119381,12.8815635 L12.9020015,10.7902449 L14.8768116,8.81536409 L15.2619033,8.4304756 C16.4503098,7.24091775 18.1438917,6.86639425 19.6490689,7.30898053 C19.8291915,6.00471591 20.9472042,5 22.299516,5 C23.777086,5 24.9755005,6.19888665 24.9751535,7.67901182 C24.9751535,9.03855743 23.963077,10.1621249 22.651829,10.3348769 C23.0828149,11.8364238 22.7073843,13.5200485 21.526916,14.7030418 L21.3730157,14.8574805 L19.3999313,12.8801799 L19.5524498,12.7271248 C20.1935822,12.0855281 20.1935822,11.0448806 19.5531407,10.4036314 C18.914422,9.76479901 17.8781929,9.76341842 17.2349906,10.4070874 L16.849896,10.7923203 L14.8750858,12.7682373 L12.7864043,14.8574805 L10.8119381,12.8815635 Z M19.7022074,22.8554426 C18.1839206,23.3230789 16.4637664,22.9553254 15.2619033,21.752155 L15.1107667,21.600997 L17.0835071,19.6236632 L17.2349906,19.7756851 C17.8761201,20.4172787 18.9154599,20.4172787 19.5559014,19.7763739 C20.1942702,19.1365083 20.195652,18.0993138 19.5524498,17.454956 L19.1666672,17.0683395 L17.1935828,15.0910389 L15.1086969,13.0017957 L17.0835071,11.0265674 L19.1666672,13.11443 L21.1390606,15.0910389 L21.526916,15.4797278 C22.661834,16.61608 23.0538289,18.2147124 22.700828,19.6689235 C24.0003452,19.8520405 25,20.9700796 25,22.321677 C25,23.8015272 23.8015855,25 22.3247064,25 C21.0293288,25 19.9492752,24.0795514 19.7022074,22.8554426 Z M18.9327121,17.3025896 L16.849896,19.3904492 L14.8768116,21.3674055 L14.4896472,21.7548497 C13.3498957,22.8966277 11.742581,23.2846247 10.2836451,22.9222637 C10.0110429,24.1126161 8.94685969,24.9993052 7.67560442,25 C6.19761806,25 4.99966215,23.8008717 5.00000007,22.321677 C5.00000007,21.0550719 5.87815611,19.9930026 7.05793654,19.7141839 C6.68454251,18.2464961 7.07139316,16.6250614 8.21880529,15.4762718 L8.36977287,15.3256334 L10.3443749,17.301206 L10.1918564,17.4528836 C9.5514149,18.0948216 9.5514149,19.1337441 10.1925474,19.7763739 C10.8354027,20.4200429 11.8771562,20.4186593 12.515528,19.7791381 L12.9020015,19.3914854 L14.8750858,17.415224 L16.9599717,15.3256334 L18.9327121,17.3025896 Z" id="path174" fill="#FFFFFF"></path>
            </g>
        </g>
    </g>
</svg>