<?xml version="1.0" encoding="UTF-8"?>
<svg width="30px" height="30px" viewBox="0 0 30 30" version="1.1" xmlns="http://www.w3.org/2000/svg" xmlns:xlink="http://www.w3.org/1999/xlink">
    <!-- Generator: Sketch 45.1 (43504) - http://www.bohemiancoding.com/sketch -->
    <title>icn-weblium</title>
    <desc>Created with Sketch.</desc>
    <defs></defs>
    <g id="Page-1" stroke="none" stroke-width="1" fill="none" fill-rule="evenodd">
        <g id="Types-Icons" transform="translate(-754.000000, -1832.000000)">
            <g id="icn-weblium" transform="translate(754.000000, 1832.000000)">
                <rect id="bg" fill="#F7DF1E" x="0" y="0" width="30" height="30" rx="3.75"></rect>
                <path d="M19.3952889,21.797483 C20.0065753,22.7815055 20.8018738,23.5048 22.2084588,23.5048 C23.3900865,23.5048 24.1449216,22.922555 24.1449216,22.1180501 C24.1449216,21.153974 23.3693731,20.8125106 22.0687637,20.2516368 L21.3558371,19.9500661 C19.2979841,19.085722 17.9308991,18.0029173 17.9308991,15.7138302 C17.9308991,13.6052105 19.5605145,12 22.1073003,12 C23.9204461,12 25.2239457,12.6221378 26.1632746,14.251094 L23.9426046,15.6568405 C23.4536718,14.7924964 22.9262025,14.4519828 22.1073003,14.4519828 C21.27202,14.4519828 20.7426239,14.9743885 20.7426239,15.6568405 C20.7426239,16.5002883 21.2725017,16.8417518 22.496038,17.3641575 L23.2089646,17.6652532 C25.6319516,18.6896435 27,19.7339801 27,22.0819566 C27,24.6132501 24.9830921,26 22.2744527,26 C19.6260266,26 17.9150028,24.7557244 17.0777957,23.1248686 L19.3952889,21.797483 Z M9.32134685,22.041114 C9.76933452,22.8247227 10.1768588,23.4872282 11.1566512,23.4872282 C12.0935716,23.4872282 12.6846263,23.1258184 12.6846263,21.7205468 L12.6846263,12.160521 L15.5363328,12.160521 L15.5363328,21.75854 C15.5363328,24.6697649 13.8050772,25.9947759 11.2780414,25.9947759 C8.99474939,25.9947759 7.67246321,24.8298111 7,23.4266766 L9.32134685,22.041114 Z" id="Shape" fill="#000000" fill-rule="nonzero"></path>
            </g>
        </g>
    </g>
</svg>