<?xml version="1.0" encoding="UTF-8"?>
<svg width="30px" height="30px" viewBox="0 0 30 30" version="1.1" xmlns="http://www.w3.org/2000/svg" xmlns:xlink="http://www.w3.org/1999/xlink">
    <!-- Generator: Sketch 45.1 (43504) - http://www.bohemiancoding.com/sketch -->
    <title>icn-x-cart</title>
    <desc>Created with Sketch.</desc>
    <defs>
        <linearGradient x1="50%" y1="0%" x2="50%" y2="100%" id="linearGradient-1">
            <stop stop-color="#00CFFF" offset="0%"></stop>
            <stop stop-color="#0048F3" offset="100%"></stop>
        </linearGradient>
    </defs>
    <g id="Page-1" stroke="none" stroke-width="1" fill="none" fill-rule="evenodd">
        <g id="Types-Icons" transform="translate(-278.000000, -1832.000000)">
            <g id="icn-x-cart" transform="translate(278.000000, 1832.000000)">
                <rect id="bg" fill="url(#linearGradient-1)" x="0" y="0" width="30" height="30" rx="3.75"></rect>
                <g id="Keynote-Icon-01" transform="translate(6.000000, 5.000000)" fill="#FFFFFE">
                    <path d="M12.8348532,18.2342283 L10.1724736,18.2342283 C9.96990607,18.2342283 9.80563601,18.0729132 9.80563601,17.8738995 L9.80563601,11.5675616 L9.07203523,11.5675616 L9.07203523,17.8738995 C9.07203523,18.0729132 8.90783953,18.2342283 8.70527202,18.2342283 L6.01232877,18.2342283 C5.80671233,18.2342283 5.6202818,18.3883105 5.61812524,18.5903196 C5.6157456,18.8158539 5.80232485,18.9549589 6.03069667,18.9549589 L12.816411,18.9549589 C13.0448571,18.9549589 13.2314364,18.8158539 13.2290568,18.5903196 C13.2269002,18.3883105 13.0404697,18.2342283 12.8348532,18.2342283" id="Fill-4"></path>
                    <path d="M1.27058317,10.3063379 C1.42102153,10.7748676 1.8683953,11.1171507 2.39333072,11.1171507 L16.6066693,11.1171507 C17.1316047,11.1171507 17.5789785,10.7748676 17.7294168,10.3063379 L1.27058317,10.3063379" id="Fill-5"></path>
                    <path d="M16.7748063,4.09008219 C16.7748063,3.59459361 16.3621605,3.18918721 15.8578239,3.18918721 L3.08104892,3.18918721 C2.57671233,3.18918721 2.16406654,3.59459361 2.16406654,4.09008219 L1.98061057,9.82582648 L16.9581879,9.82582648 L16.7748063,4.09008219" id="Fill-6"></path>
                    <path d="M4.03104892,1.97296804 C4.03104892,1.67488584 4.27786301,1.43240183 4.5812681,1.43240183 L7.91054403,1.43240183 L7.91054403,1.07207306 L4.5812681,1.07207306 C4.07566732,1.07207306 3.66428571,1.47623744 3.66428571,1.97296804 L3.66428571,4.70568037 L4.03104892,4.70568037 L4.03104892,1.97296804" id="Fill-7"></path>
                    <path d="M8.82752642,2.02549772 L7.20758121,2.02549772 C6.85450098,2.02549772 6.56567123,1.74173516 6.56567123,1.39492237 L6.56567123,1.19970776 C6.56567123,0.852821918 6.85450098,0.569059361 7.20758121,0.569059361 L8.82752642,0.569059361 C9.18053229,0.569059361 9.4694364,0.852821918 9.4694364,1.19970776 L9.4694364,1.39492237 C9.4694364,1.74173516 9.18053229,2.02549772 8.82752642,2.02549772" id="Fill-8"></path>
                </g>
            </g>
        </g>
    </g>
</svg>