<?xml version="1.0" encoding="UTF-8"?>
<svg width="30px" height="30px" viewBox="0 0 30 30" version="1.1" xmlns="http://www.w3.org/2000/svg" xmlns:xlink="http://www.w3.org/1999/xlink">
    <!-- Generator: Sketch 45.1 (43504) - http://www.bohemiancoding.com/sketch -->
    <title>icn-landing, web</title>
    <desc>Created with Sketch.</desc>
    <defs></defs>
    <g id="Page-1" stroke="none" stroke-width="1" fill="none" fill-rule="evenodd">
        <g id="Types-Icons" transform="translate(-754.000000, -428.000000)">
            <g id="icn-landing,-web" transform="translate(754.000000, 428.000000)">
                <rect id="bg" fill="#243238" x="0" y="0" width="30" height="30" rx="3"></rect>
                <path d="M17.2448544,15.391768 L18.7914563,14.524011 C19.081699,17.3852915 16.8395631,19.8577602 13.9802427,19.8577602 C11.309466,19.8577602 9.14427184,17.6907241 9.14427184,15.0172414 C9.14427184,12.343953 11.3095146,10.1766254 13.9802427,10.1766254 C15.056699,10.1766254 16.0508738,10.5288981 16.854466,11.1243119 L15.291068,12.0014467 C14.8892233,11.8257962 14.446068,11.7276944 13.9802427,11.7276944 C12.1681068,11.7276944 10.693835,13.2034013 10.693835,15.0172414 C10.693835,16.8310329 12.1681068,18.3067398 13.9802427,18.3067398 C15.6658252,18.3067398 17.0584466,17.0297633 17.2448544,15.391768 L17.2448544,15.391768 Z M20.2773786,13.7039687 C20.7083495,15.7963229 20.0986893,17.996011 18.5273786,19.5687508 C17.312767,20.7845047 15.6979126,21.4540172 13.9801942,21.4540172 C12.2625243,21.4540172 10.6476699,20.7845047 9.43300971,19.5687508 C8.21839806,18.3529969 7.54951456,16.7365752 7.54951456,15.0172414 C7.54951456,13.2980047 8.21839806,11.6816317 9.43305825,10.4658292 C10.6477184,9.25002665 12.2625728,8.58046552 13.9801942,8.58046552 C15.6088835,8.58046552 17.1449029,9.18282759 18.3352427,10.2817727 C18.7734466,9.98659248 19.12,9.57873354 19.3408738,9.10012853 C17.9242233,7.81353135 16.0436893,7.02949373 13.9801942,7.02949373 C9.57300971,7.02944514 6,10.6058636 6,15.0172414 C6,19.4289107 9.57300971,23.0050376 13.9802427,23.0050376 C18.9871359,23.0050376 22.7803883,18.4300596 21.8111165,13.4741897 C21.271699,13.407185 20.7457282,13.4943056 20.2773786,13.7039687 L20.2773786,13.7039687 Z M23.5742718,9.64389185 L24.2177184,7.14508777 L20.6191748,9.1640721 C20.2966505,10.144848 19.6217961,10.9607602 18.731165,11.4605016 L14.9701456,13.5706395 C14.6910194,13.3709373 14.349466,13.2529624 13.9801456,13.2529624 C13.0387864,13.2529624 12.2756311,14.0167868 12.2756311,14.9590799 C12.2756311,15.9012759 13.038835,16.6651975 13.9801456,16.6651975 C14.9412136,16.6651975 15.726699,15.8658542 15.6826699,14.8790047 L19.453932,12.7631332 C20.3483981,12.2613025 21.3984466,12.1136881 22.3963592,12.3494436 L26,10.3276411 L23.5742718,9.64389185 L23.5742718,9.64389185 Z" id="target-3-icon" fill="#FFFFFF"></path>
            </g>
        </g>
    </g>
</svg>