<?xml version="1.0" encoding="UTF-8"?>
<svg width="30px" height="30px" viewBox="0 0 30 30" version="1.1" xmlns="http://www.w3.org/2000/svg" xmlns:xlink="http://www.w3.org/1999/xlink">
    <!-- Generator: Sketch 45.1 (43504) - http://www.bohemiancoding.com/sketch -->
    <title>icn-mobile</title>
    <desc>Created with Sketch.</desc>
    <defs></defs>
    <g id="Page-1" stroke="none" stroke-width="1" fill="none" fill-rule="evenodd">
        <g id="Types-Icons" transform="translate(-754.000000, -1482.000000)">
            <g id="icn-mobile" transform="translate(754.000000, 1482.000000)">
                <rect id="bg" fill="#243238" x="0" y="0" width="30" height="30" rx="3.75"></rect>
                <path d="M10.0166668,11.1575 C10.3491668,10.92 10.7250001,10.81 11.0933335,10.81 C11.8800001,10.81 12.6366668,11.31 12.8850001,12.1425 C12.5666668,11.8975 12.1933334,11.7783333 11.8175001,11.7783333 C11.4358335,11.7783333 11.0516668,11.9008333 10.7166668,12.14 C10.0508335,12.615 9.75583347,13.4241667 10.0125001,14.1908333 C8.97750014,13.4491667 8.97333348,11.9016667 10.0166668,11.1575 L10.0166668,11.1575 Z M13.1341668,21.7991667 C13.9625001,22.0775 16.5266667,22.7875 19.4966667,25 L25,21.075 C23.5725,19.0733333 23.9658333,17.6733333 22.5475,15.685 C21.5791667,14.3283333 21.025,14.3066667 20.0166667,14.4916667 L20.5158334,15.1916667 C20.8166667,15.6141667 20.1783334,16.0666667 19.8791667,15.645 L19.4341667,15.02 C19.0716667,14.5125 18.3683334,14.8291667 17.7233334,14.9775 L18.3291667,15.8266667 C18.6291667,16.2475 17.9933334,16.7025 17.6925001,16.28 L17.1683334,15.545 C16.7966667,15.0233333 16.0700001,15.3716667 15.4225001,15.5366667 L16.0633334,16.435 C16.3658334,16.8583333 15.7258334,17.3091667 15.4266668,16.8883333 L12.8283334,13.25 C12.0216668,12.1183333 10.2550001,13.3191667 11.0900001,14.4908333 L14.9275001,19.8725 C14.5158334,19.72 13.7916668,19.5816667 13.3191668,19.5816667 C11.8575001,19.5816667 11.2950001,21.1816667 13.1341668,21.7991667 L13.1341668,21.7991667 Z M10.9707031,21.9996338 L6.66666683,21.9996338 L6.66666683,8.33333333 L15.0000001,8.33333333 L15.0000001,13.9066667 L16.6666667,13.5141667 L16.6666667,6.66666667 C16.6666667,5.74666667 15.9208334,5 15.0000001,5 L6.66666683,5 C5.74583351,5 5.00000018,5.74666667 5.00000018,6.66666667 L5.00000018,23.6607666 C5.00000018,24.5014648 5.66540527,25 6.66666683,25 L10.8375001,25 C12.0531138,25 16.6666667,25 16.6666667,25 C16.6666667,25 15.6017041,24.3629199 15.0000001,24.0993652 C13.2325001,23.3110319 11.3748779,22.7337646 10.9707031,21.9996338 Z" id="Shape" fill="#FFFFFF" fill-rule="nonzero"></path>
            </g>
        </g>
    </g>
</svg>