<?xml version="1.0" encoding="UTF-8"?>
<svg width="30px" height="30px" viewBox="0 0 30 30" version="1.1" xmlns="http://www.w3.org/2000/svg" xmlns:xlink="http://www.w3.org/1999/xlink">
    <!-- Generator: Sketch 45.1 (43504) - http://www.bohemiancoding.com/sketch -->
    <title>icn-turnkey, cms</title>
    <desc>Created with Sketch.</desc>
    <defs></defs>
    <g id="Page-1" stroke="none" stroke-width="1" fill="none" fill-rule="evenodd">
        <g id="Types-Icons" transform="translate(-992.000000, -780.000000)">
            <g id="icn-turnkey,-cms" transform="translate(992.000000, 780.000000)">
                <rect id="bg" fill="#243238" x="0" y="0" width="30" height="30" rx="3"></rect>
                <g id="iconmonstr-key-2-icon" transform="translate(5.000000, 5.000000)" fill="#FFFFFF">
                    <path d="M11.4819903,13.1303883 L9.28228155,15.3300971 L7.15252427,15.3300971 L7.15262136,17.4598058 L4.93194175,17.4597573 L4.93194175,19.4667961 L0.0773786408,19.4667476 L7.36271845,12.1815049 C7.14048544,11.9540291 6.87432039,11.6285437 6.6981068,11.3357282 L0,18.0338835 L0,16.0465534 L7.07456311,8.97199029 C7.87252427,10.8735922 9.45208738,12.4128641 11.4819903,13.1303883 L11.4819903,13.1303883 Z M18.2352427,1.81257282 C20.588301,4.16563107 20.5882039,7.98072816 18.2351456,10.3336893 C15.8818932,12.6868932 12.0671359,12.6868932 9.71393204,10.3337379 C7.36087379,7.98072816 7.3607767,4.16567961 9.71393204,1.81252427 C12.0669903,-0.540533981 15.8821359,-0.540533981 18.2352427,1.81257282 L18.2352427,1.81257282 Z M17.0257282,3.01771845 C16.4420874,2.43417476 15.4958252,2.43417476 14.9122816,3.01771845 C14.3287379,3.60131068 14.3287379,4.5476699 14.9122816,5.13121359 C15.4958252,5.71475728 16.4420874,5.71475728 17.0257282,5.13116505 C17.6094175,4.54757282 17.6092233,3.60135922 17.0257282,3.01771845 L17.0257282,3.01771845 Z" id="key-2-icon"></path>
                </g>
            </g>
        </g>
    </g>
</svg>