<?xml version="1.0" encoding="UTF-8"?>
<svg width="30px" height="30px" viewBox="0 0 30 30" version="1.1" xmlns="http://www.w3.org/2000/svg" xmlns:xlink="http://www.w3.org/1999/xlink">
    <!-- Generator: Sketch 45.1 (43504) - http://www.bohemiancoding.com/sketch -->
    <title>icn-monstroid</title>
    <desc>Created with Sketch.</desc>
    <defs>
        <rect id="path-1" x="0" y="0" width="30" height="30" rx="3.75"></rect>
    </defs>
    <g id="Page-1" stroke="none" stroke-width="1" fill="none" fill-rule="evenodd">
        <g id="Types-Icons" transform="translate(-40.000000, -1482.000000)">
            <g id="icn-monstroid" transform="translate(40.000000, 1482.000000)">
                <g id="bg">
                    <use fill="#FFFFFF" fill-rule="evenodd" xlink:href="#path-1"></use>
                    <rect stroke="#67B2E2" stroke-width="1" x="0.5" y="0.5" width="29" height="29" rx="3.75"></rect>
                </g>
                <g id="Monster" transform="translate(2.000000, 5.000000)">
                    <path d="M13.03,20.2435 C13.03375,20.229625 13.021375,20.222125 13.016875,20.20975 C13.012,20.189125 12.988375,20.18125 12.98575,20.159875 C12.964375,20.078125 12.919375,20.006875 12.877,19.93375 C12.725875,19.615 12.5605,19.30375 12.409375,18.985 C12.293125,18.73825 12.16675,18.499 12.047875,18.254875 C11.774125,17.692375 11.495125,17.13175 11.219125,16.570375 C10.953625,16.030375 10.687375,15.49225 10.422625,14.950375 C10.222375,14.543875 10.01875,14.135875 9.821125,13.726375 C9.816625,13.71775 9.81175,13.70875 9.807625,13.698625 C9.78625,13.64725 9.79375,13.63375 9.849625,13.6285 C10.039,13.61275 10.228375,13.610875 10.417375,13.60375 C10.70425,13.590625 10.991125,13.585 11.27725,13.568125 C11.39125,13.560625 11.506,13.560625 11.62,13.557625 C11.782375,13.55275 11.945125,13.547875 12.1075,13.539625 C12.3685,13.528375 12.629875,13.52575 12.889,13.505875 C13.000375,13.498375 13.11325,13.498375 13.224625,13.496125 C13.391125,13.490125 13.558375,13.484875 13.726375,13.47625 C13.981375,13.4665 14.23825,13.465 14.495125,13.44475 C14.606125,13.4365 14.71825,13.43725 14.830375,13.4335 C15.002875,13.428625 15.17275,13.421125 15.344125,13.41475 C15.573625,13.4095 15.80425,13.398625 16.033,13.3915 C16.23175,13.384 16.43125,13.370125 16.630375,13.36975 C16.684,13.367875 16.739875,13.37725 16.793875,13.363375 C16.814875,13.358125 16.834,13.356625 16.853875,13.361125 C16.861375,13.361875 16.866625,13.364875 16.871875,13.368625 C16.883875,13.38925 16.86925,13.403125 16.861375,13.418125 C16.535875,13.991875 16.216375,14.57125 15.893875,15.147625 C15.590125,15.686875 15.288625,16.226125 14.987125,16.765375 C14.7085,17.264875 14.429875,17.762875 14.150875,18.260125 L13.29775,19.787875 L13.06375,20.204125 C13.05625,20.216125 13.048,20.228125 13.04125,20.23975 C13.036,20.2435 13.032625,20.2435 13.0285,20.2435 L13.03,20.2435 Z M0.481,0.766 C0.67975,0.838 0.8785,0.91075 1.07875,0.97975 C2.355625,1.429 3.633625,1.879 4.9105,2.327125 L7.0885,3.092125 L7.11625,3.103375 C7.11325,3.137125 7.0825,3.129625 7.06375,3.140875 C6.9625,3.170875 6.859375,3.197125 6.757,3.222625 C6.062125,3.395125 5.3695,3.575125 4.675,3.750625 C4.42375,3.814375 4.1725,3.875875 3.92125,3.941875 C3.89275,3.941125 3.8785,3.9205 3.8665,3.897625 C3.8365,3.845125 3.79225,3.805 3.75025,3.762625 C3.60775,3.6115 3.463,3.463375 3.32425,3.308125 C3.258625,3.235375 3.190375,3.165625 3.1225,3.095125 C2.9575,2.922625 2.7895,2.752 2.633125,2.573125 C2.413375,2.321125 2.146375,2.126875 1.886875,1.924375 C1.542625,1.6555 1.198375,1.388125 0.854125,1.118875 C0.832375,1.101625 0.81175,1.081375 0.782875,1.073875 C0.760375,1.0675 0.74275,1.054375 0.726625,1.03825 C0.644875,0.95575 0.55975,0.874 0.479125,0.79 L0.473875,0.79075 L0.4675,0.79075 C0.473875,0.78325 0.45625,0.7645 0.481,0.766 L0.481,0.766 Z M18.965125,3.10375 C19.070125,3.053125 19.181125,3.02275 19.29025,2.98375 C20.17525,2.6725 21.06025,2.362375 21.946375,2.0515 C22.92325,1.708375 23.900875,1.36525 24.878875,1.0225 C25.099,0.9445 25.319875,0.86725 25.540375,0.788875 C25.558,0.782875 25.574125,0.773875 25.590625,0.766375 C25.61425,0.7645 25.598125,0.784 25.602625,0.79075 L25.591375,0.79075 C25.510375,0.87475 25.426375,0.95575 25.343875,1.039 C25.328125,1.055125 25.310125,1.069 25.287625,1.074625 C25.178875,1.13725 25.08775,1.221625 24.9895,1.296625 C24.64975,1.559125 24.31075,1.825375 23.9725,2.089 C23.82775,2.2015 23.68,2.31025 23.55475,2.44675 C23.3395,2.683 23.11525,2.910625 22.900375,3.148 C22.836625,3.220375 22.7665,3.28975 22.697875,3.361 C22.5715,3.49375 22.450375,3.631 22.317625,3.757375 C22.283875,3.808 22.229875,3.8425 22.202125,3.89875 C22.191625,3.920125 22.175875,3.933625 22.151125,3.9325 C21.989125,3.898 21.83125,3.85375 21.671125,3.81325 C20.976625,3.6385 20.284375,3.46075 19.589875,3.2845 C19.385875,3.233875 19.18225,3.185875 18.980125,3.127 C18.97075,3.122125 18.962875,3.11575 18.965125,3.103375 L18.965125,3.10375 Z" id="Shape" fill="#65B2E3"></path>
                    <path d="M21.18175,14.1085 C21.160375,14.125375 21.18025,14.151625 21.168625,14.171125 C21.140125,14.189125 21.110125,14.179375 21.078625,14.174875 L19.094125,13.803625 C18.387625,13.670125 17.680375,13.53925 16.973875,13.406125 C16.946125,13.398625 16.917625,13.397875 16.891375,13.383625 C16.865875,13.361125 16.881625,13.334875 16.889125,13.311625 C16.89775,13.2835 16.909,13.256875 16.922125,13.229125 C17.045125,12.995125 17.162125,12.756625 17.282125,12.520375 L18.083875,10.937125 C18.377875,10.356625 18.6715,9.77575 18.966625,9.195625 C19.07275,8.989375 19.1755,8.7805 19.281625,8.573125 C19.468,8.215375 19.645375,7.851625 19.83025,7.493125 C19.97275,7.2175 20.10475,6.938125 20.25025,6.664375 C20.392,6.398125 20.521,6.125125 20.65825,5.85625 C20.795875,5.577625 20.94325,5.3035 21.08575,5.0275 C21.107125,4.985125 21.13075,4.945 21.15475,4.906 C21.163375,4.88875 21.17725,4.861 21.20425,4.891 C21.217,4.92025 21.214375,4.95175 21.214375,4.982875 C21.214375,6.137125 21.224875,7.29175 21.21175,8.446 C21.193,9.97675 21.2125,11.50825 21.19975,13.040875 C21.197875,13.344625 21.18925,13.64725 21.1885,13.952125 C21.1885,13.982125 21.185875,14.013625 21.19225,14.044375 C21.1945,14.064625 21.19225,14.088625 21.1825,14.108875 L21.18175,14.1085 Z" id="Shape" fill="#144B93"></path>
                    <path d="M16.885,13.375 C17.007625,13.39675 17.1325,13.41625 17.25475,13.43875 C17.553625,13.495 17.85175,13.55275 18.149125,13.609375 C18.445375,13.664875 18.741625,13.72075 19.037875,13.777375 C19.440625,13.852375 19.842625,13.92625 20.244625,14.000125 L21.133375,14.168875 C21.14575,14.171125 21.15775,14.17 21.170125,14.171125 C20.828125,14.4235 20.487625,14.677375 20.145625,14.931625 C18.114625,16.444375 16.08625,17.956375 14.055625,19.469875 C13.725625,19.717375 13.395625,19.961125 13.065625,20.2075 C13.046875,20.1925 13.064125,20.18275 13.0705,20.1715 L14.1805,18.18775 C14.460625,17.68525 14.74,17.1835 15.0205,16.68175 C15.33925,16.1095 15.660625,15.54175 15.97825,14.969125 C16.242625,14.496625 16.505875,14.022625 16.770625,13.5505 C16.804375,13.49125 16.831375,13.4305 16.875625,13.378 C16.87675,13.37275 16.880125,13.371625 16.885375,13.37575 L16.885,13.375 Z" id="Shape" fill="#476EB5"></path>
                    <path d="M21.18175,14.1085 C21.18175,14.08825 21.18175,14.06725 21.18025,14.046625 C21.172,13.930375 21.1825,13.813375 21.19225,13.69975 C21.2215,13.382875 21.254875,13.068625 21.286,12.751 C21.317875,12.440875 21.3475,12.13075 21.3775,11.821 C21.40375,11.551 21.428875,11.281 21.45625,11.0095 C21.48625,10.6975 21.51625,10.385875 21.548125,10.0735 C21.574375,9.808 21.599125,9.54175 21.62575,9.2755 C21.6565,8.96125 21.6895,8.6455 21.7195,8.332375 C21.744625,8.060875 21.772,7.788625 21.7975,7.517875 C21.8275,7.206625 21.8575,6.8935 21.88975,6.580375 C21.920875,6.272875 21.95125,5.96425 21.9805,5.65525 C22.011625,5.33875 22.04425,5.02375 22.0735,4.7065 C22.094875,4.475875 22.12225,4.2475 22.139125,4.019125 C22.14175,3.994375 22.146625,3.969625 22.151125,3.946375 C22.151125,3.938875 22.154875,3.932125 22.158625,3.925375 C22.171375,3.914125 22.18375,3.901375 22.196125,3.889375 C22.229125,3.838375 22.286875,3.808 22.316875,3.755125 C22.39075,3.691375 22.463125,3.625375 22.535125,3.560875 C22.663375,3.444625 22.789375,3.3265 22.917625,3.21025 C23.100625,3.04525 23.279875,2.8765 23.462875,2.7115 C23.57425,2.61025 23.684125,2.50675 23.795875,2.405875 C23.97025,2.246125 24.144625,2.087125 24.31825,1.928875 C24.43075,1.827625 24.540625,1.726375 24.652,1.624375 C24.8545,1.438375 25.0555,1.25125 25.26325,1.073125 C25.269625,1.065625 25.27825,1.064125 25.284625,1.061875 C25.367125,1.008625 25.421125,0.924625 25.495375,0.862375 C25.525375,0.838375 25.545625,0.80425 25.585375,0.791875 C25.453,1.193125 25.323625,1.595875 25.190125,1.997125 C24.032125,5.497375 22.87375,8.9995 21.716875,12.499375 C21.54325,13.020625 21.371875,13.542625 21.199375,14.064625 C21.199375,14.080375 21.202375,14.102125 21.182125,14.110375 L21.18175,14.1085 Z" id="Shape" fill="#295BAA"></path>
                    <path d="M4.902625,14.183875 C4.898875,14.167 4.894,14.150125 4.89025,14.134375 C4.892875,13.8175 4.898875,13.504375 4.89625,13.18675 C4.89625,13.15525 4.897,13.123 4.886125,13.090375 C4.878625,13.050625 4.8805,13.010875 4.8805,12.970375 C4.8805,12.134125 4.8895,11.29675 4.878625,10.460125 C4.85725,8.891875 4.878625,7.322875 4.86625,5.755375 C4.863625,5.4955 4.859875,5.237875 4.85725,4.978375 C4.8565,4.944625 4.8535,4.9135 4.86625,4.882 C4.879375,4.858375 4.89475,4.865125 4.910125,4.87975 C4.926625,4.89625 4.935625,4.915375 4.946125,4.936 C5.10175,5.23975 5.262625,5.53825 5.413,5.844625 C5.614,6.24325 5.816875,6.6415 6.017875,7.040875 C6.089125,7.181875 6.163375,7.322875 6.235375,7.465375 C6.443125,7.881625 6.655375,8.29525 6.865375,8.70925 C7.007875,8.98825 7.144375,9.27175 7.291375,9.55 C7.448875,9.847 7.5925,10.151875 7.747375,10.45 C8.032375,11.00275 8.309875,11.56075 8.593,12.115 C8.74075,12.40375 8.884375,12.69325 9.03175,12.983125 C9.073,13.063375 9.1255,13.142125 9.15325,13.229875 C9.16075,13.259875 9.173875,13.289875 9.184375,13.320625 C9.191875,13.342 9.20425,13.365625 9.182125,13.385875 C9.058375,13.427125 8.928625,13.44475 8.801125,13.470625 C7.610875,13.70425 6.41875,13.9345 5.227375,14.167 C5.155,14.1805 5.08375,14.197 5.011,14.2075 C4.972,14.21125 4.934875,14.212375 4.90375,14.183875 L4.902625,14.183875 Z" id="Shape" fill="#476EB5"></path>
                    <path d="M4.902625,13.09375 C4.917625,13.111 4.912375,13.132375 4.913125,13.1515 C4.913125,13.39375 4.918375,13.636 4.9105,13.877125 C4.9075,13.961875 4.913125,14.049625 4.89025,14.134375 L4.2865,12.30925 L1.06375,2.5645 C0.871,1.98175 0.6775,1.39825 0.485125,0.815125 L0.479875,0.7915 C0.550375,0.82975 0.599125,0.893875 0.656125,0.949 C0.697375,0.98725 0.730375,1.0345 0.781,1.06225 C0.842125,1.0975 0.88975,1.147375 0.94075,1.19275 L1.432,1.641625 C1.594,1.788625 1.75525,1.934125 1.9165,2.081125 C2.02525,2.179375 2.13325,2.278375 2.240875,2.377375 C2.42275,2.54425 2.6035,2.710375 2.78575,2.876125 C2.89825,2.98 3.01075,3.082375 3.1225,3.18625 C3.311875,3.36025 3.499,3.536125 3.69025,3.706375 C3.709,3.72325 3.724,3.741625 3.74275,3.757 C3.782875,3.803875 3.834625,3.8395 3.8695,3.890875 C3.883,3.905125 3.89575,3.920875 3.91075,3.935875 C3.9235,3.94225 3.93925,3.943375 3.9445,3.9595 C3.9715,4.130875 3.983875,4.3045 4.00075,4.477 C4.018375,4.665625 4.03825,4.853125 4.0555,5.042125 C4.080625,5.317375 4.11025,5.59075 4.135375,5.864125 C4.157875,6.08725 4.180375,6.310375 4.20175,6.53425 C4.228,6.81025 4.25575,7.08475 4.283125,7.361875 C4.313125,7.67425 4.343125,7.986625 4.375,8.299375 C4.40575,8.607625 4.435,8.9155 4.46575,9.224125 L4.55875,10.173625 L4.6495,11.099125 C4.681,11.410375 4.711375,11.719 4.741375,12.03025 C4.771375,12.34825 4.805875,12.662875 4.834375,12.980125 C4.849375,13.159375 4.874125,13.34125 4.885,13.522375 C4.88875,13.592875 4.8925,13.664875 4.89325,13.736125 C4.89475,13.75225 4.891,13.769875 4.89925,13.79875 C4.898125,13.79275 4.9045,13.78825 4.901875,13.784875 C4.885375,13.771 4.898125,13.749625 4.894375,13.732375 C4.885375,13.552375 4.877125,13.37125 4.8805,13.187125 C4.882,13.153375 4.8745,13.118125 4.903,13.092625 L4.902625,13.09375 Z" id="Shape" fill="#295BAA"></path>
                    <path d="M4.902625,14.183875 C4.978375,14.219125 5.051125,14.180125 5.122375,14.167 C5.654125,14.06575 6.184375,13.95925 6.715375,13.854625 C7.153375,13.769125 7.591,13.685875 8.027875,13.599625 C8.406625,13.52575 8.783875,13.45075 9.161875,13.376875 C9.169375,13.375 9.177625,13.376875 9.185875,13.375 C9.19075,13.3705 9.196375,13.369375 9.20275,13.37125 C9.25,13.39375 9.26275,13.44325 9.284125,13.48225 C9.583,14.02 9.88525,14.557 10.18525,15.09475 C10.48525,15.629875 10.78525,16.1635 11.0845,16.700875 C11.4055,17.274625 11.727625,17.849875 12.04825,18.425125 C12.28525,18.85 12.52225,19.276375 12.763,19.699375 C12.8095,19.778125 12.844,19.863625 12.891625,19.942375 C12.924625,20.01475 12.973375,20.078125 12.9955,20.156125 C13.000375,20.174875 13.02175,20.186125 13.018,20.209375 C12.73075,19.99675 12.44425,19.785625 12.157375,19.572625 C10.86625,18.614125 9.5755,17.65375 8.284375,16.6945 C7.181125,15.875125 6.077875,15.05575 4.976875,14.235625 C4.95175,14.218 4.910875,14.22175 4.903,14.183125 L4.902625,14.183875 Z" id="Shape" fill="#6091CC"></path>
                    <path d="M8.81875,1.80775 L8.891125,1.807 L17.175625,1.807 C17.201875,1.807 17.228125,1.80775 17.25325,1.80925 C17.266375,1.83625 17.24575,1.85125 17.231875,1.86925 C16.9045,2.29675 16.579375,2.725375 16.253125,3.152875 C16.025875,3.449875 15.800125,3.7465 15.573625,4.043875 C15.43375,4.229125 15.290875,4.412125 15.1525,4.598875 C15.09625,4.675 15.059875,4.7665 14.98375,4.82875 C14.8945,4.913125 14.82325,5.0125 14.744875,5.10625 C14.468875,5.43325 14.198125,5.764 13.923625,6.091375 C13.653625,6.415375 13.385875,6.74125 13.11475,7.06525 C13.10875,7.07125 13.10575,7.078375 13.09975,7.0855 C13.05175,7.139875 13.0285,7.139875 12.9835,7.084375 C12.91975,7.005625 12.856,6.925375 12.79225,6.845875 C12.257125,6.170125 11.718625,5.495875 11.18275,4.820875 C10.669,4.174375 10.1545,3.528625 9.64225,2.881375 C9.596125,2.82325 9.550375,2.766625 9.50425,2.71 C9.421,2.59975 9.3325,2.491375 9.246625,2.38375 C9.242875,2.378875 9.239875,2.3755 9.23725,2.370625 C9.227125,2.35075 9.2125,2.33575 9.197875,2.32075 C9.194125,2.317 9.191125,2.31325 9.1885,2.308375 C9.179125,2.288875 9.16375,2.274625 9.145375,2.264125 C9.07225,2.192125 9.017125,2.106625 8.956,2.02525 C8.917,1.9735 8.881,1.91875 8.842,1.86625 C8.83075,1.8505 8.812,1.83325 8.8195,1.80775 L8.81875,1.80775 Z" id="Shape" fill="#65B2E3"></path>
                    <path d="M14.9815,4.819375 C15.173875,4.543 15.377875,4.276375 15.582625,4.008625 C15.917125,3.571 16.250125,3.13225 16.584625,2.693125 C16.798375,2.410375 17.015875,2.127625 17.2315,1.845625 C17.239,1.834375 17.2465,1.82125 17.252875,1.81 C17.279875,1.789 17.294125,1.816375 17.311,1.82875 C17.833,2.23375 18.35575,2.6425 18.8785,3.0475 C18.90475,3.068875 18.928,3.09625 18.964,3.10525 C18.9685,3.110125 18.972625,3.1135 18.977875,3.118375 C19.099,3.185875 19.200625,3.281125 19.310875,3.365875 C19.689625,3.65725 20.06575,3.9535 20.44225,4.247875 C20.6785,4.432375 20.917,4.61425 21.151,4.800625 C21.163375,4.811875 21.18475,4.818625 21.18325,4.841875 C21.1645,4.867 21.1345,4.871125 21.10825,4.879375 L19.75825,5.29675 C19.2055,5.467375 18.653125,5.6395 18.099625,5.8105 C17.668375,5.94475 17.239375,6.07675 16.808125,6.211 C16.40425,6.3355 16.002625,6.46075 15.59875,6.586 C15.5845,6.58975 15.5725,6.5935 15.55675,6.5935 C15.523,6.586 15.493,6.598 15.46,6.60775 C15.4015,6.6265 15.34,6.638875 15.28225,6.6565 C14.8435,6.7765 14.403625,6.887875 13.963,7.003375 C13.7575,7.056625 13.552,7.11025 13.3465,7.16575 C13.337125,7.16875 13.326625,7.17325 13.3165,7.17325 C13.300375,7.175125 13.28275,7.18375 13.27075,7.167625 C13.256875,7.149625 13.27075,7.132375 13.2805,7.118125 C13.348,7.018375 13.421875,6.923125 13.492375,6.825625 C13.936375,6.223 14.377375,5.618125 14.82175,5.014375 C14.87425,4.945375 14.923,4.8775 14.9815,4.819375 L14.9815,4.819375 Z" id="Shape" fill="#476EB5"></path>
                    <path d="M8.81875,1.80775 C8.93125,1.9585 9.03025,2.119 9.157,2.26 C9.172,2.27425 9.1855,2.2915 9.19675,2.3095 L9.19675,2.30875 C9.210625,2.33125 9.232375,2.347 9.2455,2.371 C9.332875,2.48725 9.424375,2.59975 9.51175,2.714875 C9.802,3.0835 10.08175,3.458875 10.366,3.832375 C10.92025,4.562125 11.473375,5.291875 12.0265,6.021625 C12.298375,6.37975 12.569125,6.737875 12.84175,7.093375 C12.848125,7.100875 12.8545,7.11025 12.85975,7.11775 C12.866125,7.12975 12.87925,7.142125 12.86725,7.15675 C12.858625,7.1695 12.84325,7.166875 12.828625,7.16425 C12.753625,7.14775 12.67975,7.12375 12.60475,7.101625 C11.95225,6.910375 11.3005,6.72175 10.64875,6.529375 C9.96625,6.329125 9.281875,6.13075 8.598625,5.9305 C8.066125,5.774125 7.533625,5.62 7.001125,5.46475 C6.638875,5.35825 6.276625,5.25475 5.91475,5.146 C5.73025,5.08975 5.544625,5.038 5.35975,4.983625 C5.338375,4.976875 5.317375,4.967875 5.294125,4.972375 C5.278,4.9735 5.264125,4.968625 5.251,4.957375 C5.174875,4.919875 5.0935,4.8955 5.008375,4.886125 C4.96825,4.882375 4.929625,4.874875 4.898875,4.845625 C4.8865,4.821625 4.904125,4.81 4.920625,4.796125 C5.318125,4.4905 5.713,4.180375 6.108625,3.873625 C6.409375,3.63925 6.70975,3.404875 7.00975,3.16975 C7.0285,3.15475 7.05325,3.146125 7.06675,3.12475 L7.11625,3.10225 C7.3375,2.93125 7.560625,2.761 7.782625,2.5885 C8.11375,2.331625 8.444125,2.07325 8.7745,1.816 C8.788375,1.8085 8.799625,1.794625 8.818375,1.8085 L8.81875,1.80775 Z" id="Shape" fill="#6091CC"></path>
                    <path d="M16.860625,13.37425 C16.83925,13.375375 16.819375,13.37725 16.797625,13.378 C16.739875,13.3855 16.681375,13.380625 16.622125,13.38325 C14.20075,13.41325 11.77825,13.389625 9.3565,13.397125 C9.316,13.397125 9.27475,13.400125 9.235,13.39075 C9.185125,13.37575 9.20875,13.344625 9.22375,13.3195 C9.296875,13.1995 9.37375,13.0825 9.449875,12.96325 C9.753625,12.484375 10.058875,12.007 10.361875,11.527 C10.422625,11.43325 10.484125,11.33875 10.542625,11.243125 C10.555,11.2225 10.569625,11.201875 10.597375,11.198125 C10.721125,11.223625 10.83925,11.2705 10.958125,11.312875 C11.13325,11.375875 11.3095,11.432875 11.485,11.492875 C12.00625,11.67025 12.52675,11.850625 13.04875,12.029125 C13.610125,12.220375 14.173,12.41425 14.7325,12.604375 C15.1585,12.752875 15.585625,12.898 16.01275,13.04425 C16.287625,13.1365 16.56025,13.234375 16.83475,13.324 C16.855,13.336375 16.867375,13.3495 16.861,13.3735 L16.860625,13.37425 Z" id="Shape" fill="#525A6F"></path>
                    <path d="M9.209875,13.375 C9.236125,13.375 9.263125,13.376875 9.288625,13.376875 L16.50625,13.376875 L16.627375,13.378 C16.633375,13.38175 16.63375,13.38325 16.633375,13.3855 C16.63075,13.38775 16.628125,13.38925 16.627,13.38925 C16.34725,13.39675 16.066375,13.4035 15.78475,13.4155 C15.57475,13.425625 15.366625,13.433125 15.155875,13.4395 C14.936875,13.447 14.717125,13.456375 14.497375,13.46575 C14.283625,13.4725 14.069875,13.48075 13.85725,13.48825 C13.642,13.49575 13.426,13.504375 13.21225,13.512625 C13.00075,13.52125 12.79,13.52875 12.5785,13.536625 C12.361,13.544125 12.1435,13.5535 11.926,13.561 C11.714875,13.5685 11.504125,13.578625 11.29225,13.585 C11.07475,13.5925 10.858,13.6015 10.63975,13.60975 C10.430875,13.61725 10.222,13.62925 10.012,13.63225 C9.9445,13.634125 9.875875,13.645375 9.806875,13.642375 C9.802375,13.66675 9.8155,13.6825 9.82375,13.6975 L10.35475,14.77225 L11.18725,16.46125 C11.317,16.7245 11.446,16.99 11.576125,17.25175 L12.411625,18.946 C12.541375,19.2085 12.670375,19.47325 12.8005,19.7365 C12.83275,19.80025 12.8635,19.868875 12.89425,19.934125 C12.899875,19.9465 12.893125,19.949125 12.883,19.9465 L12.06775,18.4915 L11.04625,16.66675 C10.744,16.127875 10.444375,15.588625 10.144,15.049375 C9.84025,14.504125 9.53425,13.96 9.230125,13.4155 C9.2215,13.39825 9.2095,13.3855 9.19525,13.37425 C9.200125,13.37275 9.204625,13.371625 9.21025,13.37575 L9.209875,13.375 Z" id="Shape" fill="#B3DEF6"></path>
                    <path d="M16.860625,13.37425 C16.853125,13.36375 16.844125,13.35175 16.837,13.339 C16.801375,13.3165 16.7905,13.27525 16.763875,13.244125 C16.422625,12.70975 16.08325,12.175375 15.743125,11.640625 C15.49375,11.248375 15.240625,10.857625 14.993125,10.465375 C14.65675,9.93475 14.318125,9.407875 13.980625,8.8765 C13.76425,8.533 13.545625,8.19175 13.32625,7.849 C13.235125,7.7065 13.145125,7.564 13.05325,7.4215 C13.045,7.407625 13.0345,7.3945 13.0345,7.37725 C13.06975,7.331125 13.118125,7.32325 13.171375,7.32775 C13.176625,7.330375 13.1815,7.33375 13.186375,7.337125 C13.2775,7.457125 13.35025,7.584625 13.430875,7.711375 C13.624,8.015125 13.818625,8.319625 14.012125,8.624875 C14.289625,9.059875 14.566,9.496375 14.842,9.930625 C15.082,10.307875 15.320125,10.68625 15.56125,11.060875 C15.873625,11.549875 16.1845,12.03775 16.495,12.527125 C16.6225,12.729625 16.75075,12.931 16.87975,13.130125 C16.9015,13.163125 16.927,13.193125 16.9315,13.234375 C16.91425,13.281625 16.89775,13.328875 16.881625,13.376875 C16.877875,13.376875 16.874875,13.378 16.873,13.379875 C16.870375,13.37725 16.8655,13.376125 16.861,13.374625 L16.860625,13.37425 Z" id="Shape" fill="#FFFFFF"></path>
                    <path d="M12.883,19.95025 C12.8875,19.94425 12.8905,19.94275 12.896125,19.9375 C12.937375,20.00875 12.99625,20.0725 13.004875,20.156875 C12.96475,20.087125 12.9235,20.018125 12.883,19.950625 L12.883,19.95025 Z" id="Shape" fill="#8DC8ED"></path>
                    <path d="M16.62775,13.3885 C16.62775,13.38475 16.628875,13.381 16.628875,13.378 L16.81525,13.378 C16.754125,13.4005 16.69,13.38475 16.62775,13.3885 L16.62775,13.3885 Z" id="Shape" fill="#85C6ED"></path>
                    <path d="M7.0675,3.12775 C7.062625,3.17725 7.015,3.18775 6.98425,3.211 C6.566875,3.539875 6.14725,3.86725 5.726875,4.19275 C5.45575,4.40275 5.183125,4.610875 4.912,4.82125 C4.90675,4.826125 4.9045,4.835125 4.90075,4.84225 C4.897,4.847125 4.892125,4.84975 4.88575,4.84975 C4.677625,4.63525 4.449625,4.4425 4.23325,4.23625 C4.132,4.14175 4.024375,4.053625 3.9325,3.949 C3.922375,3.949 3.913,3.946375 3.91,3.9355 C4.051,3.883 4.19875,3.85675 4.345,3.81925 C5.245,3.587875 6.147625,3.359125 7.04875,3.131125 C7.054375,3.128875 7.06075,3.128125 7.0675,3.127375 L7.0675,3.12775 Z" id="Shape" fill="#476EB5"></path>
                    <path d="M3.73525,3.766375 C3.3055,3.372625 2.874625,2.979625 2.44525,2.585125 C1.90525,2.090875 1.364125,1.597375 0.82375,1.103875 C0.80875,1.089625 0.79525,1.074625 0.780625,1.06075 C0.860125,1.08775 0.914875,1.1515 0.97825,1.19875 C1.215625,1.379875 1.45075,1.5655 1.6855,1.748875 C1.91425,1.92625 2.1505,2.098375 2.37025,2.288125 C2.518,2.415625 2.64475,2.565625 2.779,2.707375 C2.85025,2.7835 2.9185,2.861125 2.990125,2.936875 C3.161875,3.119125 3.335875,3.29875 3.507625,3.4825 C3.592375,3.5725 3.676375,3.663625 3.76075,3.75475 C3.76075,3.7765 3.7495,3.7735 3.73525,3.766 L3.73525,3.766375 Z" id="Shape" fill="#B3DEF6"></path>
                    <path d="M3.73525,3.7675 C3.745375,3.76525 3.75775,3.76525 3.763375,3.75325 C3.807625,3.800125 3.863875,3.837625 3.88225,3.90325 C3.828625,3.86275 3.7795,3.818875 3.734875,3.7675 L3.73525,3.7675 Z" id="Shape" fill="#86C3EB"></path>
                    <path d="M21.185125,4.831375 C21.106375,4.799125 21.050125,4.736125 20.9845,4.685125 C20.5795,4.37275 20.175625,4.057375 19.7725,3.743125 C19.5175,3.544375 19.2625,3.34675 19.00675,3.148 C18.996625,3.1405 18.988,3.127 18.979,3.116875 C19.18525,3.161875 19.38775,3.218125 19.592875,3.2695 C20.053375,3.386875 20.51425,3.502 20.97475,3.61825 C21.3625,3.71575 21.74875,3.814375 22.13725,3.913375 C22.145875,3.915625 22.156,3.920875 22.164625,3.924625 C22.163875,3.929875 22.1635,3.932125 22.1635,3.936625 C22.12525,4.004875 22.06225,4.050625 22.00525,4.101625 L21.601375,4.472875 C21.482125,4.583125 21.360625,4.692625 21.244375,4.805875 C21.232,4.817125 21.219625,4.826875 21.203125,4.831 C21.1975,4.83475 21.191875,4.83475 21.1855,4.831 L21.185125,4.831375 Z" id="Shape" fill="#6091CC"></path>
                    <path d="M25.29025,1.06 C25.06525,1.26775 24.841,1.47475 24.61525,1.680625 C24.2005,2.0605 23.784625,2.43925 23.3695,2.8195 C23.052625,3.10975 22.73725,3.40075 22.42,3.691375 C22.391125,3.717625 22.36,3.740875 22.331125,3.764875 C22.316125,3.774625 22.3075,3.773125 22.3075,3.753625 C22.398625,3.658 22.4875,3.560875 22.579,3.464875 C22.74775,3.2875 22.9165,3.11125 23.08375,2.933125 C23.228875,2.779375 23.374,2.625625 23.51575,2.468125 C23.689,2.276125 23.900875,2.129875 24.101875,1.971625 C24.431125,1.712125 24.761125,1.454875 25.093375,1.199875 C25.155625,1.151125 25.209625,1.087375 25.289875,1.061125 L25.29025,1.06 Z" id="Shape" fill="#B3DEF6"></path>
                    <path d="M22.320625,3.7525 C22.327,3.76375 22.335625,3.76525 22.34575,3.76525 C22.30675,3.82225 22.25425,3.861625 22.201375,3.904 C22.182625,3.889 22.197625,3.88075 22.207375,3.872875 L22.320625,3.752875 L22.320625,3.7525 Z" id="Shape" fill="#8BC6EC"></path>
                    <path d="M16.933,13.231375 C16.77175,12.983875 16.612,12.732625 16.45225,12.482125 C15.369625,10.784125 14.2885,9.085375 13.207,7.387 C13.198,7.37125 13.1875,7.355125 13.18,7.33825 C13.22425,7.294375 13.286125,7.3015 13.340125,7.2895 C13.790125,7.202125 14.240125,7.1155 14.691625,7.02925 C15.833875,6.81025 16.975375,6.5905 18.11725,6.37225 C18.755875,6.25075 19.39525,6.12775 20.03425,6.00475 C20.158,5.98075 20.28175,5.956 20.407375,5.9335 C20.49925,5.917 20.590375,5.904625 20.67175,5.857375 C20.635,5.954875 20.5825,6.044125 20.536,6.13675 C20.177125,6.84625 19.818625,7.555375 19.459,8.264875 C19.028875,9.110875 18.601,9.958 18.170125,10.8055 C17.768875,11.59675 17.369125,12.38725 16.965625,13.1785 C16.9555,13.19725 16.943875,13.213375 16.933375,13.231 L16.933,13.231375 Z" id="Shape" fill="#30333F"></path>
                    <path d="M21.194875,4.831375 C21.516625,4.533625 21.839875,4.235875 22.1635,3.938875 C22.176625,3.987625 22.1635,4.033375 22.15975,4.08025 C22.13425,4.370875 22.10425,4.658875 22.07575,4.948375 L21.9895,5.820625 C21.9655,6.068125 21.94075,6.313375 21.916,6.560875 C21.88825,6.827125 21.8605,7.093375 21.8335,7.3615 C21.814,7.549 21.79975,7.73725 21.781,7.9255 C21.76,8.1535 21.73375,8.381875 21.71125,8.609875 C21.6925,8.797375 21.6775,8.986 21.66025,9.17425 C21.638875,9.401875 21.61075,9.630625 21.589,9.859 C21.57025,10.048 21.556,10.235875 21.539125,10.423375 C21.516625,10.648375 21.490375,10.870375 21.469,11.0965 C21.4495,11.2855 21.43525,11.473375 21.417625,11.6605 C21.395875,11.88925 21.369625,12.11725 21.3475,12.346 C21.328,12.53275 21.312625,12.71875 21.296125,12.9055 C21.273625,13.13425 21.248125,13.363 21.225625,13.591 C21.210625,13.744 21.199375,13.897375 21.184375,14.0515 C21.165625,14.032 21.175,14.01025 21.173875,13.98775 C21.173875,13.768 21.172,13.54675 21.175,13.32775 C21.2005,11.75275 21.172,10.180375 21.19,8.605375 C21.202,7.3885 21.1915,6.171625 21.1975,4.953625 C21.1975,4.931125 21.206875,4.904125 21.18625,4.884625 C21.17125,4.859875 21.191125,4.847875 21.194875,4.831 L21.194875,4.831375 Z" id="Shape" fill="#223A70"></path>
                    <path d="M21.194875,4.831375 C21.211,4.85275 21.18175,4.863625 21.183625,4.88125 C21.02425,5.18575 20.864875,5.491 20.706625,5.79625 L20.671375,5.86 C20.603125,5.94625 20.49625,5.935 20.405875,5.95375 C20.13775,6.01 19.868875,6.0565 19.599625,6.106375 C19.2445,6.173875 18.887875,6.2425 18.532,6.311875 C18.18325,6.378625 17.8315,6.446875 17.482,6.514375 C17.08225,6.591625 16.6825,6.664375 16.282,6.74125 C16.00525,6.79375 15.727,6.84925 15.447625,6.903625 C15.093625,6.971875 14.740375,7.038625 14.38525,7.108 C14.05225,7.17175 13.7215,7.236625 13.389625,7.3 C13.319875,7.313875 13.250125,7.32625 13.181125,7.33825 L13.17625,7.3405 C13.17775,7.300375 13.2115,7.29775 13.23625,7.290625 C13.47775,7.214875 13.718125,7.137625 13.95925,7.061875 L14.928625,6.757 C15.052375,6.71875 15.177625,6.685 15.302875,6.64375 C15.356125,6.62875 15.4105,6.615625 15.465625,6.59875 C15.4945,6.58975 15.524125,6.578875 15.554875,6.578875 C15.944875,6.458875 16.334875,6.338875 16.72375,6.21775 C18.08875,5.795875 19.45075,5.37475 20.81575,4.95025 C20.9395,4.91125 21.065875,4.879 21.188875,4.83025 C21.188875,4.831375 21.191875,4.831375 21.195625,4.831375 L21.194875,4.831375 Z" id="Shape" fill="#010101"></path>
                    <path d="M9.138625,13.22875 C8.969125,12.89275 8.801125,12.555625 8.630125,12.22 C8.35525,11.6755 8.078875,11.134 7.803625,10.5925 C7.357375,9.71125 6.911125,8.83 6.464125,7.949875 C6.121375,7.273 5.777125,6.596125 5.432875,5.917375 C5.421625,5.894875 5.41225,5.86975 5.40175,5.845375 C5.45125,5.848375 5.452375,5.9005 5.481625,5.924125 C5.486875,5.936125 5.49475,5.94775 5.505625,5.959 C5.618125,6.0625 5.714875,6.182125 5.824375,6.289 C6.088,6.54775 6.34075,6.817 6.59875,7.0795 C6.751,7.235875 6.908875,7.385875 7.05625,7.547125 C7.208875,7.714375 7.37725,7.865875 7.529875,8.0335 C7.681,8.199625 7.848625,8.351125 7.99975,8.514625 C8.152375,8.68225 8.32075,8.833375 8.473375,9.002125 C8.620375,9.164125 8.783125,9.309625 8.929,9.471625 C9.08275,9.63775 9.25075,9.790375 9.403,9.95725 C9.55075,10.119625 9.71275,10.26475 9.859375,10.426 C10.012375,10.592875 10.178125,10.747375 10.33375,10.912375 C10.380625,10.961875 10.421875,11.014375 10.4695,11.060875 C10.4845,11.075875 10.49575,11.093125 10.494625,11.11525 C10.48075,11.176 10.436875,11.22175 10.404625,11.27275 C10.142875,11.687875 9.879625,12.1015 9.615625,12.514 C9.473125,12.736 9.334375,12.961 9.19,13.1845 C9.176875,13.20325 9.17125,13.23175 9.138625,13.2295 L9.138625,13.22875 Z" id="Shape" fill="#464D60"></path>
                    <path d="M3.9325,3.949 C4.01125,3.9865 4.06225,4.05775 4.12375,4.114 C4.368625,4.3345 4.608625,4.561 4.850125,4.786375 C4.867375,4.802125 4.883875,4.820125 4.889125,4.84375 C4.896625,4.85125 4.8955,4.859875 4.889125,4.867375 C4.86775,4.885375 4.878625,4.909375 4.878625,4.931125 C4.877875,5.15125 4.875625,5.372125 4.878625,5.591875 C4.898875,7.148125 4.877875,8.704375 4.8925,10.260625 C4.901125,11.204125 4.894375,12.1495 4.901875,13.09375 L4.899625,13.741 C4.895875,13.7485 4.892125,13.7485 4.888375,13.741 C4.8685,13.541125 4.848625,13.341625 4.8295,13.14025 C4.81525,12.997 4.80325,12.854125 4.789375,12.709 L4.732375,12.151 C4.718125,12.0085 4.706125,11.864875 4.69225,11.7205 C4.6735,11.52925 4.652125,11.33725 4.63375,11.14675 C4.619875,11.006875 4.60825,10.867 4.594,10.728625 C4.57525,10.537375 4.555,10.344625 4.535875,10.154875 C4.521625,10.00975 4.509625,9.866125 4.49575,9.723625 C4.477,9.532375 4.457125,9.344125 4.438375,9.152875 C4.424125,9.01525 4.412125,8.875375 4.39825,8.7355 C4.3795,8.543125 4.359625,8.3515 4.340125,8.160625 C4.326625,8.021875 4.314625,7.882375 4.30075,7.7425 C4.28125,7.54675 4.260625,7.351375 4.241875,7.1545 C4.224625,6.97075 4.208125,6.787 4.189375,6.60325 C4.17175,6.417625 4.151125,6.232 4.133125,6.046375 C4.118125,5.90275 4.106125,5.759125 4.091875,5.615125 C4.073125,5.423875 4.05325,5.231875 4.034125,5.04025 C4.02025,4.903375 4.007875,4.765 3.995125,4.62775 C3.975625,4.43425 3.95575,4.240375 3.937,4.04725 C3.93325,4.01425 3.93325,3.98125 3.932125,3.949 L3.9325,3.949 Z" id="Shape" fill="#223A70"></path>
                    <path d="M4.8895,4.868125 L4.8895,4.84375 C4.89325,4.84375 4.897,4.842625 4.90075,4.8415 C4.936,4.86025 4.973125,4.869625 5.01175,4.87825 C5.096125,4.895125 5.17675,4.91875 5.25625,4.95325 C5.2675,4.95925 5.278,4.969 5.292625,4.96525 C5.408875,4.98625 5.5195,5.029 5.632375,5.06125 C5.71975,5.084875 5.806,5.115625 5.894875,5.13925 C6.23875,5.24725 6.58375,5.35075 6.928375,5.458 C7.27225,5.56525 7.616875,5.674 7.9615,5.779375 C8.53525,5.9575 9.1105,6.1375 9.683875,6.3175 C10.119625,6.45325 10.555375,6.59125 10.991875,6.72775 C11.558125,6.90475 12.124375,7.081 12.690625,7.259125 C12.7375,7.274125 12.793375,7.274875 12.825625,7.322875 C12.800875,7.3585 12.76675,7.342375 12.735625,7.336 C12.412,7.273375 12.086875,7.21225 11.762875,7.15 L8.41525,6.508 C7.774,6.386125 7.13275,6.262 6.4915,6.138625 C6.16,6.074875 5.826625,6.01375 5.49475,5.9455 C5.488375,5.942875 5.48275,5.938 5.477875,5.933125 C5.438125,5.918875 5.43925,5.8675 5.402875,5.84875 C5.285125,5.62075 5.166625,5.392375 5.0485,5.165125 C4.994875,5.063875 4.94125,4.966375 4.889125,4.868125 L4.8895,4.868125 Z" id="Shape" fill="#30333F"></path>
                    <path d="M9.138625,13.22875 C9.288625,12.994375 9.440125,12.76 9.58975,12.526375 C9.88,12.07 10.168375,11.615125 10.45825,11.159875 L10.48525,11.113375 C10.489,11.083375 10.50325,11.05975 10.519,11.034625 C10.81525,10.568875 11.1115,10.104625 11.4085,9.6385 C11.597875,9.33925 11.78725,9.0385 11.979625,8.741125 C12.251875,8.309125 12.525625,7.879375 12.800875,7.44925 C12.827125,7.408 12.84325,7.35925 12.885625,7.331125 C12.935125,7.32475 12.9775,7.3435 13.017625,7.368625 C13.031125,7.401625 13.010125,7.42375 12.995125,7.447375 C12.75325,7.825375 12.51325,8.204875 12.271375,8.583625 C12.224875,8.656 12.177625,8.72725 12.1345,8.801125 C11.91925,9.134125 11.71075,9.467875 11.498125,9.8005 C11.312125,10.093 11.125375,10.384375 10.940125,10.6765 L10.638625,11.150875 C10.625125,11.172625 10.61425,11.192875 10.589875,11.203375 C10.409875,11.484625 10.229125,11.765875 10.049875,12.047125 C9.777625,12.473875 9.506125,12.902125 9.234625,13.329625 L9.21025,13.370125 C9.20575,13.371625 9.202,13.372375 9.197875,13.37275 C9.194125,13.37275 9.190375,13.37275 9.186625,13.371625 C9.180625,13.323625 9.140125,13.28275 9.137875,13.228 L9.138625,13.22875 Z" id="Shape" fill="#FFFFFF"></path>
                    <path d="M4.88875,13.7425 L4.9,13.7425 C4.9,13.76125 4.906375,13.781125 4.894375,13.798 C4.883125,13.781125 4.889125,13.76125 4.889125,13.74175 L4.88875,13.7425 Z" id="Shape" fill="#1D468A"></path>
                    <path d="M13.01875,7.378 C12.973,7.3705 12.9325,7.34275 12.8845,7.341625 C12.85975,7.3435 12.8365,7.338625 12.82075,7.319125 C12.3025,7.155625 11.78275,6.99175 11.263375,6.829375 C9.48025,6.273625 7.697125,5.717125 5.913625,5.16175 C5.906125,5.1595 5.899375,5.15425 5.89225,5.15125 C5.891125,5.126875 5.9035,5.1325 5.917,5.13775 L6.544375,5.31775 C7.323625,5.544625 8.10325,5.7715 8.8825,5.999125 C9.6355,6.218875 10.38625,6.4405 11.138125,6.658375 L12.826375,7.149625 C12.837625,7.152625 12.848125,7.160875 12.863875,7.149625 L12.4615,6.619375 C12.149125,6.206875 11.836,5.794375 11.522875,5.381875 C10.980625,4.66675 10.438375,3.950875 9.895375,3.235375 L9.502375,2.714125 C9.497875,2.701375 9.504625,2.698375 9.515125,2.700625 C9.819625,3.083875 10.124125,3.46825 10.429,3.850375 C10.73875,4.240375 11.049625,4.62775 11.359,5.01775 C11.620375,5.345875 11.879125,5.675125 12.139,6.0025 C12.4015,6.331375 12.664,6.659875 12.92575,6.98875 C12.952,7.019875 12.977125,7.0525 13.00075,7.08475 C13.027,7.12225 13.0495,7.123375 13.08025,7.087375 C13.202875,6.937375 13.32775,6.78625 13.454125,6.637375 C13.607125,6.451375 13.761625,6.265375 13.916125,6.078625 L14.360875,5.544625 C14.515375,5.357875 14.669125,5.169625 14.825125,4.985875 C14.874625,4.928125 14.91025,4.857625 14.980375,4.81825 C14.806375,5.056375 14.6335,5.296 14.459125,5.53375 C14.074,6.060625 13.688125,6.586375 13.302625,7.111 C13.293625,7.124125 13.283875,7.138 13.271875,7.15825 C13.297375,7.162 13.316875,7.152625 13.337125,7.14925 C13.981375,6.9805 14.623375,6.81175 15.267625,6.64375 C15.271375,6.642625 15.275125,6.642625 15.28,6.641875 C15.292375,6.635125 15.304,6.6325 15.3025,6.653875 C15.016375,6.743875 14.73175,6.833875 14.446,6.925 C14.04025,7.0525 13.63225,7.18 13.22725,7.3105 C13.207375,7.316875 13.179625,7.313125 13.172875,7.3405 C13.123375,7.33375 13.081,7.358125 13.039375,7.3765 C13.035625,7.38475 13.027,7.384 13.019125,7.378 L13.01875,7.378 Z" id="Shape" fill="#B3DEF6"></path>
                    <path d="M9.5155,2.700625 L9.502375,2.7145 C9.412375,2.60275 9.320125,2.49325 9.245875,2.3695 C9.31825,2.432125 9.363625,2.516875 9.427,2.587 C9.45925,2.62225 9.48625,2.662 9.515125,2.700625 L9.5155,2.700625 Z" id="Shape" fill="#A3D3F2"></path>
                    <path d="M9.251125,2.37625 C9.224875,2.3605 9.202375,2.34025 9.19675,2.308 C9.223,2.3245 9.248125,2.34175 9.251125,2.376625 L9.251125,2.37625 Z" id="Shape" fill="#97CBEE"></path>
                    <path d="M9.20125,2.314 C9.178,2.3035 9.16525,2.28325 9.15775,2.259625 C9.18325,2.26825 9.200125,2.28475 9.201625,2.313625 L9.20125,2.314 Z" id="Shape" fill="#92C7EC"></path>
                    <path d="M15.304,6.6595 L15.28225,6.646375 C15.341125,6.61825 15.40375,6.606625 15.46675,6.591625 C15.469,6.595375 15.4705,6.598375 15.469,6.600625 C15.467875,6.604375 15.467875,6.605875 15.46675,6.605875 C15.4135,6.629125 15.359875,6.649375 15.304,6.659875 L15.304,6.6595 Z" id="Shape" fill="#7BA5D6"></path>
                    <path d="M15.465625,6.6085 L15.465625,6.594625 C15.495625,6.581875 15.524875,6.560125 15.559375,6.580375 C15.529375,6.591625 15.499375,6.60775 15.465625,6.608125 L15.465625,6.6085 Z" id="Shape" fill="#6086BE"></path>
                    <path d="M5.917,5.13625 C5.907625,5.137375 5.89825,5.138125 5.89225,5.149 C5.68975,5.095375 5.491,5.027875 5.29225,4.96525 C5.298625,4.955125 5.30725,4.9525 5.3185,4.955875 C5.51725,5.0185 5.71975,5.066125 5.917,5.135875 L5.917,5.13625 Z" id="Shape" fill="#92C0E4"></path>
                    <path d="M5.2555,4.96 L5.011,4.8775 C5.0785,4.864 5.13475,4.91125 5.1985,4.924 C5.21725,4.92925 5.251,4.92025 5.2555,4.959625 L5.2555,4.96 Z" id="Shape" fill="#73A2D0"></path>
                    <path d="M10.5895,11.206 C10.760125,10.936 10.93,10.666 11.10175,10.396 C11.437375,9.866125 11.774125,9.33775 12.10975,8.807875 C12.1135,8.803 12.11725,8.799625 12.122125,8.794375 C12.223375,8.888125 12.320875,8.98675 12.420625,9.083875 C12.569875,9.227875 12.720625,9.372625 12.870625,9.515875 C13.139125,9.773875 13.4095,10.031125 13.6795,10.288375 C13.84825,10.450375 14.018875,10.60975 14.187625,10.773625 C14.464,11.036125 14.7415,11.298625 15.016375,11.561125 C15.176125,11.716375 15.337375,11.86675 15.498625,12.022375 C15.773875,12.284125 16.049875,12.547375 16.325875,12.80875 C16.475875,12.952 16.62475,13.0975 16.775875,13.23925 C16.802875,13.267375 16.820875,13.301875 16.837375,13.33675 C16.729375,13.31425 16.6285,13.273 16.522375,13.237375 C16.109875,13.097875 15.7,12.956125 15.288625,12.814375 L13.5625,12.22375 C13.14625,12.080125 12.731875,11.938 12.316,11.795125 C11.74975,11.60125 11.185,11.405125 10.61875,11.213875 C10.609375,11.212375 10.59925,11.209375 10.5895,11.206375 L10.5895,11.206 Z" id="Shape" fill="#6D7793"></path>
                    <path d="M16.77625,13.24 C16.76125,13.25575 16.754875,13.23775 16.74775,13.2325 C16.666375,13.15525 16.585,13.07875 16.504,13.00075 C16.2895,12.79525 16.07575,12.58675 15.859,12.38425 C15.68275,12.21925 15.508,12.05125 15.3325,11.88175 C15.065125,11.623 14.79625,11.365375 14.524375,11.11 C14.347,10.945 14.174875,10.77625 13.99825,10.6075 C13.72825,10.349875 13.45825,10.0945 13.189375,9.8365 C13.0195,9.6715 12.8455,9.51175 12.677125,9.34675 C12.50575,9.1825 12.332125,9.018625 12.159625,8.854375 C12.141625,8.8375 12.120625,8.82325 12.119875,8.795125 L12.887875,7.583875 C12.93175,7.515625 12.973375,7.44625 13.016875,7.376875 L13.0405,7.373875 C14.278,9.316375 15.51475,11.258875 16.75225,13.20325 C16.761625,13.21525 16.76875,13.228 16.7755,13.24075 L16.77625,13.24 Z" id="Shape" fill="#525A6E"></path>
                    <path d="M11.9875,8.74825 C11.78125,9.0745 11.575,9.401875 11.366875,9.72925 C11.077,10.187875 10.78675,10.643125 10.49575,11.101 C10.492,11.105875 10.48825,11.1085 10.48375,11.11375 C10.483,11.09575 10.47325,11.08525 10.462,11.07175 C10.392625,11.0005 10.3255,10.9255 10.25575,10.85425 C9.991375,10.58275 9.721,10.316875 9.46,10.04125 C9.31,9.882625 9.149875,9.734875 9.0025,9.5725 C8.85025,9.405625 8.6815,9.25375 8.52925,9.086875 C8.381875,8.924125 8.2195,8.779375 8.072875,8.618125 C7.916125,8.445625 7.742875,8.290375 7.5865,8.118625 C7.439125,7.956625 7.276375,7.811875 7.130125,7.649875 C6.9775,7.482625 6.80875,7.330375 6.6565,7.163125 C6.51025,7.001875 6.34675,6.855625 6.200125,6.695125 C6.047875,6.526375 5.88025,6.374875 5.726875,6.208375 C5.648875,6.123625 5.567875,6.043375 5.489875,5.960125 C5.481625,5.952625 5.459875,5.945875 5.476375,5.927125 L5.487625,5.92825 C5.712625,6.00325 5.924125,6.10825 6.14125,6.202 C6.678625,6.433 7.214875,6.66475 7.751125,6.898 C8.40925,7.183 9.067375,7.468 9.725875,7.754875 C10.166875,7.946125 10.60825,8.13625 11.049625,8.328625 C11.34325,8.455375 11.637625,8.581 11.930875,8.711125 C11.95075,8.722375 11.972875,8.728375 11.987125,8.7475 L11.9875,8.74825 Z" id="Shape" fill="#5B647D"></path>
                    <path d="M11.9875,8.74825 C11.899,8.7295 11.82175,8.683375 11.74,8.648125 C11.41675,8.510125 11.09425,8.370625 10.771375,8.23 C10.480375,8.10475 10.189375,7.9765 9.898375,7.85125 C9.57775,7.7125 9.255625,7.5745 8.935375,7.435 L8.057125,7.0525 C7.738375,6.9145 7.4185,6.777625 7.099375,6.64 C6.804625,6.51175 6.510625,6.382375 6.2155,6.254875 C5.99425,6.158125 5.77075,6.063625 5.549125,5.968 C5.526625,5.958625 5.503,5.95075 5.485375,5.93275 C5.631625,5.947 5.773,5.982625 5.916625,6.010375 C6.2935,6.07975 6.668125,6.15475 7.044625,6.227875 C7.396375,6.295375 7.7485,6.364 8.100625,6.431875 C8.516875,6.510625 8.932375,6.589375 9.34825,6.668875 C9.6115,6.718375 9.87325,6.770125 10.13575,6.820375 C10.538125,6.8965 10.940125,6.9715 11.342125,7.049125 C11.62225,7.103125 11.902375,7.159 12.183625,7.21225 C12.380125,7.2505 12.576625,7.289875 12.7735,7.327375 C12.78925,7.331125 12.8065,7.334875 12.81925,7.319875 C12.840625,7.323625 12.865375,7.325875 12.883,7.343125 L11.998,8.73625 C11.9965,8.738875 11.99125,8.74375 11.98675,8.74825 L11.9875,8.74825 Z" id="Shape" fill="#464D60"></path>
                </g>
            </g>
        </g>
    </g>
</svg>