<?xml version="1.0" encoding="UTF-8"?>
<svg width="30px" height="30px" viewBox="0 0 30 30" version="1.1" xmlns="http://www.w3.org/2000/svg" xmlns:xlink="http://www.w3.org/1999/xlink">
    <!-- Generator: Sketch 45.1 (43504) - http://www.bohemiancoding.com/sketch -->
    <title>icn-motocms, moto, e-commerce</title>
    <desc>Created with Sketch.</desc>
    <defs></defs>
    <g id="Page-1" stroke="none" stroke-width="1" fill="none" fill-rule="evenodd">
        <g id="Types-Icons" transform="translate(-754.000000, -1131.000000)">
            <g id="icn-motocms,-moto,-e-commerce" transform="translate(754.000000, 1131.000000)">
                <g id="moto-3-ecommerce">
                    <g id="Page-1">
                        <g id="moto-3-ecommerce">
                            <rect id="Shape" fill="#1AB744" x="0" y="0" width="30" height="30" rx="3"></rect>
                            <g id="Group" transform="translate(3.000000, 3.750000)" fill="#FFFFFF">
                                <polygon id="Shape" points="5.758125 18.46275 5.758125 9.554625 0 14.014875"></polygon>
                                <polygon id="Shape" points="5.761875 8.937 5.761875 0.01125 0 4.44825"></polygon>
                                <polygon id="Shape" points="11.830875 13.703625 11.830875 4.771125 6.069 9.242625"></polygon>
                                <polygon id="Shape" points="0.01575 13.6935 0.01575 4.783875 5.761875 9.242625"></polygon>
                                <polygon id="Shape" points="6.1005 8.94525 6.1005 0.01125 11.84625 4.4565"></polygon>
                                <polygon id="Shape" points="18.21675 18.46275 18.21675 9.54225 23.947125 14.014875"></polygon>
                                <polygon id="Shape" points="18.219375 8.897625 18.219375 0 23.947125 4.377375"></polygon>
                                <polygon id="Shape" points="12.136125 13.6935 12.136125 4.783875 17.885625 9.242625"></polygon>
                                <polygon id="Shape" opacity="0.5" points="11.830875 23.2845 11.830875 14.362125 6.10425 18.820875"></polygon>
                                <polygon id="Shape" opacity="0.5" points="17.862375 18.509625 17.862375 9.56625 12.112875 14.0385"></polygon>
                                <polygon id="Shape" opacity="0.5" points="12.136125 23.2845 12.136125 14.371875 17.874 18.834375"></polygon>
                                <polygon id="Shape" opacity="0.5" points="6.1005 18.509625 6.1005 9.5895 11.854125 14.031"></polygon>
                                <polygon id="Shape" points="23.947125 13.675875 23.947125 4.711125 18.20025 9.228"></polygon>
                                <polygon id="Shape" points="17.865375 8.932125 17.865375 0.01125 12.1245 4.44825"></polygon>
                            </g>
                            <rect id="Rectangle-path" fill="#1AB744" x="15" y="17.800125" width="11.947125" height="9.925875"></rect>
                            <g id="cart" transform="translate(15.375000, 18.375000)" fill="#FFFFFF">
                                <path d="M11.24325,0.046125 L9.414375,0.046125 C9.27825,0.046125 9.156,0.1305 9.107625,0.25725 L7.697625,3.959625 L5.509125,3.959625 L5.509125,2.4765 L6.947625,2.4765 C7.129875,2.4765 7.27725,2.329125 7.27725,2.148375 C7.27725,1.966875 7.129125,1.8195 6.947625,1.8195 L0.99225,1.8195 L0.9585,1.731 C0.89325,1.5615 0.70275,1.47675 0.533625,1.53975 C0.3645,1.605 0.278625,1.79475 0.343125,1.963875 L1.6695,5.4465 C1.714125,5.56425 1.821,5.645625 1.9455,5.657625 L7.305375,6.15975 C7.314,6.160125 7.32675,6.161625 7.336125,6.161625 C7.471125,6.161625 7.594125,6.077625 7.642875,5.9505 L9.63975,0.70425 L11.24175,0.70425 C11.422875,0.70425 11.570625,0.5565 11.570625,0.37575 C11.572125,0.19425 11.4255,0.046125 11.24325,0.046125 L11.24325,0.046125 L11.24325,0.046125 Z M5.016375,3.960375 L3.44475,3.960375 L3.16725,2.478 L5.017125,2.478 L5.016375,3.960375 L5.016375,3.960375 L5.016375,3.960375 L5.016375,3.960375 Z M5.016375,4.4535 L5.016375,5.28525 L3.668625,5.158875 L3.536625,4.4535 L5.016375,4.4535 L5.016375,4.4535 L5.016375,4.4535 L5.016375,4.4535 Z M2.674875,2.476875 C2.674875,2.49225 2.671125,2.506875 2.6745,2.52225 L2.943,3.96 L1.807125,3.96 L1.243125,2.477625 L2.674875,2.476875 L2.674875,2.476875 L2.674875,2.476875 L2.674875,2.476875 Z M1.99425,4.4535 L3.0345,4.4535 L3.1575,5.110875 L2.21175,5.023125 L1.99425,4.4535 L1.99425,4.4535 L1.99425,4.4535 Z M7.11825,5.48175 L5.509125,5.331 L5.509125,4.453125 L7.509375,4.453125 L7.11825,5.48175 L7.11825,5.48175 L7.11825,5.48175 Z" id="Shape"></path>
                                <path d="M7.45575,6.340125 C6.816375,6.340125 6.295875,6.860625 6.295875,7.500375 C6.295875,8.13975 6.81675,8.6595 7.45575,8.6595 C8.0955,8.6595 8.615625,8.139375 8.615625,7.500375 C8.615625,6.860625 8.0955,6.340125 7.45575,6.340125 L7.45575,6.340125 L7.45575,6.340125 Z M7.45575,8.002875 C7.179375,8.002875 6.953625,7.77675 6.953625,7.50075 C6.953625,7.224 7.179375,6.998625 7.45575,6.998625 C7.7325,6.998625 7.957875,7.22475 7.957875,7.50075 C7.957875,7.77675 7.7325,8.002875 7.45575,8.002875 L7.45575,8.002875 L7.45575,8.002875 Z" id="Shape"></path>
                                <path d="M2.0385,6.340125 C1.399125,6.340125 0.878625,6.860625 0.878625,7.500375 C0.878625,8.13975 1.399125,8.6595 2.0385,8.6595 C2.677125,8.6595 3.198,8.139375 3.198,7.500375 C3.197625,6.860625 2.677875,6.340125 2.0385,6.340125 L2.0385,6.340125 L2.0385,6.340125 Z M2.0385,8.002875 C1.762125,8.002875 1.536,7.77675 1.536,7.50075 C1.536,7.224 1.76175,6.998625 2.0385,6.998625 C2.31525,6.998625 2.541,7.22475 2.541,7.50075 C2.539875,7.77675 2.31525,8.002875 2.0385,8.002875 L2.0385,8.002875 L2.0385,8.002875 Z" id="Shape"></path>
                            </g>
                        </g>
                    </g>
                </g>
            </g>
        </g>
    </g>
</svg>