<?xml version="1.0" encoding="UTF-8"?>
<svg width="30px" height="30px" viewBox="0 0 30 30" version="1.1" xmlns="http://www.w3.org/2000/svg" xmlns:xlink="http://www.w3.org/1999/xlink">
    <!-- Generator: Sketch 45.1 (43504) - http://www.bohemiancoding.com/sketch -->
    <title>icn-flash, moto, flashcms, cms</title>
    <desc>Created with Sketch.</desc>
    <defs></defs>
    <g id="Page-1" stroke="none" stroke-width="1" fill="none" fill-rule="evenodd">
        <g id="Types-Icons" transform="translate(-40.000000, -956.000000)">
            <g id="icn-flash,-moto,-flashcms,-cms" transform="translate(40.000000, 956.000000)">
                <rect id="bg" fill="#AF1602" x="0" y="0" width="30" height="30" rx="3"></rect>
                <path d="M18.25274,8.80733376 L17.6152426,8.2128578 C17.2560946,7.87794694 16.6994904,7.90014288 16.3664782,8.25725471 L13.1640821,11.6914041 L14.4556671,12.8958266 L17.034319,10.1305609 C17.1565975,10.214124 17.3251909,10.3432211 17.2795371,10.3921788 L14.6331258,13.2301075 L15.9247108,14.43453 L18.791986,11.3597538 L19.0887536,11.5775488 L16.1643942,14.7135403 L17.4559792,15.9179628 L20.6583753,12.4838135 C20.9876744,12.1306833 20.972216,11.5675861 20.6155546,11.234994 L19.9904864,10.6521085 C19.951341,10.5785979 19.5682137,10.3401825 19.5682137,10.3401825 C19.5682137,10.3401825 19.1144364,10.1612551 18.8939618,9.95565922 C18.683908,9.7597809 18.4384937,9.14935 18.4384937,9.14935 L18.2718107,8.7895141 L18.25274,8.80733376 Z M11.3774229,7.90603599 C11.437224,7.82252832 11.498856,7.74039849 11.5622608,7.65970396 L11.7029152,7.47225504 C11.7029152,7.47225504 11.7058471,7.47356696 11.7116172,7.47615867 C12.9865775,5.96283959 14.9046055,5 17.0495722,5 C20.8881875,5 24,8.08362831 24,11.8874766 C24,13.0636943 23.702462,14.1710478 23.1779012,15.1396602 C23.1652929,15.2059362 23.1427163,15.2697938 23.1096157,15.3310425 C23.0991829,15.350347 20.16905,20.4966499 17.3175925,21.2472083 C15.9364177,22.30682 18.5007805,19.5360446 18.1186947,19.2604362 C17.1393764,18.5540283 16.1899571,19.6265307 15.9355475,21.2472083 C15.3117912,22.2626696 14.7325812,22.5864422 14.0642785,22.7924754 C15.4008992,21.0264558 14.5756952,21.0264558 14.3953166,21.0264558 C13.8415083,21.0264558 13.173198,22.571723 11.0791588,24.3377426 C12.0147933,22.7924754 12.3123297,21.6728706 12.1930094,21.2472083 C11.7474692,19.6577906 13.5994227,18.1566739 13.173198,18.1566739 C11.7029152,18.1566739 11.2767509,20.845298 11.0791588,21.2472083 C10.2326323,22.9690774 7.40207142,24.4813826 6.53482234,25 C7.40207145,22.6601102 11.191066,20.6954134 8.60693256,20.0110807 C7.72778855,19.778265 8.22822335,21.8433261 6,22.7924754 C6.80197244,21.2913587 6.61791124,20.5385382 7.20295866,19.4811886 C8.03777665,17.9724316 9.41394452,16.9234608 9.34155185,16.8321591 C8.85145758,16.2140523 8.13859314,16.8321591 6.53482234,17.2736641 C8.13859314,15.6400959 9.28224505,14.1404982 9.11886875,13.9623772 C8.67341552,13.4767218 6.53482234,15.3310425 6.53482234,15.3310425 L9.11886875,10.9159933 L11.3774229,7.90603599 Z" id="Oval-13" fill="#FFFFFF"></path>
            </g>
        </g>
    </g>
</svg>