<?xml version="1.0" encoding="UTF-8"?>
<svg width="30px" height="30px" viewBox="0 0 30 30" version="1.1" xmlns="http://www.w3.org/2000/svg" xmlns:xlink="http://www.w3.org/1999/xlink">
    <!-- Generator: Sketch 45.1 (43504) - http://www.bohemiancoding.com/sketch -->
    <title>icn-muse, adobe, web</title>
    <desc>Created with Sketch.</desc>
    <defs></defs>
    <g id="Page-1" stroke="none" stroke-width="1" fill="none" fill-rule="evenodd">
        <g id="Types-Icons" transform="translate(-40.000000, -780.000000)">
            <g id="icn-muse,-adobe,-web" transform="translate(40.000000, 780.000000)">
                <rect id="bg" fill="#212502" x="0" y="0" width="30" height="30" rx="3"></rect>
                <path d="M5.625,20.7392925 L6.20983012,9 L9.03492788,9 L11.178096,17.5252388 L13.3703719,9 L16.1469199,9 L16.4884429,20.7392925 L14.599185,20.7392925 L14.4903664,11.6783325 L11.9574045,20.7401288 L10.1552014,20.7401288 L7.91437575,11.8744837 L7.524861,20.7401288 L5.625,20.7392925 L5.625,20.7392925 L5.625,20.7392925 L5.625,20.7392925 L5.625,20.7392925 L5.625,20.7392925 Z M17.9008523,12.1177912 L19.848984,12.1177912 L19.848984,17.1387938 C19.848984,18.4052738 20.4910136,19.1324063 21.4991201,19.1324063 C21.8886349,19.1324063 22.5803303,18.9987525 22.5803303,18.9987525 C22.5803303,18.8765438 22.5744709,12.1203038 22.5744709,12.1203038 L24.3281243,12.1203038 L24.3281243,18.8450138 L24.375,19.8958088 C24.375,19.8958088 23.2181749,20.7451537 21.0789131,20.7451537 C19.3989214,20.7451537 17.8986203,19.7222588 17.8986203,17.7258563 C17.9008523,16.8067575 17.9008523,12.1177912 17.9008523,12.1177912 L17.9008523,12.1177912 L17.9008523,12.1177912 L17.9008523,12.1177912 L17.9008523,12.1177912 Z" id="Shape" fill="#D2E742"></path>
            </g>
        </g>
    </g>
</svg>