<?xml version="1.0" encoding="UTF-8"?>
<svg width="30px" height="30px" viewBox="0 0 30 30" version="1.1" xmlns="http://www.w3.org/2000/svg" xmlns:xlink="http://www.w3.org/1999/xlink">
    <!-- Generator: Sketch 45.1 (43504) - http://www.bohemiancoding.com/sketch -->
    <title>icn-opencart, e-commerce</title>
    <desc>Created with Sketch.</desc>
    <defs>
        <path d="M0.0683636364,0.00344827586 C1.12509091,1.50862069 1.70363636,4.33172414 11.4825455,4.19103448 L11.4825455,4.19103448 C21.6858182,4.04172414 15.4610909,6.68551724 13.6501818,9.67275862 L13.6501818,9.67275862 C19.3632727,4.83689655 23.4290909,2.88482759 14.18,2.88482759 L14.18,2.88482759 C4.928,2.88482759 2.58072727,2.51 0.0683636364,0.00344827586 L0.0683636364,0.00344827586 Z" id="path-1"></path>
        <path d="M0.222962963,1.64166667 C0.222962963,2.52541667 0.86037037,3.2425 1.64888889,3.2425 L1.64888889,3.2425 C2.43444444,3.2425 3.07185185,2.52541667 3.07185185,1.64166667 L3.07185185,1.64166667 C3.07185185,0.755 2.43444444,0.0375 1.64888889,0.0375 L1.64888889,0.0375 C0.86037037,0.0375 0.222962963,0.755 0.222962963,1.64166667" id="path-3"></path>
        <path d="M0.0516666667,1.64166667 C0.0516666667,2.52541667 0.769583333,3.2425 1.65583333,3.2425 L1.65583333,3.2425 C2.53958333,3.2425 3.25666667,2.52541667 3.25666667,1.64166667 L3.25666667,1.64166667 C3.25666667,0.755 2.53958333,0.0375 1.65583333,0.0375 L1.65583333,0.0375 C0.769583333,0.0375 0.0516666667,0.755 0.0516666667,1.64166667" id="path-5"></path>
    </defs>
    <g id="Page-1" stroke="none" stroke-width="1" fill="none" fill-rule="evenodd">
        <g id="Types-Icons" transform="translate(-992.000000, -956.000000)">
            <g id="icn-opencart,-e-commerce" transform="translate(992.000000, 956.000000)">
                <rect id="bg" fill="#21C0F0" x="0" y="0" width="30" height="30" rx="3"></rect>
                <g id="Page-1" transform="translate(5.000000, 8.000000)">
                    <g id="Group-30">
                        <mask id="mask-2" fill="white">
                            <use xlink:href="#path-1"></use>
                        </mask>
                        <use id="Clip-29" fill="#FFFFFF" xlink:href="#path-1"></use>
                        <path d="M0.0683636364,0.00344827586 C1.12509091,1.50862069 1.70363636,4.33172414 11.4825455,4.19103448 L11.4825455,4.19103448 C21.6858182,4.04172414 15.4610909,6.68551724 13.6501818,9.67275862 L13.6501818,9.67275862 C19.3632727,4.83689655 23.4290909,2.88482759 14.18,2.88482759 L14.18,2.88482759 C4.928,2.88482759 2.58072727,2.51 0.0683636364,0.00344827586 L0.0683636364,0.00344827586 Z" id="Fill-28" fill="#FFFFFF" mask="url(#mask-2)"></path>
                    </g>
                    <g id="Group-33" transform="translate(3.333333, 10.833333)">
                        <mask id="mask-4" fill="white">
                            <use xlink:href="#path-3"></use>
                        </mask>
                        <use id="Clip-32" fill="#FFFFFF" xlink:href="#path-3"></use>
                        <path d="M0.222962963,1.64166667 C0.222962963,2.52541667 0.86037037,3.2425 1.64888889,3.2425 L1.64888889,3.2425 C2.43444444,3.2425 3.07185185,2.52541667 3.07185185,1.64166667 L3.07185185,1.64166667 C3.07185185,0.755 2.43444444,0.0375 1.64888889,0.0375 L1.64888889,0.0375 C0.86037037,0.0375 0.222962963,0.755 0.222962963,1.64166667" id="Fill-31" mask="url(#mask-4)"></path>
                    </g>
                    <g id="Group-36" transform="translate(10.000000, 10.833333)">
                        <mask id="mask-6" fill="white">
                            <use xlink:href="#path-5"></use>
                        </mask>
                        <use id="Clip-35" fill="#FFFFFF" xlink:href="#path-5"></use>
                        <path d="M0.0516666667,1.64166667 C0.0516666667,2.52541667 0.769583333,3.2425 1.65583333,3.2425 L1.65583333,3.2425 C2.53958333,3.2425 3.25666667,2.52541667 3.25666667,1.64166667 L3.25666667,1.64166667 C3.25666667,0.755 2.53958333,0.0375 1.65583333,0.0375 L1.65583333,0.0375 C0.769583333,0.0375 0.0516666667,0.755 0.0516666667,1.64166667" id="Fill-34" mask="url(#mask-6)"></path>
                    </g>
                </g>
            </g>
        </g>
    </g>
</svg>