<?xml version="1.0" encoding="UTF-8"?>
<svg width="30px" height="30px" viewBox="0 0 30 30" version="1.1" xmlns="http://www.w3.org/2000/svg" xmlns:xlink="http://www.w3.org/1999/xlink">
    <!-- Generator: Sketch 45.1 (43504) - http://www.bohemiancoding.com/sketch -->
    <title>icn-powerpoint, media</title>
    <desc>Created with Sketch.</desc>
    <defs></defs>
    <g id="Page-1" stroke="none" stroke-width="1" fill="none" fill-rule="evenodd">
        <g id="Types-Icons" transform="translate(-754.000000, -1307.000000)">
            <g id="icn-powerpoint,-media" transform="translate(754.000000, 1307.000000)">
                <rect id="bg" fill="#D24625" x="0" y="0" width="30" height="30" rx="3"></rect>
                <g id="Microsoft_PowerPoint_2013_logo" transform="translate(5.000000, 6.000000)" fill="#FFFFFF">
                    <g id="svg2">
                        <g id="g3607" transform="translate(0.218764, 0.000000)">
                            <path d="M10.2955556,0 L11.5555556,0 L11.5555556,2 C13.9311111,2.01333333 16.3088889,1.97555556 18.6822222,2.01111111 C19.1933333,1.96222222 19.5933333,2.36 19.5422222,2.87111111 C19.58,7.02222222 19.5333333,11.1755556 19.5644444,15.3288889 C19.5422222,15.7777778 19.6088889,16.2755556 19.3511111,16.6733333 C19.0266667,16.9088889 18.6044444,16.8777778 18.2244444,16.8955556 C16.0022222,16.8844444 13.78,16.8888889 11.5555556,16.8888889 L11.5555556,19.1111111 L10.1733333,19.1111111 C6.78666667,18.4933333 3.39333333,17.9288889 0.00444444444,17.3333333 C0.00222222222,12.1488889 0.00444444444,6.96444444 0.00444444444,1.78222222 C3.43333333,1.18888889 6.86222222,0.584444444 10.2955556,0 Z M11.5555556,2.66666667 L11.5555556,2.66666667 L11.5555556,4.88222222 C11.9177778,4.80444444 12.2822222,4.72888889 12.6466667,4.65777778 C12.6777778,5.62222222 12.6644444,6.58888889 12.6666667,7.55555556 C13.64,7.55555556 14.6155556,7.55333333 15.5911111,7.56 C15.5177778,8.52 15.0733333,9.48222222 14.2222222,9.98666667 C13.4355556,10.5155556 12.4333333,10.5222222 11.5533333,10.2488889 C11.5555556,10.6844444 11.5555556,11.12 11.5577778,11.5555556 L16.8888889,11.5555556 L16.8888889,12.4444444 L11.5555556,12.4444444 L11.5555556,13.5555556 L16.8888889,13.5555556 L16.8888889,14.4444444 L11.5555556,14.4444444 L11.5555556,16.2222222 L18.8888889,16.2222222 L18.8888889,2.66666667 L11.5555556,2.66666667 Z M3.56888889,5.87111111 L3.56888889,5.87111111 C3.54222222,8.24444444 3.54666667,10.62 3.56666667,12.9933333 C4.00666667,13.0288889 4.44888889,13.0666667 4.88888889,13.1044444 C4.88666667,12.2355556 4.88888889,11.3666667 4.89111111,10.4977778 C5.44,10.5155556 6.01777778,10.5511111 6.52222222,10.2933333 C7.94222222,9.59777778 8.19555556,7.46 7.23777778,6.29777778 C6.23777778,5.39333333 4.77555556,5.92888889 3.56888889,5.87111111 Z" id="Combined-Shape"></path>
                            <path d="M13.1133333,4.19333333 C14.6577778,4.26444444 15.9555556,5.56444444 16.0377778,7.10444444 C15.0622222,7.11555556 14.0866667,7.11111111 13.1111111,7.11111111 C13.1111111,6.13777778 13.1088889,5.16444444 13.1133333,4.19333333 L13.1133333,4.19333333 Z" id="path60"></path>
                            <path d="M4.88888889,7.07333333 C5.32666667,7.05333333 5.86888889,6.97333333 6.16444444,7.38444444 C6.41777778,7.82 6.40444444,8.39333333 6.19333333,8.84222222 C5.94,9.3 5.36666667,9.25555556 4.92444444,9.30888889 C4.87777778,8.56444444 4.88222222,7.82 4.88888889,7.07333333 L4.88888889,7.07333333 Z" id="path94"></path>
                        </g>
                    </g>
                </g>
            </g>
        </g>
    </g>
</svg>