<?xml version="1.0" encoding="UTF-8"?>
<svg width="30px" height="30px" viewBox="0 0 30 30" version="1.1" xmlns="http://www.w3.org/2000/svg" xmlns:xlink="http://www.w3.org/1999/xlink">
    <!-- Generator: Sketch 45.1 (43504) - http://www.bohemiancoding.com/sketch -->
    <title>icn-prestashop, e-commerce</title>
    <desc>Created with Sketch.</desc>
    <defs></defs>
    <g id="Page-1" stroke="none" stroke-width="1" fill="none" fill-rule="evenodd">
        <g id="Types-Icons" transform="translate(-993.000000, -252.000000)">
            <g id="icn-prestashop,-e-commerce" transform="translate(993.000000, 252.000000)">
                <rect id="bg" fill="#9FDAE7" x="0" y="0" width="30" height="30" rx="3"></rect>
                <g id="sign" transform="translate(5.000000, 6.000000)">
                    <path d="M3.93555836,19.5975449 C3.94627895,19.590094 3.95713189,19.582643 3.96772013,19.5750613 L3.93701425,19.5750613 C3.93674954,19.5825123 3.93595542,19.590094 3.93555836,19.5975449" id="Shape" fill="#C4B6A1"></path>
                    <path d="M14.8935795,19.5750613 L14.8627413,19.5750613 C14.8734619,19.582643 14.8843148,19.590094 14.894903,19.5975449 C14.8946383,19.590094 14.8938442,19.5825123 14.8935795,19.5750613" id="Shape" fill="#AA9678"></path>
                    <polygon id="Shape" fill="#786453" points="9.41176471 19.3045343 9.41189706 19.3045343 9.41189706 19.5750613 9.41176471 19.5750613"></polygon>
                    <path d="M13.2098805,17.1687092 C13.1672003,17.123366 13.1231932,17.074857 13.0775276,17.0196078 C13.1233038,17.074857 13.1672003,17.123366 13.2098805,17.1687092" id="Shape" fill="#525353"></path>
                    <path d="M13.5058134,17.4673203 C13.5058134,17.4673203 13.506744,17.4702819 13.5086052,17.4757966 C13.506744,17.4702819 13.5058134,17.4673203 13.5058134,17.4673203 C13.5058134,17.4673203 13.3715993,17.3622345 13.2012983,17.1687092 C13.3715993,17.3622345 13.5058134,17.4673203 13.5058134,17.4673203" id="Shape" fill="#AA9678"></path>
                    <polyline id="Shape" fill="#FFFFFF" points="17.550023 5.64011438 17.550023 5.64089869 17.550023 5.64011438"></polyline>
                    <path d="M18.0826402,9.4047835 C18.0826402,9.40308415 18.0827725,9.40151552 18.0827725,9.39981618 C18.0827725,9.40151552 18.0826402,9.40308415 18.0826402,9.4047835" id="Shape" fill="#FFFFFF"></path>
                    <path d="M18.0827725,9.40081699 C18.0827725,9.39924837 18.0826402,9.39794118 18.0826402,9.39624183 C18.0826402,9.39781046 18.0827725,9.39924837 18.0827725,9.40081699" id="Shape" fill="#BBBCBD"></path>
                    <path d="M18.0678539,9.19618056 C18.0682675,9.19965278 18.0693015,9.2027165 18.0697151,9.20618873 C18.0700253,9.20833333 18.0706457,9.21027369 18.0709559,9.21231618 L18.0709559,9.21313317 C18.0772633,9.2630719 18.0796415,9.31525735 18.080779,9.36785131 C18.0809858,9.3775531 18.0826402,9.38664216 18.0826402,9.39624183 C18.0826402,9.39756944 18.0827436,9.39859069 18.0827436,9.39981618 C18.0827436,9.40114379 18.0826402,9.40236928 18.0826402,9.4036969 C18.0825368,9.41411356 18.080779,9.42381536 18.0806756,9.4341299 C18.0794347,9.48570261 18.0771599,9.53686683 18.0710593,9.58588644 L18.0710593,9.58660131 C18.0706457,9.58915441 18.0700253,9.59150327 18.0696117,9.59405637 C18.0691981,9.59803922 18.0679573,9.60161356 18.0674403,9.60549428 C18.0599954,9.65900735 18.0504825,9.71088644 18.0377642,9.76021242 C18.0376608,9.76051879 18.0376608,9.76072304 18.0375574,9.76092729 L18.0375574,9.76102941 L18.0394187,9.75898693 C18.0396255,9.75816993 18.0399357,9.75745507 18.0401425,9.75663807 L18.0401425,9.7567402 L18.3865349,9.39859069 L18.0373506,9.0375817 C18.0373506,9.03778595 18.0373506,9.03809232 18.037454,9.03829657 C18.0504825,9.08864379 18.060409,9.14154412 18.0678539,9.19618056" id="Shape" fill="#676A6A"></path>
                    <path d="M18.0674403,9.60549428 C18.0683709,9.59875408 18.0701287,9.59272876 18.0710593,9.58588644 C18.0771599,9.53686683 18.0794347,9.48570261 18.0806756,9.4341299 C18.080779,9.42248775 18.0826402,9.41156046 18.0826402,9.39981618 C18.0826402,9.38888889 18.0809858,9.37867647 18.080779,9.36785131 C18.0796415,9.31525735 18.0772633,9.2630719 18.0709559,9.21313317 C18.0701287,9.20720997 18.0685777,9.20200163 18.0678539,9.19618056 C18.060409,9.14154412 18.0504825,9.08864379 18.037454,9.03829657 C18.0329044,9.02073121 18.026597,9.00510621 18.0213235,8.98815359 C17.9899931,8.88582516 17.9472886,8.79544526 17.8966222,8.72038399 C17.8897978,8.71037582 17.8828699,8.70067402 17.8758387,8.69127859 C17.8618796,8.67279412 17.8479205,8.65482026 17.8331342,8.63868464 C17.8112132,8.6152982 17.7885685,8.59375 17.7646829,8.57587827 C17.7555836,8.56903595 17.7459674,8.56423611 17.7366613,8.55831291 C17.7159812,8.54513889 17.6948874,8.53359886 17.6730699,8.52481618 C17.6637638,8.52113971 17.6543543,8.51746324 17.6448415,8.51450163 C17.614028,8.50510621 17.5824908,8.49836601 17.550023,8.49836601 C17.5175551,8.49836601 17.4861213,8.50510621 17.4552045,8.51450163 C17.4456916,8.51746324 17.4362822,8.52113971 17.4269761,8.5249183 C17.4051585,8.53359886 17.3840648,8.54513889 17.3632812,8.55831291 C17.354182,8.56423611 17.3444623,8.56893382 17.3354665,8.57577614 C17.3115809,8.59375 17.2888327,8.6152982 17.2669118,8.63868464 C17.2521255,8.65482026 17.2381664,8.67279412 17.2244141,8.69107435 C17.217176,8.70067402 17.2102482,8.71037582 17.2034237,8.72048611 C17.1527574,8.79554739 17.1099494,8.88592729 17.0787224,8.98825572 C17.0774816,8.99234069 17.076034,8.99632353 17.0747932,9.00051062 C17.0609375,9.04748775 17.0501838,9.09691585 17.041188,9.14767157 C17.0384995,9.16319444 17.0348805,9.17810458 17.0327091,9.19403595 C17.024437,9.25081699 17.0201976,9.31004902 17.0191636,9.37071078 C17.0190602,9.37908497 17.017716,9.38705065 17.017716,9.39542484 L17.019784,9.39542484 C17.019784,9.89338235 17.2583295,10.2969771 17.5525046,10.2969771 C17.603171,10.2969771 17.6518727,10.2839052 17.6982996,10.26154 C17.7057445,10.2578636 17.7130859,10.254085 17.7204274,10.2498979 C17.7396599,10.2389706 17.7585823,10.2270221 17.7766774,10.2126225 C17.7867073,10.2046569 17.7961167,10.1950572 17.805733,10.1860703 C17.829205,10.1644199 17.8515395,10.1399101 17.8727367,10.112643 C17.8874196,10.0935458 17.9018957,10.0744485 17.9153378,10.0531046 C17.92392,10.0395221 17.9317785,10.0248162 17.9397403,10.0103145 C17.9546301,9.98314951 17.9686926,9.95486111 17.9814108,9.9248366 C17.9861673,9.91401144 17.9910271,9.90349265 17.9953699,9.89236111 C18.0116039,9.85059232 18.0257698,9.80647467 18.0377642,9.76021242 C18.0504825,9.71088644 18.0599954,9.65900735 18.0674403,9.60549428 L18.0674403,9.60549428 L18.0674403,9.60549428 Z M17.5691521,9.27982026 C17.4588235,9.27982026 17.3693819,9.1283701 17.3693819,8.94168709 C17.3693819,8.75510621 17.4588235,8.60365605 17.5691521,8.60365605 C17.6794807,8.60365605 17.7688189,8.75510621 17.7688189,8.94168709 C17.7688189,9.1283701 17.6794807,9.27982026 17.5691521,9.27982026 L17.5691521,9.27982026 L17.5691521,9.27982026 Z" id="Shape" fill="#000000"></path>
                    <path d="M17.5691521,8.60365605 C17.4588235,8.60365605 17.3693819,8.75510621 17.3693819,8.94168709 C17.3693819,9.1283701 17.4588235,9.27982026 17.5691521,9.27982026 C17.6794807,9.27982026 17.7688189,9.1283701 17.7688189,8.94168709 C17.7688189,8.75510621 17.6794807,8.60365605 17.5691521,8.60365605" id="Shape" fill="#FFFFFF"></path>
                    <path d="M17.0787224,8.98825572 L17.0787224,8.98825572 C17.1099494,8.88592729 17.1527574,8.79554739 17.2034237,8.72048611 C17.2102482,8.71027369 17.217176,8.70077614 17.2244141,8.69107435 C17.2381664,8.67279412 17.2521255,8.65482026 17.2669118,8.63868464 C17.2888327,8.61509395 17.3115809,8.59385212 17.3354665,8.57577614 C17.3444623,8.56893382 17.354182,8.56423611 17.3632813,8.55831291 C17.3839614,8.54493464 17.4051585,8.5338031 17.4269761,8.5249183 C17.4362822,8.52113971 17.4456916,8.51746324 17.4552045,8.51450163 C17.4860179,8.50490196 17.5175551,8.49836601 17.550023,8.49836601 C17.5824908,8.49836601 17.614028,8.50490196 17.6448415,8.51450163 C17.6543543,8.51746324 17.6637638,8.52113971 17.6730699,8.52481618 C17.6948874,8.5338031 17.7159812,8.54493464 17.7366613,8.55831291 C17.7459674,8.56423611 17.7555836,8.56903595 17.7646829,8.57587827 C17.7884651,8.59385212 17.8112132,8.61509395 17.8331342,8.63868464 C17.8479205,8.65482026 17.8618796,8.67279412 17.8758387,8.69127859 C17.8828699,8.70077614 17.8897978,8.71027369 17.8966222,8.72038399 C17.9472886,8.79544526 17.9899931,8.88582516 18.0213235,8.98815359 L18.0213235,8.98835784 L17.550023,6.85631127 L17.078619,8.98825572 L17.0787224,8.98825572" id="Shape" fill="#909393"></path>
                    <path d="M11.3038948,9.37990196 C11.3032744,9.3370098 11.3004825,9.29462827 11.2956227,9.2529616 C11.2955193,9.25245098 11.2953125,9.25183824 11.2953125,9.25122549 C11.2903493,9.21017157 11.2834214,9.16962827 11.274529,9.12990196 C11.2742188,9.12888072 11.2739085,9.1279616 11.2737017,9.12683824 C11.2648093,9.08752042 11.2539522,9.04891748 11.2413373,9.01102941 C11.2410271,9.01021242 11.2406135,9.00939542 11.2403033,9.00847631 C11.227585,8.97058824 11.2131089,8.93351716 11.1966682,8.8973652 C11.1964614,8.89665033 11.1959444,8.89593546 11.1956342,8.89511846 C11.1791935,8.85886438 11.1609949,8.82342729 11.141142,8.78911356 C11.0805492,8.68423203 11.0049632,8.58915441 10.9170726,8.50643382 C10.8055032,8.40155229 10.6742877,8.31668709 10.5296301,8.25786356 C10.5284926,8.25745507 10.5271484,8.25704657 10.526011,8.25653595 C10.4546645,8.22783905 10.3801126,8.20537173 10.3028722,8.1900531 C10.3009076,8.18974673 10.2990464,8.18964461 10.2970818,8.18923611 C10.2196347,8.17422386 10.1398093,8.16605392 10.0579159,8.16605392 C9.97736673,8.16605392 9.89909237,8.17422386 9.82288603,8.18862337 C9.82019761,8.18913399 9.81750919,8.18933824 9.81482077,8.18984886 C9.73902803,8.20475899 9.66592371,8.22661356 9.59571461,8.25439134 C9.5939568,8.25510621 9.59199219,8.25571895 9.59013097,8.25653595 C9.51899127,8.28513072 9.45105699,8.31995507 9.38725873,8.36049837 C9.38694853,8.36070261 9.38674173,8.36080474 9.38653493,8.36080474 C9.32211627,8.40185866 9.26162684,8.44852941 9.20599724,8.50010212 L9.20465303,8.50428922 L9.2,8.50531046 C9.11117877,8.58874592 9.03476563,8.6849469 8.97365579,8.79064542 C8.97303539,8.79187092 8.97220818,8.79309641 8.97138097,8.79442402 C8.95276884,8.82679739 8.93591452,8.86049837 8.92040441,8.89481209 C8.91875,8.89848856 8.91668199,8.90196078 8.91513097,8.90563725 C8.90096507,8.93739788 8.88876379,8.97028186 8.87738971,9.0033701 C8.87521829,9.00990605 8.87232307,9.0160335 8.87025506,9.02246732 C8.86032858,9.05341095 8.85226333,9.08517157 8.84461167,9.11693219 C8.84264706,9.12612337 8.83964844,9.13490605 8.83768382,9.1439951 C8.83106618,9.17544935 8.82651654,9.20761846 8.82227711,9.23988971 C8.82103631,9.24979575 8.81886489,9.2592933 8.81783088,9.26919935 C8.81338465,9.31137663 8.81090303,9.35416667 8.81090303,9.39767157 C8.81090303,9.47916667 8.81938189,9.55861928 8.8347886,9.63562092 C8.8349954,9.63715278 8.83509881,9.63888889 8.83551241,9.64052288 C8.85112592,9.71742239 8.87408088,9.79156454 8.90355009,9.86254085 C8.90396369,9.86356209 8.9041705,9.86458333 8.9046875,9.86550245 C8.96465993,10.0090891 9.05141314,10.1390931 9.15863971,10.2494894 C9.24342831,10.3368056 9.3410386,10.4116626 9.44836857,10.4715074 C9.44888557,10.4718137 9.44940257,10.4721201 9.44991958,10.4724265 C9.48342142,10.4910131 9.51806066,10.5077614 9.55332031,10.5232843 C9.55621553,10.5245098 9.55900735,10.5261438 9.56200597,10.5273693 C9.59468061,10.5414624 9.62849265,10.5536152 9.66251149,10.564951 C9.66830193,10.5668913 9.67388557,10.5693423 9.67967601,10.5711806 C9.71110983,10.5810866 9.74357767,10.5890523 9.7760455,10.5964052 C9.78483456,10.5984477 9.79331342,10.6013072 9.80220588,10.6031454 C9.83374311,10.6095792 9.86621094,10.6139706 9.89888557,10.6181577 C9.90870864,10.619281 9.91842831,10.6215278 9.92845818,10.622549 C9.97095588,10.6269404 10.0141774,10.6292892 10.0579159,10.6292892 C10.2300781,10.6292892 10.3940717,10.5947712 10.543279,10.5323734 C10.6178309,10.5013276 10.6887638,10.4632353 10.7550437,10.4189134 C10.8878102,10.3303717 11.0022748,10.2172181 11.0919233,10.0862949 C11.1366958,10.0207312 11.1753676,9.95077614 11.2069049,9.87704248 C11.2699793,9.72967729 11.3049288,9.56770833 11.3049288,9.39767157 C11.3049288,9.39470997 11.3045152,9.39195261 11.3045152,9.38919526 C11.3044118,9.38602941 11.3039982,9.38306781 11.3038948,9.37990196 L11.3038948,9.37990196 L11.3038948,9.37990196 Z M10.0579159,9.23560049 C9.79920726,9.23560049 9.58951057,9.02839052 9.58951057,8.77287582 C9.58951057,8.51736111 9.79920726,8.31025327 10.0579159,8.31025327 C10.3166245,8.31025327 10.5263212,8.51736111 10.5263212,8.77287582 C10.5263212,9.02839052 10.3166245,9.23560049 10.0579159,9.23560049 L10.0579159,9.23560049 L10.0579159,9.23560049 Z" id="Shape" fill="#000000"></path>
                    <path d="M10.0579159,8.31025327 C9.79920726,8.31025327 9.58951057,8.51736111 9.58951057,8.77287582 C9.58951057,9.02839052 9.79920726,9.23560049 10.0579159,9.23560049 C10.3166245,9.23560049 10.5263212,9.02839052 10.5263212,8.77287582 C10.5263212,8.51736111 10.3166245,8.31025327 10.0579159,8.31025327" id="Shape" fill="#FFFFFF"></path>
                    <path d="M9.2,8.50531046 L9.2,8.50531046 L9.20465303,8.50428922 L9.20599724,8.50010212 L10.0648437,5.90594363 L10.0648437,5.29881536 C10.0648437,5.2943219 10.0647403,5.29197304 10.0647403,5.29197304 C9.58640855,5.19505719 9.09463465,5.14185049 8.59127987,5.14185049 C8.42325368,5.14185049 8.25657169,5.14889706 8.09092371,5.16002859 C8.06683134,5.16166258 8.04263557,5.16309232 8.0184398,5.16493056 C7.15638787,5.22957516 6.30746783,5.45149101 5.52141544,5.80586193 C4.84734605,6.10988562 4.22104779,6.51031454 3.65803079,6.98508987 L3.65803079,6.98519199 C3.65782399,6.98549837 3.65741039,6.98570261 3.65710018,6.98600899 C3.50592831,7.11284722 3.36106388,7.24673203 3.21961167,7.38398693 C3.19314108,7.40951797 3.16625689,7.43484477 3.14009651,7.46078431 C3.00691636,7.5933415 2.87818244,7.73029003 2.75368796,7.87122141 C2.72670037,7.90196078 2.70012638,7.93331291 2.67344899,7.96435866 C2.5484375,8.11008987 2.42683824,8.25857843 2.31133961,8.41196895 C2.30172335,8.4248366 2.29272748,8.43831699 2.28321461,8.45118464 C2.17309283,8.59916258 2.06824449,8.75102124 1.96722197,8.90543301 C1.94747243,8.93555964 1.92720588,8.96527778 1.90786994,8.99571078 C1.82618336,9.12367239 1.75018382,9.25510621 1.67470129,9.38684641 L5.58707491,9.38684641 L9.2,8.50531046" id="Shape" fill="#BBBCBD"></path>
                    <path d="M12.5029297,8.21343954 C12.5108915,8.11223448 12.5174058,8.01113154 12.5226792,7.90982435 C12.5298139,7.77277369 12.5346737,7.63551879 12.5373621,7.49836601 C12.5394301,7.39185049 12.5391199,7.28523284 12.5386029,7.17871732 C12.5386029,7.14797794 12.5393267,7.11723856 12.5390165,7.08639706 C12.5361213,6.81188725 12.5252642,6.53707108 12.5083065,6.26194853 C12.5074793,6.26143791 12.5067555,6.26092729 12.5059283,6.26041667 C12.5056181,6.2597018 12.5052045,6.25908905 12.5048943,6.25847631 C12.5038603,6.25776144 12.4998277,6.25551471 12.4961052,6.25347222 C12.4927964,6.25153186 12.4899012,6.24989788 12.4836972,6.24642565 C12.4326172,6.21742239 12.3070887,6.14644608 12.1943819,6.08323121 C12.1919003,6.08190359 12.1895221,6.08047386 12.1871438,6.07914624 C12.1586052,6.06321487 12.1311006,6.04779412 12.1061811,6.03390523 C12.1056641,6.03359886 12.1051471,6.03339461 12.1047335,6.03308824 C12.0832261,6.02113971 12.0652344,6.01123366 12.0485869,6.00204248 C12.045278,6.00020425 12.040625,5.99765114 12.037523,5.99591503 C12.019221,5.98590686 12.0050551,5.97834967 11.9966797,5.97395833 C11.8168658,5.88184232 11.6333295,5.79656863 11.4466912,5.71875 C11.0017578,5.53319036 10.4024472,5.37050654 10.0648437,5.29197304 L10.0648437,5.90594363 L10.916142,8.50428922 L10.9170726,8.50643382 C11.0049632,8.58915441 11.0805492,8.68423203 11.141142,8.78901144 L11.141142,8.78911356 C11.1609949,8.82342729 11.1791935,8.85886438 11.1956342,8.89511846 C11.1960478,8.89593546 11.1964614,8.89665033 11.1966682,8.8973652 C11.2131089,8.93351716 11.227585,8.97058824 11.2403033,9.00847631 C11.2406135,9.00939542 11.2410271,9.01021242 11.2413373,9.01102941 C11.2539522,9.04891748 11.2648093,9.08752042 11.2737017,9.12683824 C11.2739085,9.1279616 11.2742187,9.12888072 11.274529,9.12990196 C11.2834214,9.16962827 11.2903493,9.21017157 11.2953125,9.25122549 C11.2953125,9.25183824 11.2955193,9.25245098 11.2956227,9.2529616 C11.3004825,9.29462827 11.3032744,9.3370098 11.3038948,9.37990196 L11.3071002,9.38684641 L12.349483,9.38684641 C12.4198989,9.01011029 12.4690142,8.6283701 12.5001379,8.24499592 C12.5008617,8.23447712 12.5021025,8.22395833 12.5029297,8.21343954" id="Shape" fill="#E3DDDB"></path>
                    <path d="M13.8666861,7.29473039 C13.8657597,7.2961683 13.8650979,7.29786765 13.8643038,7.29930556 C13.8650979,7.29786765 13.865892,7.29629902 13.8666861,7.29486111" id="Shape" fill="#FCB03F"></path>
                    <path d="M9.20599724,8.50010212 L9.20599724,8.50010212 C9.26162684,8.44852941 9.32211627,8.40185866 9.38653493,8.36080474 C9.38674173,8.36080474 9.38694853,8.36070261 9.38725873,8.36049837 C9.45105699,8.31995507 9.51899127,8.28513072 9.59013097,8.25653595 C9.59199219,8.25571895 9.5939568,8.25520833 9.59571461,8.25439134 C9.66592371,8.22661356 9.73902803,8.20475899 9.81482077,8.18984886 C9.81750919,8.18933824 9.82009421,8.18913399 9.82288603,8.18862337 C9.89909237,8.17422386 9.97736673,8.16605392 10.0579159,8.16605392 C10.1398093,8.16605392 10.2196347,8.17422386 10.2970818,8.18923611 C10.2990464,8.18964461 10.3009076,8.18974673 10.3028722,8.1900531 C10.3801126,8.20537173 10.4546645,8.22783905 10.526011,8.25653595 C10.5271484,8.25704657 10.5283892,8.25745507 10.5296301,8.25786356 C10.6742877,8.31668709 10.8055032,8.40155229 10.9170726,8.50643382 L10.916142,8.50428922 L10.0648437,5.90594363 L9.20599724,8.50010212" id="Shape" fill="#909393"></path>
                    <path d="M8.90355009,9.86254085 C8.87408088,9.79156454 8.85112592,9.71742239 8.83551241,9.64052288 C8.83509881,9.63888889 8.8349954,9.63715278 8.8347886,9.63562092 C8.81938189,9.55861928 8.81090303,9.47916667 8.81090303,9.39767157 C8.81090303,9.35416667 8.81338465,9.31137663 8.81783088,9.26919935 C8.81886489,9.2592933 8.82103631,9.24979575 8.82227711,9.23988971 C8.82651654,9.20761846 8.83106618,9.17544935 8.83768382,9.1439951 C8.83964844,9.13490605 8.84264706,9.12612337 8.84461167,9.11693219 C8.85226333,9.08517157 8.86032858,9.05341095 8.87025506,9.02246732 C8.87242647,9.0160335 8.87511489,9.00990605 8.87738971,9.0033701 C8.88876379,8.97028186 8.90096507,8.93739788 8.91513097,8.90563725 C8.91668199,8.90196078 8.91875,8.89848856 8.92040441,8.89481209 C8.93591452,8.86049837 8.95276884,8.82679739 8.97138097,8.79442402 C8.97220818,8.79309641 8.97303539,8.79187092 8.97365579,8.79064542 C9.03476562,8.6849469 9.11117877,8.58874592 9.2,8.50531046 L5.58707491,9.38684641 L5.58014706,9.38684641 L9.15863971,10.2494894 C9.05141314,10.1390931 8.96465993,10.0090891 8.9046875,9.86550245 C8.9041705,9.86458333 8.90396369,9.86356209 8.90355009,9.86254085" id="Shape" fill="#676A6A"></path>
                    <path d="M17.0327091,9.19403595 C17.0349839,9.17810458 17.0383961,9.16319444 17.041188,9.14767157 C17.0501838,9.09691585 17.0609375,9.04748775 17.0747932,9.00051062 C17.0763442,8.99520016 17.0769646,8.98917484 17.078619,8.9839665 L17.550023,6.85202206 L17.5499196,5.63643791 C17.1647518,5.3222018 16.7522863,5.15042892 16.3228631,5.15042892 C15.780216,5.15042892 15.2742762,5.4463848 14.8959329,5.81188725 C14.4819164,6.21190768 14.1619945,6.71517565 13.9032858,7.22303922 C13.8913948,7.24642565 13.8791935,7.26889297 13.8674058,7.29238154 C13.9471278,7.36060049 14.0260225,7.42973856 14.1038833,7.50010212 C14.2800781,7.65931373 14.4524472,7.82271242 14.6225414,7.98835784 C14.7017463,8.06556373 14.7795037,8.14440359 14.8574678,8.22293709 C14.9401884,8.3061683 15.0230124,8.38919526 15.1044922,8.47375408 C15.2092371,8.58251634 15.3130515,8.69219771 15.4158318,8.80300245 C15.4591567,8.84957108 15.5023782,8.89634395 15.5451861,8.94332108 C15.6691636,9.07883987 15.7925207,9.21497141 15.9138097,9.35294118 L15.9140165,9.35314542 C15.9343865,9.37418301 15.9486558,9.38929739 15.954136,9.39542484 L17.0173024,9.39542484 C17.0173024,9.38694853 17.0190602,9.37918709 17.0191636,9.37071078 C17.0201976,9.31004902 17.024437,9.25081699 17.0327091,9.19403595" id="Shape" fill="#E3DDDB"></path>
                    <path d="M13.868142,7.2988848 C13.8676126,7.2974469 13.8670832,7.29600899 13.8666861,7.29483252 C13.865892,7.29627042 13.8650979,7.29783905 13.8643038,7.29927696 C13.8650979,7.30006127 13.8690685,7.30398284 13.8702597,7.30502859 C13.8695979,7.30293709 13.8689361,7.30097631 13.868142,7.2988848" id="Shape" fill="#E3DDDB"></path>
                    <path d="M1.03372013,10.7284518 C1.03682215,10.7205882 1.04013097,10.7128268 1.043233,10.7049632 C1.11168428,10.5281863 1.18664982,10.3537582 1.26533778,10.1809641 C1.28736213,10.1328636 1.31000689,10.0851716 1.33275506,10.0373775 C1.39727711,9.90175654 1.4655216,9.76797386 1.5362477,9.63541667 C1.56499311,9.5814951 1.59311811,9.52736928 1.62289752,9.47395833 C1.63933824,9.44444444 1.65795037,9.41625817 1.67470129,9.38684641 C1.75018382,9.25510621 1.82618336,9.12367239 1.90786994,8.99571078 C1.92720588,8.96517565 1.94747243,8.93555964 1.96722197,8.90543301 C2.06824449,8.75102124 2.17309283,8.59916258 2.28321461,8.45118464 C2.29272748,8.43831699 2.30172335,8.4248366 2.31133961,8.41196895 C2.42683824,8.25857843 2.5484375,8.11008987 2.67344899,7.96435866 C2.70012638,7.93331291 2.72659697,7.90206291 2.75368796,7.87122141 C2.87818244,7.73029003 3.00691636,7.5933415 3.14009651,7.46078431 C3.16636029,7.43484477 3.19314108,7.40951797 3.21961167,7.38398693 C3.36106388,7.24673203 3.50592831,7.11284722 3.65710018,6.98600899 C3.65741039,6.98570261 3.65782399,6.98539624 3.65803079,6.98508987 C4.25268842,5.01776961 6.17284007,3.80882353 8.32574678,3.80882353 C9.19224494,3.80882353 10.0539867,4.05545343 10.7924747,4.50163399 C11.5499885,4.95925245 12.0664752,5.40635212 12.4674632,6.1879085 C12.4694278,6.19189134 12.4714959,6.19577206 12.4734605,6.19965278 C12.4835938,6.21946487 12.4949678,6.23845997 12.5048943,6.25847631 C12.5052045,6.25908905 12.5056181,6.2597018 12.5059283,6.26041667 C12.5067555,6.26092729 12.5074793,6.26143791 12.5083065,6.26194853 C12.8437385,6.46599265 13.1637638,6.69730392 13.4679688,6.95077614 C13.5694049,7.03533497 13.6690832,7.12224265 13.7670037,7.21160131 C13.7992647,7.24080882 13.8324563,7.2685866 13.8643038,7.29830474 C13.8649242,7.29707925 13.8654412,7.29585376 13.866165,7.29473039 C13.8664752,7.2939134 13.8668888,7.29299428 13.8673024,7.29227941 C13.8782629,7.27011846 13.8890165,7.24754902 13.9000804,7.22569444 C14.2034582,5.33466095 15.1673598,4.30351307 16.1635225,4.30351307 C16.9144187,4.30351307 17.4602711,4.74571078 17.8725299,5.93607026 L17.8767693,5.94883578 C17.8770795,5.94924428 17.8774931,5.9497549 17.8778033,5.95026552 C17.9942325,6.0751634 18.1076631,6.2128268 18.2176815,6.36366422 L18.2174747,6.36356209 C18.2196461,6.36642157 18.221921,6.3690768 18.2240924,6.3720384 L18.223989,6.37193627 L18.2240924,6.3720384 C18.2299862,6.38929739 18.2350528,6.40706699 18.2407399,6.42432598 L18.2407399,6.42422386 L18.2252298,6.36223448 C16.985972,2.73866422 13.5158433,0.129799837 9.42861903,0.129799837 C4.30201057,0.129799837 0.146128217,4.234375 0.146128217,9.29769199 C0.146128217,10.2958538 0.307640165,11.2568423 0.607502298,12.1510417 C0.6078125,12.1494077 0.608329504,12.1476716 0.608743107,12.1458333 C0.667681526,11.8761234 0.738304228,11.6080474 0.820507813,11.3428309 C0.884616268,11.1361315 0.955859375,10.9310662 1.03372013,10.7284518" id="Shape" fill="#525353"></path>
                    <path d="M18.3638902,9.39899918 L18.0401425,9.7567402 L18.0401425,9.75663807 C18.0399357,9.75745507 18.0396255,9.75816993 18.0394187,9.75898693 C18.027114,9.80606618 18.0120175,9.84997958 17.9953699,9.89236111 C17.9910271,9.90349265 17.9861673,9.91401144 17.9814108,9.9248366 C17.9685892,9.95486111 17.9547335,9.98325163 17.9397403,10.0103145 C17.9317785,10.0248162 17.92392,10.0395221 17.9153378,10.0531046 C17.9018957,10.0743464 17.8874196,10.0936479 17.8727367,10.112643 C17.8515395,10.1399101 17.829205,10.1644199 17.805733,10.1860703 C17.7961167,10.1949551 17.7868107,10.2046569 17.7766774,10.2126225 C17.7585823,10.2270221 17.7396599,10.2389706 17.7204274,10.2498979 C17.7129825,10.2539828 17.7057445,10.2578636 17.6982996,10.26154 C17.6518727,10.2839052 17.603171,10.2969771 17.5525046,10.2969771 C17.2583295,10.2969771 17.019784,9.89338235 17.019784,9.39542484 L15.9509306,9.39542484 C15.9512408,9.39573121 15.9513442,9.39603758 15.951551,9.39624183 C16.1500804,9.62254902 16.3450942,9.85191993 16.537523,10.0835376 C16.5397978,10.0863971 16.5420726,10.0891544 16.5444508,10.0919118 C16.7315028,10.317402 16.9157629,10.5449346 17.0980584,10.7739992 C17.1070542,10.7852328 17.1159467,10.7963644 17.1249426,10.807598 C17.2978286,11.0253268 17.46875,11.2444853 17.6382238,11.4642565 C17.6546645,11.4853962 17.6712086,11.5066381 17.6876494,11.527982 C17.8668428,11.7608252 18.0443819,11.994281 18.2206801,12.2280433 C18.221921,12.2297794 18.2230584,12.2313113 18.2244026,12.2329453 C18.5297449,11.3405842 18.700563,10.3872549 18.7112132,9.39542484 L18.4107307,9.38419118 L18.3638902,9.39899918" id="Shape" fill="#FFFFFF"></path>
                    <path d="M8.0184398,5.16493056 C8.04263557,5.16309232 8.06683134,5.16166258 8.09092371,5.16002859 C8.25657169,5.14889706 8.42325368,5.14185049 8.59127987,5.14185049 C9.09463465,5.14185049 9.58640855,5.19505719 10.0647403,5.29197304 L10.0648438,5.29197304 C10.4024472,5.37050654 11.0017578,5.53319036 11.4466912,5.71875 C11.6333295,5.79656863 11.8168658,5.88184232 11.9966797,5.97395833 C12.0050551,5.97834967 12.019221,5.98600899 12.037523,5.99591503 C12.040625,5.99765114 12.045278,6.00020425 12.0485869,6.00204248 C12.0652344,6.01123366 12.0834329,6.02113971 12.1047335,6.03308824 C12.1051471,6.03339461 12.1056641,6.03359886 12.1061811,6.03390523 C12.131204,6.04789624 12.1585018,6.06321487 12.1871438,6.07914624 C12.1895221,6.08047386 12.1919003,6.08190359 12.1943819,6.08323121 C12.3087431,6.14726307 12.4353056,6.21905637 12.4836972,6.24642565 C12.4899012,6.24989788 12.4927964,6.25153186 12.4961052,6.25347222 C12.4985869,6.25490196 12.5039637,6.25786356 12.5048943,6.25847631 C12.4949678,6.23845997 12.4835938,6.21946487 12.4734605,6.19965278 C12.4714959,6.19577206 12.4694278,6.19189134 12.4674632,6.1879085 C12.0664752,5.40635212 11.4491728,4.73600899 10.691659,4.27839052 C9.95317096,3.83220997 9.09142923,3.58558007 8.22482767,3.58558007 C6.07202436,3.58558007 4.25268842,5.01776961 3.65803079,6.98508987 C4.22104779,6.51031454 4.84734605,6.10988562 5.52141544,5.80586193 C6.30746783,5.45149101 7.15638787,5.22957516 8.0184398,5.16493056" id="Shape" fill="#000000"></path>
                    <path d="M18.2240924,6.3720384 L18.223989,6.37193627 L18.2240924,6.3720384 C18.221921,6.3690768 18.2196461,6.36642157 18.2174747,6.36356209 L18.2176815,6.36366422 C18.1076631,6.2128268 17.9942325,6.0751634 17.8778033,5.95026552 C17.8775965,5.94985703 17.8771829,5.94934641 17.8768727,5.94904003 C17.8771829,5.94934641 17.8775965,5.94985703 17.8778033,5.95026552 C17.8768727,5.94914216 17.8758387,5.94781454 17.8748047,5.94669118 C17.8218635,5.89011438 17.7686121,5.83609069 17.7144301,5.78482435 C17.6940602,5.76552288 17.6729665,5.74867239 17.6523897,5.73018791 C17.6183709,5.69965278 17.5845588,5.66809641 17.550023,5.64011438 L17.550023,6.85631127 L18.0214269,8.98845997 L18.0214269,8.98835784 C18.026597,9.00490196 18.032801,9.02042484 18.0373506,9.0375817 L18.3638902,9.39899918 L18.3670956,9.39542484 L18.708835,9.39542484 C18.7092486,9.36417484 18.7112132,9.33333333 18.7112132,9.30198121 L18.7112132,9.30147059 C18.7111098,8.29585376 18.5438074,7.32955474 18.2407399,6.42422386 L18.2407399,6.42432598 C18.2350528,6.40706699 18.2299862,6.38929739 18.2240924,6.3720384" id="Shape" fill="#BBBCBD"></path>
                    <path d="M14.8959329,5.81188725 C15.2742762,5.4463848 15.780216,5.15042892 16.3228631,5.15042892 C16.7522863,5.15042892 17.1647518,5.3222018 17.5499196,5.63643791 C17.5499196,5.63643791 17.550023,5.63919526 17.550023,5.64011438 L17.550023,5.64072712 L17.550023,5.64011438 C17.5845588,5.66809641 17.6183709,5.69965278 17.6523897,5.73018791 C17.6729665,5.74867239 17.6940602,5.76552288 17.7144301,5.78482435 C17.7686121,5.83609069 17.8218635,5.89011438 17.8748047,5.94669118 C17.8758387,5.94781454 17.8768727,5.94914216 17.8778033,5.95026552 C17.8775965,5.94985703 17.8771829,5.94934641 17.8768727,5.94904003 L17.8767693,5.94893791 L17.8725299,5.93607026 C17.4602711,4.74571078 16.7950942,3.97232435 16.0444049,3.97232435 C15.0481388,3.97232435 14.2034582,5.33466095 13.9000804,7.22569444 L13.9032858,7.22303922 C14.1619945,6.71517565 14.4819164,6.21190768 14.8959329,5.81188725" id="Shape" fill="#000000"></path>
                    <path d="M13.5497587,17.434232 C13.5497587,17.434232 13.415648,17.3292484 13.245347,17.135723 C13.2054343,17.0903799 13.1642808,17.0418709 13.1214729,16.9866217 C13.0893153,16.9452614 13.056744,16.9010417 13.0241728,16.8541667 C13.0024586,16.8229167 12.9809513,16.7904412 12.9595473,16.7569444 C12.8951287,16.6563521 12.8437385,16.5339052 12.7870749,16.4128881 C12.7215188,16.2727737 12.721312,16.1795343 12.6836742,16.0490196 C12.65679,15.9556781 12.6344554,15.8581495 12.6178079,15.7566381 C12.5928883,15.604473 12.5809972,15.4433211 12.5864775,15.2737949 C12.5893727,15.1805556 12.5990924,15.0840482 12.6132583,14.9858047 C12.6269072,14.8913399 12.6457261,14.7946283 12.6708525,14.6958742 C12.7459214,14.3994077 12.8756893,14.0836397 13.078148,13.7503064 C13.078665,13.7493873 13.1291245,13.6370507 13.1296415,13.6361315 C13.195818,13.5272672 13.2105009,13.532067 13.2733686,13.4271855 C14.1588925,11.9511846 14.6366039,10.8350694 14.4029182,9.11652369 C14.3861673,8.99387255 14.3405676,8.71905637 14.315648,8.58997141 C14.3024127,8.67922794 14.2524701,8.96364379 14.2510225,8.96977124 C14.2422335,9.00898693 14.2181411,9.05157271 14.2090418,9.07822712 C13.8243911,10.2026144 13.2188764,11.0297181 12.3476218,11.9636438 C12.2295381,12.0901757 12.1058709,12.2185458 11.9793084,12.3481413 C11.7663028,12.5661765 11.5429573,12.7889093 11.3066866,13.0211397 C11.2123851,13.1137663 11.1162224,13.2077206 11.0184053,13.3035131 C10.9285501,13.3913399 10.8167739,13.5791462 10.6833869,13.7175245 C10.60108,13.9451593 10.5075023,14.2018995 10.4284007,14.4719158 C10.3927275,14.4585376 10.3587086,14.4465891 10.322415,14.4327002 C8.62995175,13.786152 7.49678309,12.9222835 7.49678309,12.9222835 C7.49678309,12.9222835 8.36865809,14.0435049 9.83756893,15.0959967 C9.97974494,15.1979167 10.1199563,15.286152 10.2572725,15.3643791 C10.1966797,16.311683 10.6197955,17.2210989 12.5297105,17.4923407 C12.852631,17.5381944 13.1833065,17.5360498 13.5163603,17.4989788 C13.5130515,17.4891748 13.5349724,17.4893791 13.5332146,17.4839665 C13.5313534,17.4784518 13.5509995,17.4639502 13.5509995,17.4639502" id="Shape" fill="#000000"></path>
                    <path d="M12.5281595,14.9958129 C14.2237247,15.2660335 16.7331572,15.2217116 19.3382353,14.0170547 C19.4009995,13.9880515 19.4701746,14.0644404 19.5329389,14.0340074 C19.5329389,14.0340074 17.7524816,15.8300654 15.6261489,16.8454861 C15.5640051,16.8751021 15.5026884,16.9066585 15.4399242,16.9348448 C15.2344669,17.0275735 15.025494,17.1083538 14.8156939,17.1829044 C14.4042624,17.328942 13.9873506,17.4397467 13.5734375,17.4909109 C13.5544118,17.4933619 13.535386,17.4969363 13.5163603,17.4989788 C13.5130515,17.4891748 13.5103631,17.4812092 13.5086052,17.4757966 C13.506744,17.4702819 13.5058134,17.4673203 13.5058134,17.4673203 C13.5058134,17.4673203 13.3715993,17.3622345 13.2012983,17.1687092 C13.1613856,17.123366 13.1202321,17.074857 13.0775276,17.0196078 C13.0453699,16.9782475 13.0127987,16.9340278 12.9802275,16.8871528 C12.9585133,16.8559028 12.9369026,16.8234273 12.9154986,16.7899306 C12.8511834,16.6893382 12.7886259,16.578125 12.7319623,16.45721 C12.6754021,16.3362949 12.6247358,16.2054739 12.5844095,16.0653595 C12.5574219,15.972018 12.5350873,15.8744894 12.5184398,15.7729779 C12.4935202,15.6207108 12.4817325,15.4596609 12.4871094,15.2901348 C12.4900046,15.1967933 12.4997243,15.1003881 12.5138902,15.0021446 L12.5281595,14.9958129" id="Shape" fill="#9F2254"></path>
                    <path d="M11.3128906,13.0892565 C11.5492647,12.8570261 11.7726103,12.6342933 11.9856158,12.4162582 C12.1120749,12.2866626 12.2358456,12.1582925 12.3539292,12.0317606 C13.2250804,11.097835 13.864614,10.2238562 14.2493681,9.09946895 C14.258364,9.07281454 14.2674632,9.03768382 14.2762523,8.99816176 C14.2776999,8.99203431 14.2790441,8.98621324 14.2803883,8.97988154 C14.2893842,8.9379085 14.2981733,8.89123775 14.3069623,8.83864379 C14.3104779,8.80238971 14.425563,8.72926879 14.4287684,8.69526144 C14.3322955,8.2056781 14.1099839,7.69097222 13.8673024,7.29799837 C13.8679228,7.29963235 13.8684398,7.30116422 13.8689568,7.3027982 C13.8680262,7.30198121 13.8649242,7.29891748 13.8643038,7.29830474 C13.8324563,7.2685866 13.7992647,7.24080882 13.7670037,7.21160131 C13.6690832,7.12224265 13.5694049,7.03533497 13.4679688,6.95077614 C13.1636604,6.69730392 12.8437385,6.46599265 12.5083065,6.26194853 C12.5252642,6.53707108 12.5361213,6.81188725 12.5390165,7.08639706 C12.5394301,7.11723856 12.5386029,7.14797794 12.5386029,7.17871732 C12.5391199,7.28523284 12.5394301,7.39185049 12.5373621,7.49836601 C12.5346737,7.63551879 12.5298139,7.77277369 12.5226792,7.90982435 C12.5174058,8.01113154 12.5108915,8.11223448 12.5029297,8.21343954 C12.5021025,8.22395833 12.5008617,8.23447712 12.5001379,8.24499592 C12.4690142,8.6283701 12.4198989,9.01011029 12.349483,9.38684641 L12.2270565,9.95863971 C11.9713465,10.9825368 11.4519646,11.9112541 11.0249196,12.8702002 C10.9116958,13.1244894 10.8042624,13.3816381 10.7100643,13.6435866 C10.7014821,13.6675858 10.6922794,13.6928105 10.6833869,13.7175245 C10.8167739,13.5791462 10.9348575,13.4594567 11.0246094,13.3716299 C11.1225299,13.2759395 11.2186926,13.1818832 11.3128906,13.0892565" id="Shape" fill="#FCB03F"></path>
                    <path d="M17.6382238,11.4642565 C17.46875,11.2444853 17.2978286,11.0253268 17.1249426,10.807598 C17.1160501,10.7963644 17.1069508,10.7852328 17.0980584,10.7739992 C16.9157629,10.5449346 16.7315028,10.317402 16.5444508,10.0919118 C16.5420726,10.0891544 16.5397978,10.0863971 16.537523,10.0835376 C16.3450942,9.85191993 16.1500804,9.62254902 15.951551,9.39624183 C15.9390395,9.38184232 15.926528,9.36723856 15.9138097,9.35294118 C15.7925207,9.21497141 15.6691636,9.07883987 15.5451861,8.94332108 C15.5022748,8.89644608 15.4591567,8.84957108 15.4158318,8.80300245 C15.3130515,8.69219771 15.2092371,8.58251634 15.1044922,8.47375408 C15.022909,8.38929739 14.9402918,8.30606618 14.8574678,8.22293709 C14.7795037,8.14440359 14.7017463,8.06556373 14.6225414,7.98835784 C14.4523437,7.82281454 14.2800781,7.65931373 14.1038833,7.50010212 C14.0259191,7.42973856 13.9470244,7.36049837 13.8673024,7.29227941 C13.8668888,7.29299428 13.8664752,7.2939134 13.866165,7.29473039 C14.033881,7.77083333 14.2252757,8.25285948 14.3211282,8.74938725 C14.3460478,8.87857435 14.3666245,9.00418709 14.3833755,9.12694036 C14.6170611,10.845384 14.0595244,11.9674224 13.1741039,13.4434232 C13.1105124,13.5492239 13.0454733,13.6568627 12.9787799,13.7665441 C12.7763212,14.1000817 12.6466567,14.4157475 12.5714844,14.7122141 C12.5464614,14.8109681 12.5275391,14.9076797 12.5138902,15.0021446 C14.2502987,15.2789011 16.8613741,15.3304739 19.5329389,14.0340074 C19.5329389,14.0340074 19.0090074,13.2734886 18.2206801,12.2280433 C18.0443819,11.994281 17.8668428,11.7608252 17.6876494,11.527982 C17.671312,11.5066381 17.6546645,11.4853962 17.6382238,11.4642565" id="Shape" fill="#DF0067"></path>
                    <path d="M6.10500919,17.8496732 C6.18979779,17.8818423 6.27603401,17.9108456 6.36206342,17.9405637 C7.32213925,18.2729779 8.35345818,18.4559845 9.42872243,18.4559845 C10.6547449,18.4559845 11.8241039,18.2188521 12.8955423,17.7923815 C12.9522059,17.7699142 13.0077321,17.7452002 13.0637753,17.7216095 C13.1547679,17.6833129 13.2451402,17.6439951 13.3345818,17.6030433 C13.414614,17.5662786 13.4946461,17.5298203 13.5734375,17.4909109 C13.5544118,17.4933619 13.535386,17.4969363 13.5163603,17.4989788 C13.1833065,17.5360498 12.852631,17.5381944 12.5297105,17.4923407 C10.6197955,17.2210989 10.1966797,16.311683 10.2572725,15.3643791 C10.1199563,15.286152 9.97974494,15.1979167 9.83756893,15.0959967 C8.36865809,14.0435049 7.49678309,12.9222835 7.49678309,12.9222835 C7.49678309,12.9222835 8.62995175,13.786152 10.322415,14.4327002 C10.3587086,14.4465891 10.3927275,14.4585376 10.4284007,14.4719158 C10.5075023,14.2018995 10.60108,13.9451593 10.6833869,13.7175245 C10.6922794,13.6928105 10.7014821,13.6675858 10.7100643,13.6435866 C10.8042624,13.3816381 10.9116958,13.1244894 11.0249196,12.8702002 C11.4519646,11.9112541 11.9713465,10.9825368 12.2270565,9.95863971 L12.349483,9.38684641 L11.3049288,9.38684641 L11.3048254,9.38694853 C11.3048254,9.38756127 11.3049288,9.38827614 11.3049288,9.38899101 L11.3045152,9.38919526 C11.3045152,9.39195261 11.3049288,9.39470997 11.3049288,9.39767157 C11.3049288,9.56770833 11.2699793,9.72967729 11.2069049,9.87704248 C11.1753676,9.95077614 11.1366958,10.0207312 11.0919233,10.0862949 C11.0022748,10.2172181 10.8878102,10.3303717 10.7550437,10.4189134 C10.6887638,10.4632353 10.6178309,10.5013276 10.543279,10.5323734 C10.3940717,10.5947712 10.2300781,10.6292892 10.0579159,10.6292892 C10.0141774,10.6292892 9.97095588,10.6269404 9.92845818,10.622549 C9.91842831,10.6215278 9.90881204,10.6193832 9.89888557,10.6181577 C9.86621094,10.6139706 9.83374311,10.6095792 9.80220588,10.6031454 C9.79331342,10.6012051 9.78483456,10.5984477 9.7760455,10.5964052 C9.74357767,10.5890523 9.71110983,10.5810866 9.67967601,10.5711806 C9.67388557,10.5692402 9.66830193,10.5668913 9.66251149,10.564951 C9.62849265,10.5536152 9.59468061,10.5414624 9.56200597,10.5273693 C9.55900735,10.5261438 9.55621553,10.5246119 9.55332031,10.5232843 C9.51806066,10.5077614 9.48342142,10.4910131 9.44991958,10.4724265 L9.44836857,10.4715074 C9.3410386,10.4116626 9.24342831,10.3368056 9.15863971,10.2494894 L5.58014706,9.38684641 L1.67470129,9.38684641 C1.65795037,9.41625817 1.63933824,9.44444444 1.62289752,9.47395833 C1.59311811,9.52736928 1.56499311,9.58159722 1.5362477,9.63541667 C1.4655216,9.76797386 1.39727711,9.90175654 1.33275506,10.0373775 C1.31000689,10.0850694 1.28736213,10.1328636 1.26533778,10.1809641 C1.18664982,10.3537582 1.11168428,10.5281863 1.043233,10.7049632 C1.04013097,10.7128268 1.03682215,10.7205882 1.03372013,10.7284518 C0.955859375,10.9310662 0.884616268,11.1361315 0.820507812,11.3428309 C0.738304228,11.6080474 0.667681526,11.8761234 0.608743107,12.1458333 C1.22356388,13.9979575 2.41980699,15.5894608 3.98353631,16.7111928 C4.02903263,16.7437704 4.07701057,16.7727737 4.1231273,16.8046364 C4.38762638,16.9872345 4.66091452,17.1580882 4.94443934,17.3131127 C5.31668199,17.5168505 5.70360754,17.6975082 6.10500919,17.8496732" id="Shape" fill="#FFFFFF"></path>
                </g>
            </g>
        </g>
    </g>
</svg>