<?xml version="1.0" encoding="UTF-8"?>
<svg width="30px" height="30px" viewBox="0 0 30 30" version="1.1" xmlns="http://www.w3.org/2000/svg" xmlns:xlink="http://www.w3.org/1999/xlink">
    <!-- Generator: Sketch 45.1 (43504) - http://www.bohemiancoding.com/sketch -->
    <title>icn-photoshop, ps, psd, adobe, web</title>
    <desc>Created with Sketch.</desc>
    <defs></defs>
    <g id="Page-1" stroke="none" stroke-width="1" fill="none" fill-rule="evenodd">
        <g id="Types-Icons" transform="translate(-40.000000, -604.000000)">
            <g id="icn-photoshop,-ps,-psd,-adobe,-web" transform="translate(40.000000, 603.998138)">
                <rect id="bg" fill="#021721" x="0" y="0" width="29.9044586" height="30" rx="3"></rect>
                <path d="M5.04771926,7.14805376 C5.04771926,7.14805376 7.47176956,7.08347437 9.46718929,7.08347437 C11.4835677,7.08347437 12.9212821,7.56387257 13.8865315,8.40806371 C14.8090968,9.20579393 15.4312118,10.5657143 15.4312118,12.1138079 C15.4312118,13.6619014 14.9591303,14.9286411 14.1008468,15.8194226 C12.9853083,16.9687805 11.6853589,17.6489995 9.46718929,17.7432155 C8.85440348,17.7692285 8.28724114,17.7754405 8.28724114,17.7754405 L8.28724114,22.8077153 L5.04759146,22.8077153 L5.04771926,7.14805376 L5.04771926,7.14805376 L5.04771926,7.14805376 Z M8.28711334,14.9872673 C8.63906582,15.0219512 8.85964315,15.0052563 9.38130982,14.9989149 C11.1190911,14.9778198 12.1914343,13.9076655 12.1914343,12.2892982 C12.1914343,10.8354206 11.3072081,9.64167247 9.63894823,9.57981085 C8.97402131,9.5552215 8.28711334,9.57981085 8.28711334,9.57981085 L8.28711334,14.9872673 L8.28711334,14.9872673 Z" id="Shape" fill="#40C8FF"></path>
                <path d="M16.6675184,19.3017919 C17.3204324,19.7075162 18.861151,20.3151319 19.9113854,20.3151319 C20.9843675,20.3151319 21.4274392,19.9321852 21.4274392,19.3351817 C21.4274392,18.7374017 21.0775314,18.1094674 19.7475498,17.6554704 C17.391104,16.8428571 16.4811906,15.8701543 16.5047052,14.5086809 C16.5047052,12.3097461 18.3242765,10.6609657 21.1473085,10.6609657 C22.4772901,10.6609657 23.5395374,11.1012444 24.2389695,11.4594724 L24.2389695,14.0985565 C23.725354,13.8115082 22.2438053,13.1706322 21.2641148,13.1706322 C20.4004638,13.1706322 19.9107464,13.5289895 19.9107464,14.125993 C19.9107464,14.6757591 20.3543292,14.9625485 21.7540879,15.4646889 C23.9235669,16.2292882 24.8334803,17.3521155 24.8566115,19.0727227 C24.8566115,21.2475859 23.2011314,22.9769935 19.9107464,22.8720358 C18.7816614,22.8360577 17.5306582,22.3841314 16.6673906,21.9067098 L16.6673906,19.3017919 L16.6675184,19.3017919 Z" id="Shape" fill="#40C8FF"></path>
            </g>
        </g>
    </g>
</svg>