<?xml version="1.0" encoding="UTF-8"?>
<svg width="30px" height="30px" viewBox="0 0 30 30" version="1.1" xmlns="http://www.w3.org/2000/svg" xmlns:xlink="http://www.w3.org/1999/xlink">
    <!-- Generator: Sketch 45.1 (43504) - http://www.bohemiancoding.com/sketch -->
    <title>icn-responsive, web</title>
    <desc>Created with Sketch.</desc>
    <defs></defs>
    <g id="Page-1" stroke="none" stroke-width="1" fill="none" fill-rule="evenodd">
        <g id="Types-Icons" transform="translate(-516.000000, -428.000000)">
            <g id="icn-responsive,-web" transform="translate(516.000000, 428.000000)">
                <rect id="bg" fill="#243238" x="0" y="0" width="30" height="30" rx="3"></rect>
                <path d="M5,6 L5,21.4623786 L25,21.4623786 L25,6 L5,6 L5,6 Z M22.9558738,19.418301 L7.04412621,19.418301 L7.04407767,8.04412621 L22.9558252,8.04402913 L22.9558252,19.418301 L22.9558738,19.418301 Z M17.8346117,22.6707767 L19.8786408,24.7148058 L10.1213592,24.7148058 L12.1653883,22.6707767 L17.8346117,22.6707767 L17.8346117,22.6707767 Z" id="computer-icon" fill="#FFFFFF"></path>
                <path d="M16.8272626,9 L13.2489598,9 C12.8352843,9 12.5,9.32273301 12.5,9.72087379 L12.5,17.2791262 C12.5,17.677267 12.8352843,18 13.2489598,18 L16.8272626,18 C17.2409381,18 17.5762224,17.677267 17.5762224,17.2791262 L17.5762224,9.72087379 C17.5762224,9.32273301 17.2409381,9 16.8272626,9 L16.8272626,9 Z M14.6409356,9.66018932 L15.4806784,9.66018932 C15.5308133,9.66018932 15.5714614,9.69931311 15.5714614,9.74756796 C15.5714614,9.79582282 15.5308133,9.8349466 15.4806784,9.8349466 L14.6409356,9.8349466 C14.5908007,9.8349466 14.5501526,9.79582282 14.5501526,9.74756796 C14.5501526,9.69931311 14.5908007,9.66018932 14.6409356,9.66018932 L14.6409356,9.66018932 Z M15.0608524,17.5861748 C14.8602673,17.5861748 14.6977203,17.4297015 14.6977203,17.2366602 C14.6977203,17.0436189 14.8602673,16.8871456 15.0608524,16.8871456 C15.2613466,16.8871456 15.4239844,17.0436189 15.4239844,17.2366602 C15.4239844,17.4297015 15.2613466,17.5861748 15.0608524,17.5861748 L15.0608524,17.5861748 Z M17.0069676,16.5091019 L13.0693002,16.5091019 L13.0693002,10.4908981 L17.0069676,10.4908981 L17.0069676,16.5091019 L17.0069676,16.5091019 Z" id="smartphone-4-icon" fill="#FFFFFF"></path>
            </g>
        </g>
    </g>
</svg>