<?xml version="1.0" encoding="UTF-8"?>
<svg width="30px" height="30px" viewBox="0 0 30 30" version="1.1" xmlns="http://www.w3.org/2000/svg" xmlns:xlink="http://www.w3.org/1999/xlink">
    <!-- Generator: Sketch 45.1 (43504) - http://www.bohemiancoding.com/sketch -->
    <title>icn-shopify, e-commerce</title>
    <desc>Created with Sketch.</desc>
    <defs>
        <rect id="path-1" x="0" y="0" width="30" height="30" rx="3"></rect>
    </defs>
    <g id="Page-1" stroke="none" stroke-width="1" fill="none" fill-rule="evenodd">
        <g id="Types-Icons" transform="translate(-40.000000, -1131.000000)">
            <g id="icn-shopify,-e-commerce" transform="translate(40.000000, 1131.000000)">
                <g id="bg">
                    <use fill="#FFFFFF" fill-rule="evenodd" xlink:href="#path-1"></use>
                    <rect stroke="#9DBC32" stroke-width="1" x="0.5" y="0.5" width="29" height="29" rx="3"></rect>
                </g>
                <g id="Fill-2-+-Fill-4-+-Fill-6" transform="translate(7.000000, 5.000000)">
                    <path d="M7.78896159,0.665078995 C7.89599823,0.665078995 8.00380713,0.701375689 8.10698241,0.772424536 C7.3123165,1.14635771 6.4605026,2.0882183 6.10077919,3.96900486 C5.57501772,4.13179939 5.06114921,4.29088703 4.58604866,4.43808171 C5.00739921,3.0035128 6.00795233,0.665078995 7.78896159,0.665078995 M8.52570725,1.36243888 C8.67815337,1.74455812 8.77731285,2.29286987 8.77731285,3.03285907 C8.77731285,3.0707003 8.77700394,3.105298 8.77669503,3.14035906 C8.17308873,3.32724842 7.51758589,3.530201 6.86038405,3.73377139 C7.22937469,2.30970536 7.92101978,1.62192163 8.52570725,1.36243888 M10.3549062,2.65197546 C10.0795147,2.73723408 9.76643637,2.83407675 9.42710089,2.93910548 C9.4274098,2.87377143 9.42756425,2.8093641 9.42756425,2.73908753 C9.42756425,2.12590508 9.34261455,1.63227005 9.20592274,1.24088357 C9.75454341,1.30977006 10.1198272,1.93376429 10.3549062,2.65197546 M14.8081244,3.743502 C14.7948413,3.64681378 14.7102005,3.59337269 14.6402329,3.58750344 C14.5704196,3.58163419 13.0926036,3.47212629 13.0926036,3.47212629 C13.0926036,3.47212629 12.0662567,2.45319314 11.9536597,2.34044171 C11.8409083,2.22784473 11.6208113,2.26197907 11.5353982,2.28715508 C11.522733,2.29086197 11.311131,2.35619602 10.9609837,2.46446829 C10.6180958,1.47797048 10.0130994,0.571325407 8.94860235,0.571325407 C8.91925609,0.571325407 8.8889831,0.572561039 8.85855566,0.574260033 C8.55598024,0.173915222 8.18096589,0 7.85707582,0 C5.37747104,0 4.19280873,3.09973766 3.82134682,4.67501417 C2.85786267,4.97357378 2.17332247,5.1857936 2.08590149,5.21328642 C1.54793815,5.3819502 1.53110266,5.39894014 1.46051718,5.90570377 C1.40723054,6.28936755 0,17.1721975 0,17.1721975 L10.9654629,19.2267449 L16.907,17.9413785 C16.907,17.9413785 14.821253,3.84019021 14.8081244,3.743502" id="Fill-2" fill="#9DBC32"></path>
                    <path d="M14.6741521,3.6198584 C14.6043389,3.61398915 13.1265229,3.50448125 13.1265229,3.50448125 C13.1265229,3.50448125 12.100176,2.4855481 11.987579,2.37295112 C11.945413,2.33078518 11.888574,2.30931607 11.8291092,2.30004883 L11,19.2589454 L16.9409193,17.9737335 C16.9409193,17.9737335 14.8551722,3.87269962 14.8420437,3.77585696 C14.8287606,3.67916874 14.7441198,3.62572765 14.6741521,3.6198584" id="Fill-4" fill="#5F8C2F"></path>
                    <path d="M9.35516496,6.28713002 L8.62258956,8.46632173 C8.62258956,8.46632173 7.98067867,8.12374273 7.19388991,8.12374273 C6.04042731,8.12374273 5.9823526,8.8476687 5.9823526,9.03007889 C5.9823526,10.0253806 8.57671672,10.4067275 8.57671672,12.7380565 C8.57671672,14.5721979 7.41352352,15.7533078 5.84488853,15.7533078 C3.96240298,15.7533078 3,14.5817741 3,14.5817741 L3.50398346,12.9166053 C3.50398346,12.9166053 4.49341588,13.7661024 5.3283943,13.7661024 C5.87377143,13.7661024 6.09587631,13.3365658 6.09587631,13.0227152 C6.09587631,11.7243748 3.9673455,11.6664545 3.9673455,9.53313563 C3.9673455,7.73760768 5.25595536,6 7.85757882,6 C8.85998538,6 9.35516496,6.28713002 9.35516496,6.28713002" id="Fill-6" fill="#FEFEFE"></path>
                </g>
            </g>
        </g>
    </g>
</svg>