<?xml version="1.0" encoding="UTF-8"?>
<svg width="30px" height="30px" viewBox="0 0 30 30" version="1.1" xmlns="http://www.w3.org/2000/svg" xmlns:xlink="http://www.w3.org/1999/xlink">
    <!-- Generator: Sketch 45.1 (43504) - http://www.bohemiancoding.com/sketch -->
    <title>icn-swish, flash</title>
    <desc>Created with Sketch.</desc>
    <defs></defs>
    <g id="Page-1" stroke="none" stroke-width="1" fill="none" fill-rule="evenodd">
        <g id="Types-Icons" transform="translate(-278.000000, -1307.000000)">
            <g id="icn-swish,-flash" transform="translate(278.000000, 1307.000000)">
                <rect id="bg" fill="#D4440F" x="0" y="0" width="30" height="30" rx="3"></rect>
                <path d="M6.10141006,18.5509632 C5.87348776,20.4462961 5.84851301,21.9451987 5.99975586,22.4997559 C6.43725586,23.9997559 6.7487793,25.0622559 8.62475586,25.0622559 C9.3737793,25.0622559 8.9372559,24.8122559 8.6247559,23.4997559 C8.6247559,22.7524414 8.3112793,20.8747559 13.3737793,20.8747559 C18.4362793,20.8747559 23.1862793,25.9997559 24.4987793,24.7497559 C26.3737793,21.3122559 18.3112793,5.31225586 12.9998779,5.31225586 C9.30175219,5.31225586 7.21548022,11.7066187 6.36306006,16.7469914 C12.8175836,19.8930008 15.5343585,18.0157073 15.7497558,16.9387207 C15.7497558,15.0981522 12.8760985,15.442627 10.8774414,15.192627 C8.17948954,15.192627 8.18725586,12.9341607 8.18725586,12.8149414 C8.18725586,9.81494141 11.4997558,9.3137207 12.3122558,9.3137207 C16.9997558,9.8137207 16.9372559,10.3149414 17.3122559,10.5649414 C17.8747559,12 16.8747559,12 16.4372559,12 C12.8334236,10.5649414 10.6247559,11.5649414 10.6247559,11.5649414 C10.6247559,11.5649414 9.30981435,12.8149414 10.8774413,13.5012207 C12.2502008,13.5012207 17.5649414,12.8149414 17.5649414,16.630127 C17.5649414,20.4453125 13.9997557,20.442627 12.3122559,20.442627 C10.624756,20.442627 7.87487805,19.7811279 6.1262207,18.5623779 C6.11789864,18.5585659 6.10962851,18.554761 6.10141006,18.5509632 Z" id="Rectangle-324" fill="#FFFFFF"></path>
                <rect id="Rectangle-326" fill="#FFFFFF" transform="translate(4.301790, 16.301790) rotate(-338.000000) translate(-4.301790, -16.301790) " x="3.30179045" y="15.3017904" width="2" height="2" rx="1"></rect>
            </g>
        </g>
    </g>
</svg>