<?xml version="1.0" encoding="UTF-8"?>
<svg width="30px" height="30px" viewBox="0 0 30 30" version="1.1" xmlns="http://www.w3.org/2000/svg" xmlns:xlink="http://www.w3.org/1999/xlink">
    <!-- Generator: Sketch 45.1 (43504) - http://www.bohemiancoding.com/sketch -->
    <title>icn-ui</title>
    <desc>Created with Sketch.</desc>
    <defs></defs>
    <g id="Page-1" stroke="none" stroke-width="1" fill="none" fill-rule="evenodd">
        <g id="Types-Icons" transform="translate(-516.000000, -1832.000000)">
            <g id="icn-ui" transform="translate(516.000000, 1832.000000)">
                <rect id="bg" fill="#243238" x="0" y="0" width="30" height="30" rx="3.75"></rect>
                <path d="M12.3275,12.5053636 C13.2125,11.886 14.4458333,12.3098182 14.7541667,13.3235455 C14.2083333,12.9128182 13.4808333,12.9291818 12.9208333,13.3219091 C12.3566667,13.7162727 12.1075,14.388 12.3241667,15.0253636 C11.4491667,14.4076364 11.445,13.1230909 12.3275,12.5053636 L12.3275,12.5053636 Z M14.9641667,21.3417273 C15.665,21.5732727 17.8333333,22.1623636 20.3458333,24 L25,20.7403636 C23.7933333,19.0786364 24.125,17.916 22.9258333,16.2640909 C22.3208333,15.432 21.9075,15.2053636 21.3883333,15.2053636 C21.205,15.2053636 21.0083333,15.234 20.785,15.2740909 L21.2075,15.855 C21.4625,16.2051818 20.9241667,16.5823636 20.6691667,16.2313636 L20.2925,15.7126364 C20.1683333,15.5408182 19.995,15.4827273 19.7958333,15.4827273 C19.5083333,15.4827273 19.1683333,15.6038182 18.845,15.6766364 L19.3575,16.3819091 C19.6108333,16.7320909 19.0741667,17.1092727 18.8191667,16.7582727 L18.375,16.1470909 C18.2516667,15.9769091 18.0808333,15.918 17.8866667,15.918 C17.5875,15.918 17.2308333,16.0570909 16.8983333,16.1397273 L17.44,16.8859091 C17.695,17.2369091 17.1541667,17.6116364 16.9016667,17.2622727 L14.7033333,14.2407273 C14.0225,13.3014545 12.5266667,14.298 13.2325,15.2708182 L16.4783333,19.7389091 C16.13,19.6129091 15.5183333,19.4975455 15.1183333,19.4975455 C13.8841667,19.5 13.4091667,20.8295455 14.9641667,21.3417273 L14.9641667,21.3417273 Z M12.7016667,19.0909091 L7.5,19.0909091 L7.5,7.63636364 L22.5,7.63636364 L22.5,13.7858182 C23.6325,14.2399091 24.4925,15.4598182 25,16.5447273 L25,7.63636364 C25,6.73309091 24.2533333,6 23.3333333,6 L6.66666667,6 C5.74666667,6 5,6.73309091 5,7.63636364 L5,19.0909091 C5,19.9941818 5.74666667,20.7272727 6.66666667,20.7272727 L12.3541667,20.7272727 C12.2616667,20.1627273 12.3558333,19.6161818 12.7016667,19.0909091 Z" id="Shape" fill="#FFFFFF" fill-rule="nonzero"></path>
            </g>
        </g>
    </g>
</svg>