<?xml version="1.0" encoding="UTF-8"?>
<svg width="30px" height="30px" viewBox="0 0 30 30" version="1.1" xmlns="http://www.w3.org/2000/svg" xmlns:xlink="http://www.w3.org/1999/xlink">
    <!-- Generator: Sketch 45.1 (43504) - http://www.bohemiancoding.com/sketch -->
    <title>icn-ui</title>
    <desc>Created with Sketch.</desc>
    <defs></defs>
    <g id="Page-1" stroke="none" stroke-width="1" fill="none" fill-rule="evenodd">
        <g id="Types-Icons" transform="translate(-516.000000, -1657.000000)">
            <g id="icn-ui" transform="translate(516.000000, 1657.000000)">
                <rect id="bg" fill="#243238" x="0" y="0" width="30" height="30" rx="3.75"></rect>
                <path d="M20.8333333,19.9090909 C20.8333333,20.8123636 20.0866667,21.5454545 19.1666667,21.5454545 C18.2466667,21.5454545 17.5,20.8123636 17.5,19.9090909 C17.5,19.0058182 18.2466667,18.2727273 19.1666667,18.2727273 C20.0866667,18.2727273 20.8333333,19.0058182 20.8333333,19.9090909 Z M9.16666667,17.4545455 C7.78833333,17.4545455 6.66666667,18.5558182 6.66666667,19.9090909 C6.66666667,21.2623636 7.78833333,22.3636364 9.16666667,22.3636364 L20.8333333,22.3636364 C22.2116667,22.3636364 23.3333333,21.2623636 23.3333333,19.9090909 C23.3333333,18.5558182 22.2116667,17.4545455 20.8333333,17.4545455 L9.16666667,17.4545455 Z M25,19.9090909 C25,22.1680909 23.1341667,24 20.8333333,24 L9.16666667,24 C6.86583333,24 5,22.1680909 5,19.9090909 C5,17.6500909 6.86583333,15.8181818 9.16666667,15.8181818 L20.8333333,15.8181818 C23.1341667,15.8181818 25,17.6500909 25,19.9090909 Z M25,10.0909091 C25,12.3499091 23.1341667,14.1818182 20.8333333,14.1818182 L9.16666667,14.1818182 C6.86583333,14.1818182 5,12.3499091 5,10.0909091 C5,7.83190909 6.86583333,6 9.16666667,6 L20.8333333,6 C23.1341667,6 25,7.83190909 25,10.0909091 Z M12.5,10.0909091 C12.5,9.18763636 11.7533333,8.45454545 10.8333333,8.45454545 C9.91333333,8.45454545 9.16666667,9.18763636 9.16666667,10.0909091 C9.16666667,10.9941818 9.91333333,11.7272727 10.8333333,11.7272727 C11.7533333,11.7272727 12.5,10.9941818 12.5,10.0909091 Z" fill="#FFFFFF" fill-rule="nonzero"></path>
            </g>
        </g>
    </g>
</svg>