<?xml version="1.0" encoding="UTF-8"?>
<svg width="30px" height="30px" viewBox="0 0 30 30" version="1.1" xmlns="http://www.w3.org/2000/svg" xmlns:xlink="http://www.w3.org/1999/xlink">
    <!-- Generator: Sketch 45.1 (43504) - http://www.bohemiancoding.com/sketch -->
    <title>icn-unbounce, web</title>
    <desc>Created with Sketch.</desc>
    <defs></defs>
    <g id="Page-1" stroke="none" stroke-width="1" fill="none" fill-rule="evenodd">
        <g id="Types-Icons" transform="translate(-278.000000, -604.000000)">
            <g id="icn-unbounce,-web" transform="translate(278.000000, 604.000000)">
                <rect id="bg" fill="#0098DB" x="0" y="0" width="30" height="30" rx="3"></rect>
                <g id="icn-unbounce" transform="translate(8.000000, 5.000000)" fill="#FFFFFF">
                    <path d="M6.90247194,17.4109959 L7.74488369,14.6555912 C10.1952271,14.5320536 12.1428571,12.5653182 12.1428571,10.1572449 C12.1428571,8.66089969 11.390835,7.33496466 10.2334709,6.5157893 L11.0761243,3.75959423 C13.4134179,4.99197932 15,7.39485032 15,10.1572449 C15,14.1759489 11.6421356,17.4337522 7.5,17.4337522 C7.29887675,17.4337522 7.09960253,17.4260715 6.90247194,17.4109959 Z M4.75846052,16.9322837 C1.97233937,15.8702304 0,13.2372062 0,10.1572449 C0,6.13854089 3.35786438,2.88073761 7.5,2.88073761 C8.01701399,2.88073761 8.52180936,2.93149285 9.00938145,3.02814779 L8.1917798,5.7024023 C7.9660857,5.66969139 7.73508321,5.65274039 7.5,5.65274039 C4.9358208,5.65274039 2.85714286,7.66947575 2.85714286,10.1572449 C2.85714286,11.9791967 3.97205548,13.5485065 5.57606802,14.25801 L4.75846052,16.9322837 Z" id="Combined-Shape"></path>
                    <path d="M11.1460321,-1.77635684e-15 L4.53697098,19.9670821 C4.53697098,19.9670821 4.41899291,14.2584057 6.14219545,9.05232185 C7.865398,3.84623796 11.1460321,-1.77635684e-15 11.1460321,-1.77635684e-15 L11.1460321,-1.77635684e-15 Z" id="Rectangle-605"></path>
                </g>
            </g>
        </g>
    </g>
</svg>