<?xml version="1.0" encoding="UTF-8"?>
<svg width="30px" height="30px" viewBox="0 0 30 30" version="1.1" xmlns="http://www.w3.org/2000/svg" xmlns:xlink="http://www.w3.org/1999/xlink">
    <!-- Generator: Sketch 45.1 (43504) - http://www.bohemiancoding.com/sketch -->
    <title>icn-weblium</title>
    <desc>Created with Sketch.</desc>
    <defs></defs>
    <g id="Page-1" stroke="none" stroke-width="1" fill="none" fill-rule="evenodd">
        <g id="Types-Icons" transform="translate(-754.000000, -1657.000000)">
            <g id="icn-weblium" transform="translate(754.000000, 1657.000000)">
                <rect id="bg" fill="#155BFC" x="0" y="0" width="30" height="30" rx="3.75"></rect>
                <path d="M23.5219839,9.85286851 L9.78674379,19.5591545 L7.6648069,12.9217678 L10.1738539,14.6346418 C10.5322892,14.8772989 11.0197612,14.848751 11.3351842,14.563272 L15.2923098,11.151798 L17.3282222,12.850398 L18.9196749,11.7370299 L15.9231559,9.22481471 C15.5647206,8.92506176 15.0342364,8.92506176 14.6758011,9.22481471 L10.6613259,12.6791106 L6.48913917,9.85286851 C6.1450413,9.62448531 5.71491895,9.63875926 5.38515849,9.86714247 C5.05539803,10.1097996 4.92636133,10.5237442 5.04106062,10.8948669 L8.35300265,21.3291243 C8.43902712,21.6146033 8.6684257,21.8429865 8.95517393,21.9429042 C9.05553581,21.9714521 9.15589769,22 9.25625957,22 C9.45698333,22 9.64336968,21.9429042 9.81541861,21.8287126 L22.4896903,12.8789459 L20.7548635,19.5306066 L17.9447309,17.6178973 L16.310266,18.7740873 L20.7978757,21.8287126 C21.0559491,22 21.3713722,22.0428219 21.6724578,21.9286302 C21.9592061,21.8287126 22.1742672,21.5860554 22.2602917,21.2863025 L24.9700625,10.852045 C25.0704243,10.4809223 24.9127128,10.0669778 24.5829524,9.85286851 C24.2675293,9.63875926 23.837407,9.63875926 23.5219839,9.85286851 Z" id="Shape" fill="#FFFFFF" fill-rule="nonzero"></path>
            </g>
        </g>
    </g>
</svg>