<?xml version="1.0" encoding="UTF-8"?>
<svg width="30px" height="30px" viewBox="0 0 30 30" version="1.1" xmlns="http://www.w3.org/2000/svg" xmlns:xlink="http://www.w3.org/1999/xlink">
    <!-- Generator: Sketch 45.1 (43504) - http://www.bohemiancoding.com/sketch -->
    <title>icn-wix</title>
    <desc>Created with Sketch.</desc>
    <defs></defs>
    <g id="Page-1" stroke="none" stroke-width="1" fill="none" fill-rule="evenodd">
        <g id="Types-Icons" transform="translate(-516.000000, -1482.000000)">
            <g id="icn-wix" transform="translate(516.000000, 1482.000000)">
                <rect id="bg" fill="#FAAD4D" x="0" y="0" width="30" height="30" rx="3.75"></rect>
                <g id="Logo" transform="translate(5.000000, 11.000000)" fill="#FFFFFF">
                    <path d="M11.3900567,0.173522204 C11.1058837,0.421752503 11,0.841220892 11,2 C11,2 11.1439217,1.76791024 11.3573574,1.63878596 C11.5129574,1.5447256 11.6458681,1.40168706 11.7227227,1.30781222 C11.9628517,1.01449974 12,0.636403068 12,0.000428879124 C12,0.000428879124 11.6083862,-0.0171958431 11.3900567,0.173522204" id="Fill-11"></path>
                    <path d="M8.74064355,0.383475794 C8.42990487,0.677097401 8.3390988,1.14494195 8.3390988,1.14494195 L7.31055975,5.41724024 L6.45498464,1.9207935 C6.37163391,1.54901132 6.22133421,1.08947832 5.98365789,0.778754093 C5.68097098,0.382836444 5.06560701,0.358061621 5,0.358061621 C4.93439299,0.358061621 4.31902902,0.382836444 4.01634211,0.778754093 C3.77866579,1.08947832 3.62836609,1.54901132 3.54501536,1.9207935 L2.68944025,5.41724024 L1.6609012,1.14494195 C1.6609012,1.14494195 1.57009513,0.677097401 1.25935645,0.383475794 C0.755524409,-0.0926803126 0,0.00913621641 0,0.00913621641 L1.96985059,7.99350211 C1.96985059,7.99350211 2.61980735,8.04353127 2.94500939,7.86595173 C3.37205141,7.63242905 3.57528405,7.45245195 3.83383533,6.36619586 C4.06435452,5.39758022 4.70849611,2.55279123 4.76873528,2.35027703 C4.79840754,2.25021872 4.83613157,2.01094188 5,2.01094188 C5.1675961,2.01094188 5.20203978,2.25005888 5.23126472,2.35027703 C5.29046014,2.5531109 5.93564548,5.39758022 6.16616467,6.36619586 C6.42471595,7.45245195 6.62794859,7.63242905 7.05499061,7.86595173 C7.38019265,8.04353127 8.03014941,7.99350211 8.03014941,7.99350211 L10,0.00913621641 C10,0.00913621641 9.24447559,-0.0926803126 8.74064355,0.383475794" id="Fill-13"></path>
                    <path d="M11.9995551,1 C11.9995551,1 11.9076855,1.21363494 11.6979201,1.38982525 C11.5632299,1.50299494 11.4339895,1.57972298 11.2952953,1.67968674 C11.0629518,1.84718456 11,2.03390617 11,2.3185856 L11,2.41353446 L11,2.85350876 L11,2.86504304 L11,2.96433815 L11,7.98693232 C11,7.98693232 11.3708153,8.05730815 11.6132799,7.87142235 C11.925481,7.6322114 11.9972194,7.40169294 12,6.36327336 L12,1.30223159 L11.9995551,1.30239875 L11.9995551,1 Z" id="Fill-16"></path>
                    <path d="M17.4278606,4.01385406 L20,0.0355605559 C20,0.0355605559 18.9144016,-0.156556618 18.3768961,0.352298588 C18.0328803,0.677812736 17.648356,1.26325951 17.648356,1.26325951 L16.701929,2.68195867 C16.65605,2.75567805 16.5959009,2.83593963 16.5,2.83593963 C16.4040991,2.83593963 16.3437966,2.75567805 16.2979176,2.68195867 L15.351644,1.26325951 C15.351644,1.26325951 14.9669662,0.677812736 14.6231039,0.352298588 C14.0855984,-0.156556618 13,0.0355605559 13,0.0355605559 L15.5721394,4.01385406 L13.0067514,7.979861 C13.0067514,7.979861 14.1373082,8.12825716 14.6748137,7.61940195 C15.018676,7.29388781 15.351644,6.76444862 15.351644,6.76444862 L16.2979176,5.34574945 C16.3437966,5.27203007 16.4040991,5.1917685 16.5,5.1917685 C16.5959009,5.1917685 16.65605,5.27203007 16.701929,5.34574945 L17.648356,6.76444862 C17.648356,6.76444862 18.000811,7.29388781 18.3446734,7.61940195 C18.8821789,8.12825716 19.9930951,7.979861 19.9930951,7.979861 L17.4278606,4.01385406 Z" id="Fill-18"></path>
                </g>
            </g>
        </g>
    </g>
</svg>