<?xml version="1.0" encoding="UTF-8"?>
<svg width="30px" height="30px" viewBox="0 0 30 30" version="1.1" xmlns="http://www.w3.org/2000/svg" xmlns:xlink="http://www.w3.org/1999/xlink">
    <!-- Generator: Sketch 45.1 (43504) - http://www.bohemiancoding.com/sketch -->
    <title>icn-woocommerce, woo, e-commerce</title>
    <desc>Created with Sketch.</desc>
    <defs></defs>
    <g id="Page-1" stroke="none" stroke-width="1" fill="none" fill-rule="evenodd">
        <g id="Types-Icons" transform="translate(-40.000000, -428.000000)">
            <g id="icn-woocommerce,-woo,-e-commerce" transform="translate(40.000000, 428.000000)">
                <rect id="bg" fill="#A46497" x="0" y="0" width="30" height="30" rx="3"></rect>
                <path d="M18.9047441,13.1381212 C19.1937044,13.6393853 19.3381845,14.2427589 19.3381845,14.9668071 C19.3381845,15.9229221 19.1034043,16.7954931 18.6338438,17.5938027 C18.0920433,18.5220697 17.3877026,18.9862032 16.5117917,18.9862032 C16.3582816,18.9862032 16.1957414,18.9676379 16.0241713,18.9305072 C15.3830407,18.7912671 14.9044502,18.4385257 14.5793699,17.8537175 C14.2904096,17.3431706 14.1459295,16.7305144 14.1459295,16.0157488 C14.1459295,15.0596338 14.3807097,14.1870629 14.8502701,13.3980359 C15.4011007,12.4697689 16.1054414,12.0056354 16.9723222,12.0056354 C17.1258323,12.0056354 17.2883725,12.0242008 17.4599427,12.0613314 C18.0920433,12.2005715 18.5796638,12.553313 18.9047441,13.1381212 Z M24.5665596,13.1381212 C24.8555199,13.6393853 25,14.2427589 25,14.9668071 C25,15.9229221 24.7652198,16.7954931 24.2956593,17.5938027 C23.7538588,18.5220697 23.0495181,18.9862032 22.1736073,18.9862032 C22.0200971,18.9862032 21.8575569,18.9676379 21.6859868,18.9305072 C21.0448562,18.7912671 20.5662657,18.4385257 20.2411854,17.8537175 C19.9522251,17.3431706 19.807745,16.7305144 19.807745,16.0157488 C19.807745,15.0596338 20.0425252,14.1870629 20.5120856,13.3980359 C21.0629162,12.4697689 21.7672569,12.0056354 22.6341377,12.0056354 C22.7876478,12.0056354 22.950188,12.0242008 23.1217582,12.0613314 C23.7628888,12.2005715 24.2414793,12.553313 24.5665596,13.1381212 Z M5.15204071,11.680742 C5.27846083,11.5043713 5.46809102,11.4115446 5.72093126,11.3929792 C6.18146171,11.3558485 6.44333196,11.5786326 6.50654203,12.0613314 C6.7864723,14.0014095 7.0934926,15.644442 7.41857291,16.9904292 L9.39614483,13.1195558 C9.57674501,12.7668144 9.80249523,12.581161 10.0733955,12.5625956 C10.4707159,12.5347476 10.7145261,12.7946624 10.8138562,13.3423399 C11.0396064,14.576935 11.3285667,15.6258767 11.671707,16.517013 C11.9064873,14.1592148 12.3038077,12.4604863 12.8636682,11.4115446 C12.9991183,11.1516298 13.1977785,11.0216724 13.4596488,11.0031071 C13.667339,10.9845417 13.8569692,11.0495204 14.0285393,11.1887605 C14.2001095,11.3280005 14.2904096,11.5043713 14.3084696,11.7178727 C14.3174996,11.8849607 14.2904096,12.0242008 14.2181695,12.1634408 C13.8659992,12.831793 13.5770389,13.9549961 13.3422587,15.5144847 C13.1165084,17.0275599 13.0352384,18.2064589 13.0894184,19.0511819 C13.1074784,19.2832486 13.0713584,19.4874674 12.9810583,19.6638381 C12.8726982,19.8680568 12.7101581,19.9794489 12.5024679,19.9980142 C12.2676876,20.0165796 12.0238774,19.9051875 11.7890972,19.6545554 C10.9493063,18.7727018 10.2810857,17.4545627 9.79346522,15.7001381 C9.20651465,16.8883198 8.77307423,17.7794561 8.49314396,18.373547 C7.96037344,19.4224887 7.508873,19.9608835 7.12961263,19.9887316 C6.88580239,20.0072969 6.67811219,19.7937955 6.49751202,19.3482273 C6.03698157,18.1321976 5.54033109,15.7836821 5.00756057,12.3026809 C4.98047054,12.0613314 5.02562059,11.84783 5.15204071,11.680742 Z M17.766963,15.7094207 C17.812113,15.4959193 17.830173,15.2638526 17.830173,15.0225032 C17.830173,14.7533057 17.775993,14.465543 17.6676329,14.1777802 C17.5321827,13.8157561 17.3515826,13.62082 17.1348624,13.5744066 C16.809782,13.509428 16.4937317,13.6950814 16.1957414,14.1499322 C15.9519312,14.5026736 15.7984211,14.8739804 15.717151,15.2545699 C15.6720009,15.4680713 15.6539409,15.7001381 15.6539409,15.9322048 C15.6539409,16.2014022 15.708121,16.489165 15.8164811,16.7769278 C15.9519312,17.1389519 16.1325314,17.333888 16.3492516,17.3803013 C16.5750018,17.4267147 16.818812,17.3246053 17.0806823,17.0832559 C17.4147926,16.7769278 17.6405428,16.3220769 17.766963,15.7094207 Z M23.4287785,15.7094207 C23.4648985,15.4959193 23.4919885,15.2638526 23.4919885,15.0225032 C23.4919885,14.7533057 23.4378085,14.465543 23.3294484,14.1777802 C23.1939982,13.8157561 23.0133981,13.62082 22.7966779,13.5744066 C22.4715975,13.509428 22.1555472,13.6950814 21.8575569,14.1499322 C21.6137467,14.5026736 21.4602366,14.8739804 21.3789665,15.2545699 C21.3338164,15.4680713 21.3157564,15.7001381 21.3157564,15.9322048 C21.3157564,16.2014022 21.3699365,16.489165 21.4782966,16.7769278 C21.6137467,17.1389519 21.7943469,17.333888 22.0110671,17.3803013 C22.2368173,17.4267147 22.4806276,17.3246053 22.7424978,17.0832559 C23.0766081,16.7769278 23.3023583,16.3220769 23.4287785,15.7094207 Z" id="Path" fill="#FFFFFF"></path>
            </g>
        </g>
    </g>
</svg>