<?xml version="1.0" encoding="UTF-8"?>
<svg width="30px" height="30px" viewBox="0 0 30 30" version="1.1" xmlns="http://www.w3.org/2000/svg" xmlns:xlink="http://www.w3.org/1999/xlink">
    <!-- Generator: Sketch 45.1 (43504) - http://www.bohemiancoding.com/sketch -->
    <title>icn-wordpress, wp, cms</title>
    <desc>Created with Sketch.</desc>
    <defs></defs>
    <g id="Page-1" stroke="none" stroke-width="1" fill="none" fill-rule="evenodd">
        <g id="Types-Icons" transform="translate(-40.000000, -252.000000)">
            <g id="icn-wordpress,-wp,-cms" transform="translate(40.000000, 252.000000)">
                <rect id="bg" fill="#191E23" x="0" y="0" width="30" height="30" rx="3"></rect>
                <path d="M21.0763479,6.11840757 C20.457607,6.32520868 19.1370743,7.6484573 20.8115053,10.0089435 C22.48613,12.3693302 21.494992,15.0581424 21.494992,15.0581424 L20.0353794,20.0318606 L16.3604641,8.80806503 C16.3604641,8.80806503 17.3981397,8.72835785 17.5465174,8.7054352 C17.6949435,8.68251255 17.9418201,8.53274459 17.9006578,8.21401531 C17.8594956,7.8952363 17.63136,7.8491921 17.4144593,7.86072802 C17.3055004,7.86649597 16.0242898,7.96584404 14.7515053,7.96574459 C13.4866627,7.96564514 12.2302462,7.86575012 12.1408031,7.86072802 C11.9612389,7.85038547 11.7019169,7.87107056 11.6395924,8.16026393 C11.5947014,8.40221973 11.7069048,8.67102636 11.9612389,8.70175564 C12.2155731,8.73248492 12.0451615,8.70966172 13.0729096,8.80811476 C13.0729096,8.80811476 13.7716021,10.7727004 14.6556215,13.2583413 L12.4175586,20.0807391 L8.73048833,8.80811476 C8.73048833,8.80811476 9.76816388,8.72840757 9.91659003,8.70548492 C10.0650162,8.68256227 10.3118927,8.53279431 10.2707305,8.21406503 C10.2295682,7.89528603 10.0014326,7.84924183 9.78448349,7.86077774 C9.67566993,7.8665457 8.394314,7.96589376 7.12148107,7.96579431 C5.85673531,7.96569487 4.60031884,7.86579984 4.51087574,7.86077774 C4.33131158,7.8504352 4.07198954,7.87112028 4.00966509,8.16031365 C3.96477405,8.40226945 4.07697744,8.67107608 4.33131158,8.70180536 C4.58564572,8.73253465 4.4152341,8.70971144 5.44298228,8.80816448 C5.44298228,8.80816448 10.3489871,22.6021811 10.6090355,23.3423192 C10.869084,24.0824573 11.9462753,24.2744407 12.2529581,23.3066672 C12.4796893,22.5912916 14.2432728,17.3351424 15.1476312,14.6422529 C16.5207063,18.5039987 18.0946046,22.9317501 18.2388176,23.3423192 C18.4990113,24.0824573 19.5761542,24.2744407 19.882837,23.3066672 C20.1895198,22.3388938 21.9249678,17.3440429 23.4135392,12.8712418 C24.7301978,8.79513686 23.5086481,5.30602083 21.0763479,6.11840757 L21.0763479,6.11840757 Z" id="wp-logo" fill="#FFFFFF"></path>
            </g>
        </g>
    </g>
</svg>