<?xml version="1.0" encoding="UTF-8"?>
<svg width="30px" height="30px" viewBox="0 0 30 30" version="1.1" xmlns="http://www.w3.org/2000/svg" xmlns:xlink="http://www.w3.org/1999/xlink">
    <!-- Generator: Sketch 45.1 (43504) - http://www.bohemiancoding.com/sketch -->
    <title>icn-x-cart</title>
    <desc>Created with Sketch.</desc>
    <defs></defs>
    <g id="Page-1" stroke="none" stroke-width="1" fill="none" fill-rule="evenodd">
        <g id="Types-Icons" transform="translate(-278.000000, -1657.000000)">
            <g id="icn-x-cart" transform="translate(278.000000, 1657.000000)">
                <rect id="bg" fill="#FF8D00" x="0" y="0" width="30" height="30" rx="3.75"></rect>
                <g id="1492099569_xcart" transform="translate(5.000000, 5.000000)" fill-rule="nonzero" fill="#FFFFFF">
                    <path d="M19.6244635,9.49400104 C19.0665236,10.0365154 17.9828326,11.0902452 17.1244635,11.9248826 C17.9828326,12.7595201 19.055794,13.8028169 19.6244635,14.3557642 C19.8497854,14.5748565 20,14.8669797 20,15.1904017 L20,19.4574857 C20,19.9269692 19.8927039,20 19.3991416,20 L17.3175966,20 L17.3175966,16.7449139 C17.3175966,16.3484611 17.2424893,16.1293688 16.9420601,15.8372457 C16.4592275,15.3677621 15.1502146,14.0636411 14.667382,13.5941575 C14.4098712,13.3437663 14.0343348,13.2290037 13.7017167,13.2290037 L6.3304721,13.2290037 C5.99785408,13.2290037 5.6223176,13.3333333 5.36480687,13.5941575 C4.88197425,14.0636411 3.57296137,15.3677621 3.09012876,15.8372457 C2.78969957,16.1293688 2.71459227,16.3067293 2.71459227,16.7449139 L2.71459227,19.3844549 C2.71459227,19.8539384 2.60729614,20 2.08154506,20 L0,20 L0,15.1799687 C0,14.8878456 0.150214592,14.5644236 0.375536481,14.3453312 C0.933476395,13.8028169 2.01716738,12.7490871 2.87553648,11.9144497 C2.01716738,11.0798122 0.944206009,10.0365154 0.375536481,9.48356808 C0.150214592,9.26447574 0,8.97235263 0,8.64893062 L0,0 L2.68240343,0 L2.68240343,7.09441836 C2.68240343,7.49087115 2.75751073,7.70996348 3.05793991,8.00208659 C3.54077253,8.47157016 4.84978541,9.77569118 5.33261803,10.2451748 C5.59012876,10.495566 5.96566524,10.6103286 6.29828326,10.6103286 L13.6695279,10.6103286 C14.0021459,10.6103286 14.3776824,10.505999 14.6351931,10.2451748 C15.1180258,9.77569118 16.4270386,8.47157016 16.9098712,8.00208659 C17.2103004,7.70996348 17.2854077,7.53260303 17.2854077,7.09441836 L17.2854077,2.9652279e-15 L19.9678112,2.9652279e-15 L19.9678112,8.64893062 C20,8.99321857 19.8497854,9.31664058 19.6244635,9.49400104 Z" id="Shape"></path>
                    <polygon id="Shape" points="6.06796117 4.57819905 7.88349515 4.57819905 7.88349515 6.32227488 6.06796117 6.32227488"></polygon>
                    <polygon id="Shape" points="12.7378641 4.57819905 14.5533981 4.57819905 14.5533981 6.32227488 12.7378641 6.32227488"></polygon>
                    <polygon id="Shape" points="6.06796117 1.31753555 7.88349515 1.31753555 7.88349515 3.06161137 6.06796117 3.06161137"></polygon>
                    <polygon id="Shape" points="12.7378641 1.31753555 14.5533981 1.31753555 14.5533981 3.06161137 12.7378641 3.06161137"></polygon>
                    <polygon id="Shape" points="9.39805825 4.57819905 11.2135922 4.57819905 11.2135922 6.32227488 9.39805825 6.32227488"></polygon>
                    <polygon id="Shape" points="9.39805825 1.31753555 11.2135922 1.31753555 11.2135922 3.06161137 9.39805825 3.06161137"></polygon>
                </g>
            </g>
        </g>
    </g>
</svg>