<?xml version="1.0" encoding="UTF-8"?>
<svg width="30px" height="30px" viewBox="0 0 30 30" version="1.1" xmlns="http://www.w3.org/2000/svg" xmlns:xlink="http://www.w3.org/1999/xlink">
    <!-- Generator: Sketch 45.1 (43504) - http://www.bohemiancoding.com/sketch -->
    <title>icn-zencart, e-commerce</title>
    <desc>Created with Sketch.</desc>
    <defs>
        <radialGradient cx="50%" cy="50%" fx="50%" fy="50%" r="100%" gradientTransform="translate(0.500000,0.500000),scale(1.000000,0.947833),rotate(90.000000),translate(-0.500000,-0.500000)" id="radialGradient-1">
            <stop stop-color="#FAEA00" offset="0%"></stop>
            <stop stop-color="#FF340B" offset="100%"></stop>
        </radialGradient>
    </defs>
    <g id="Page-1" stroke="none" stroke-width="1" fill="none" fill-rule="evenodd">
        <g id="Types-Icons" transform="translate(-516.000000, -956.000000)">
            <g id="icn-zencart,-e-commerce" transform="translate(516.000000, 956.000000)">
                <rect id="bg" fill="#000000" x="0" y="0" width="30" height="30" rx="3"></rect>
                <path d="M23.8129229,15.8734006 C23.8129229,15.8734006 23.4176693,16.6466019 22.6981538,16.8805455 C22.6981538,16.8805455 22.0693356,17.1858596 22.2129608,15.9096543 C22.2129608,15.9096543 22.357344,13.7159909 21.6737031,12.4938503 C21.6737031,12.4938503 20.9904413,10.5159405 19.0129104,9.40155039 C19.0129104,9.40155039 17.2507542,8.14277717 16.7114965,7.8193994 C16.7114965,7.8193994 15.7411106,7.10064178 15.4176065,6.66900825 C15.4176065,6.66900825 14.6622163,5.80586751 15.9927389,5.2307351 C15.9927389,5.2307351 16.7482555,4.76335316 18.0783992,5.15898565 C18.0783992,5.15898565 20.8460582,5.91399695 23.0755963,9.0059179 C23.0755963,9.0059179 25.6823243,12.9609796 23.8129229,15.8734006 L23.8129229,15.8734006 Z M23.3454146,21.0509819 C23.3454146,21.0509819 22.4642102,22.6691339 20.1631753,23.1365158 C20.1631753,23.1365158 18.2937739,23.5503383 16.2086188,21.968061 C16.2086188,21.968061 14.5009063,20.7460467 14.2669627,19.03745 C14.2669627,19.03745 14.0512091,17.1680486 15.1655992,15.7661554 C15.1655992,15.7661554 16.5498077,14.0571797 16.8018149,15.6035823 C16.8018149,15.6035823 16.8913754,17.4374879 17.0712543,17.9767456 C17.0712543,17.9767456 17.6645767,19.6489624 19.8041754,19.7747766 C19.8041754,19.7747766 21.1885102,19.8821481 22.3928397,19.3791441 C22.3928397,19.3791441 23.4535441,19.0197653 23.8311129,19.361333 C23.8311129,19.361333 24.3884342,19.5227693 23.3454146,21.0509819 L23.3454146,21.0509819 Z M13.0262532,15.7661554 C13.0262532,15.7661554 12.3434966,16.5566625 12.2535572,18.2824387 C12.2535572,18.2824387 12.1636177,19.4508935 12.594746,22.0938752 C12.594746,22.0938752 12.8645643,23.7298382 12.9545037,23.9814666 C12.9545037,23.9814666 13.2960715,25.2036072 12.3434966,24.9704215 C12.3434966,24.9704215 11.3722264,24.8083536 10.5813404,23.6939635 C10.5813404,23.6939635 8.83775316,21.482868 9.32332509,18.067064 C9.32332509,18.067064 9.43107557,15.2982682 11.3545417,13.6804951 C11.3545417,13.6804951 12.936819,12.0264684 15.3635418,12.2962867 C15.3635418,12.2962867 16.7478765,12.3858472 16.1367431,13.3748021 C16.1367431,13.3748021 15.5794217,13.860374 15.2736023,14.0757487 C15.2736023,14.0757487 13.545805,15.1183893 13.0262532,15.7661554 L13.0262532,15.7661554 Z M17.786096,12.0441531 C17.786096,12.0441531 18.3928083,11.3294377 19.5525471,11.5440544 C20.0583301,11.6375308 20.8062675,12.1116077 21.0220211,12.9069149 C21.0220211,12.9069149 21.7363576,14.9160256 19.889441,15.5901924 C19.889441,15.5901924 18.419588,16.0486057 17.462213,14.9160256 C17.462213,14.9160256 16.4779319,13.7432759 17.786096,12.0441531 L17.786096,12.0441531 Z M7.54348416,17.0245497 C7.54348416,17.0245497 6.82434759,17.9230599 5.90714213,17.2039233 C5.90714213,17.2039233 5.15250979,16.467102 5.78170692,14.8848247 C5.78170692,14.8848247 6.46458982,12.4757866 8.96356732,10.6958194 C8.96356732,10.6958194 11.1746628,9.20398679 13.9612697,9.07817263 C13.9612697,9.07817263 15.488977,8.97004318 16.6938118,9.59961928 C16.6938118,9.59961928 18.0421455,10.138877 17.1076343,10.7680741 C17.1076343,10.7680741 15.4894823,11.3432065 14.6085305,11.5048954 C14.6085305,11.5048954 12.7028754,11.9365289 10.9769729,13.1771122 C10.9769729,13.1771122 9.57457445,14.2734386 8.9458826,15.2265188 C8.9458826,15.2265188 7.95692769,16.8086698 7.54348416,17.0245497 L7.54348416,17.0245497 Z" id="Fill-4" fill="url(#radialGradient-1)"></path>
            </g>
        </g>
    </g>
</svg>