<svg width="20" height="20" viewBox="0 0 20 20" version="1.1" xmlns="http://www.w3.org/2000/svg" xmlns:xlink="http://www.w3.org/1999/xlink">
<title>Vector</title>
<desc>Created using Figma</desc>
<g id="Canvas" transform="translate(-5591 -3150)">
<g id="Vector">
<use xlink:href="#path0_fill" transform="translate(5591 3150)"/>
</g>
</g>
<defs>
<path id="path0_fill" d="M 19.9544 0.304761C 19.9483 0.290357 19.9429 0.27815 19.9356 0.264234C 19.9261 0.246167 19.922 0.226636 19.9102 0.209546C 19.8665 0.147046 19.8084 0.102368 19.7458 0.0664797C 19.7404 0.06355 19.739 0.0567141 19.7334 0.0537844C 19.7261 0.0498782 19.7174 0.0532961 19.71 0.0498782C 19.6245 0.00983914 19.5319 -0.00847136 19.437 0.00373564C 19.4237 0.00544464 19.4131 0.0103274 19.3999 0.0130129C 19.3643 0.0205813 19.3283 0.0244875 19.294 0.0401125L 0.29397 8.63533C 0.113306 8.71736 -0.00192866 8.89802 2.44435e-05 9.09626C 0.00246584 9.295 0.121606 9.47322 0.304224 9.55085L 7.43459 12.5877L 7.43459 19.4957C 7.43459 19.7252 7.59084 19.9254 7.8135 19.9805C 7.85403 19.9908 7.89456 19.9957 7.93459 19.9957C 8.11624 19.9957 8.28762 19.8966 8.376 19.7305L 11.0471 14.7159L 15.938 17.6622C 16.0166 17.71 16.106 17.734 16.1958 17.734C 16.2647 17.734 16.3335 17.7198 16.3985 17.691C 16.5474 17.6251 16.6548 17.4908 16.6865 17.3306L 19.9907 0.592359C 19.992 0.586256 19.9876 0.581129 19.9886 0.575025C 20.0034 0.483716 19.991 0.392163 19.9544 0.304761ZM 17.2646 2.05598L 12.5147 6.88655L 7.81692 11.6636L 1.74368 9.07722L 17.2646 2.05598ZM 8.4346 17.4932L 8.4346 13.1422L 10.1892 14.1993L 8.4346 17.4932ZM 15.8433 16.4381L 8.73538 12.1563L 12.6621 8.16267L 18.6861 2.03669L 15.8433 16.4381Z"/>
</defs>
</svg>
